{
.appVersion = "3260";
.formatVersion = 3;
DisplayStrings = (
"HH/Placeholder HO/Placeholder OOFAF GAG
A/Placeholder A B/Placeholder B C/Placeholder C D/Placeholder D E/Placeholder E F/Placeholder F G/Placeholder G H/Placeholder H I/Placeholder I  J/Placeholder J K/Placeholder K L/Placeholder L M/Placeholder M N/Placeholder N O/Placeholder O P/Placeholder P Q/Placeholder Q R/Placeholder R S/Placeholder S T/Placeholder T U/Placeholder U V/Placeholder V W/Placeholder W X/Placeholder X Y/Placeholder Y Z/Placeholder Z HH/Placeholder HO/Placeholder OO

ABCDEFGHIJKLMNOPQRSTUVWXYZ AJAJ HDH DV D DY DX

ADD AFAIK AGRADO ALTAR ALVARO AMAYA ARVO AUSTRAL AVATAR AVIÓN AWARD AYUDA AYUNO BAOARLEY LCL LO  CHERVIL FALAZ FAMILY FAVOR FOLD FOSFORO HOYO KALE KELLOGS KILO GLG KUNST LONDRES 
HGH GYRO yro LYCHEE LYON MARVELOUS MONTH MUG MY OVOIDE OXATAIL OXO PAIN PATO PIZZA POINT RAYA ROTO RYAN SQUASH SXS TAIWAN TALL TARA TEMPERTURE TERMO TÌNH TIRO TOFU TOMATO TUVO TWARDOCK TWOMBLI UPPUMA VACA VANILLA VARIAR VELOCIDAD VIAJAR VIENE TJ AJ BJ VOLCAN WALKING WALS WC WD WHEAT WINSTON WONDER WULC XERGIS XEROX YALE YEYO YIN YOGURT YOU ZUCCHINI ZWEIBACK
ROUND NGƯỜI THẤY VƯƠNG TRỜI

VẬY CHẠY ĐỨT ỚT THƯƠNG TẤY ",
" ờnoo HH/Placeholder HO/Placeholder OO
o.,:;…!¡?¿nn?·•*#///backslash Ll

LLL ;L/periodcentered.loclCAT (){}[]-–—‐_o‚„
“”‘’«»‹›\"'⟨⟩@",
"HH/Placeholder HO/Placeholder OO 
↑↗→↘↓↗↙←↖",
"ı/acutecomb.loclVIT.narrow/iacute.loclVIT",
"Ȍ",
"...…",
" ",
" ”“”/_pathCurrencydbhorz",
"uưưự",
"/six.tf",
"⟩"
);
axes = (
{
name = Weight;
tag = wght;
}
);
classes = (
{
automatic = 1;

glyphs = (
{
glyphname = .notdef;
lastChange = "2024-07-05 18:34:02 +0000";
layers = (
{
background = {
shapes = (
{
closed = 1;
nodes = (
(314,602,l),
(314,98,l),
(158,98,l),
(158,602,l)
);
},
{
closed = 1;
nodes = (
(397,602,l),
(397,350,l),
(241,350,l),
(241,602,l)
);
}
);
};
layerId = "3D52442A-254C-4C79-B742-A98FD72DF947";
shapes = (
{
closed = 1;
nodes = (
(567,0,l),
(567,700,l),
(60,700,l),
(60,0,l)
);
},
{
closed = 1;
nodes = (
(161,620,l),
(465,620,l),
(313,400,l)
);
},
{
closed = 1;
nodes = (
(140,152,l),
(140,556,l),
(279,355,l)
);
},
{
closed = 1;
nodes = (
(471,80,l),
(156,80,l),
(315,309,l)
);
},
{
closed = 1;
nodes = (
(487,557,l),
(487,151,l),
(347,355,l)
);
}
);
width = 627;
},
{
layerId = "6242D68C-0A25-4F05-8F2A-2075F7C4A210";
shapes = (
{
closed = 1;
nodes = (
(567,0,l),
(567,700,l),
(60,700,l),
(60,0,l)
);
},
{
closed = 1;
nodes = (
(161,620,l),
(465,620,l),
(313,400,l)
);
},
{
closed = 1;
nodes = (
(140,152,l),
(140,556,l),
(279,355,l)
);
},
{
closed = 1;
nodes = (
(471,80,l),
(156,80,l),
(315,309,l)
);
},
{
closed = 1;
nodes = (
(487,557,l),
(487,151,l),
(347,355,l)
);
}
);
width = 627;
},
{
layerId = "DB110BCC-92E3-410E-8C20-9F3FFF600FD0";
shapes = (
{
closed = 1;
nodes = (
(567,0,l),
(567,700,l),
(60,700,l),
(60,0,l)
);
},
{
closed = 1;
nodes = (
(161,620,l),
(465,620,l),
(313,400,l)
);
},
{
closed = 1;
nodes = (
(140,152,l),
(140,556,l),
(279,355,l)
);
},
{
closed = 1;
nodes = (
(471,80,l),
(156,80,l),
(315,309,l)
);
},
{
closed = 1;
nodes = (
(487,557,l),
(487,151,l),
(347,355,l)
);
}
);
width = 627;
}
);
},
{
glyphname = A;
kernLeft = A;
kernRight = A;
lastChange = "2024-06-17 18:15:40 +0000";
layers = (
{
anchors = (
{
name = bottom;
pos = (317,0);
},
{
name = ogonek;
pos = (525,0);
},
{
name = top;
pos = (317,700);
}
);
layerId = "6242D68C-0A25-4F05-8F2A-2075F7C4A210";
shapes = (
{
closed = 1;
nodes = (
(132,-10,o),
(165,8,o),
(174,38,cs),
(335,550,l),
(298,550,l),
(461,38,ls),
(471,8,o),
(503,-10,o),
(536,-10,cs),
(596,-10,o),
(627,50,o),
(609,98,cs),
(396,657,ls),
(382,693,o),
(357,710,o),
(319,710,cs),
(279,710,o),
(252,692,o),
(239,657,cs),
(25,98,ls),
(8,55,o),
(35,-10,o),
(99,-10,cs)
);
},
{
closed = 1;
nodes = (
(474,144,l),
(474,284,l),
(146,284,l),
(146,144,l)
);
}
);
width = 634;
},
{
anchors = (
{
name = bottom;
pos = (268,0);
},
{
name = ogonek;
pos = (482,0);
},
{
name = top;
pos = (268,680);
}
);
background = {
shapes = (
{
attr = {
strokeWidth = 2;
};
closed = 0;
nodes = (
(31,0,l),
(275,698,l)
);
},
{
attr = {
strokeWidth = 2;
};
closed = 0;
nodes = (
(105,251,l),
(433,251,l)
);
},
{
attr = {
strokeWidth = 2;
};
closed = 0;
nodes = (
(511,0,l),
(267,698,l)
);
},
{
closed = 1;
nodes = (
(118,281,l),
(118,223,l),
(420,223,l),
(420,281,l)
);
},
{
closed = 1;
nodes = (
(49,-10,o),
(59,-2,o),
(63,9,cs),
(284,639,l),
(257,639,l),
(478,9,ls),
(482,-2,o),
(492,-10,o),
(505,-10,cs),
(527,-10,o),
(539,10,o),
(532,29,cs),
(304,681,ls),
(297,701,o),
(284,710,o),
(271,710,cs),
(258,710,o),
(245,701,o),
(238,681,cs),
(10,29,ls),
(3,10,o),
(15,-10,o),
(37,-10,cs)
);
}
);
};
layerId = "3D52442A-254C-4C79-B742-A98FD72DF947";
shapes = (
{
closed = 1;
nodes = (
(48,-10,o),
(57,-4,o),
(60,5,cs),
(275,643,l),
(265,643,l),
(476,5,ls),
(479,-4,o),
(488,-10,o),
(498,-10,cs),
(516,-10,o),
(525,7,o),
(520,21,cs),
(292,695,ls),
(289,704,o),
(279,710,o),
(270,710,cs),
(261,710,o),
(251,704,o),
(248,695,cs),
(16,21,ls),
(11,7,o),
(20,-10,o),
(38,-10,cs)
);
},
{
closed = 1;
nodes = (
(429,237,l),
(429,281,l),
(110,281,l),
(110,237,l)
);
}
);
width = 536;
},
{
anchors = (
{
name = bottom;
pos = (295,0);
},
{
name = ogonek;
pos = (508,1);
},
{
name = top;
pos = (295,690);
}
);
layerId = "DB110BCC-92E3-410E-8C20-9F3FFF600FD0";
shapes = (
{
closed = 1;
nodes = (
(77,-10,o),
(93,1,o),
(98,17,cs),
(306,617,l),
(285,617,l),
(492,17,ls),
(497,1,o),
(513,-10,o),
(530,-10,cs),
(562,-10,o),
(576,24,o),
(568,47,cs),
(341,674,ls),
(332,700,o),
(314,710,o),
(295,710,cs),
(276,710,o),
(258,700,o),
(249,674,cs),
(22,47,ls),
(14,24,o),
(27,-10,o),
(60,-10,cs)
);
},
{
closed = 1;
nodes = (
(464,208,l),
(464,285,l),
(122,285,l),
(122,208,l)
);
}
);
width = 590;
}
);
unicode = 65;
},
{
glyphname = Aogonek;
kernLeft = A;
kernRight = A;
lastChange = "2024-06-17 18:15:40 +0000";
layers = (
{
layerId = "6242D68C-0A25-4F05-8F2A-2075F7C4A210";
shapes = (
{
ref = A;
},
{
pos = (319,0);
ref = ogonekcomb.case;
}
);
width = 634;
},
{
background = {
shapes = (
{
closed = 1;
nodes = (
(1412,-202,o),
(1435,-186,o),
(1448,-168,cs),
(1457,-156,o),
(1461,-151,o),
(1461,-141,cs),
(1461,-130,o),
(1453,-123,o),
(1443,-123,cs),
(1434,-123,o),
(1429,-129,o),
(1424,-134,c),
(1407,-154,o),
(1391,-157,o),
(1379,-157,cs),
(1361,-157,o),
(1340,-142,o),
(1340,-119,cs),
(1340,-61,o),
(1464,-34,o),
(1446,18,cs),
(1413,111,l),
(1372,89,l),
(1397,16,ls),
(1410,-23,o),
(1295,-31,o),
(1295,-124,cs),
(1295,-171,o),
(1340,-202,o),
(1380,-202,cs)
);
},
{
pos = (600,0);
ref = A;
},
{
closed = 1;
nodes = (
(1102,-28,o),
(980,-39,o),
(980,-131,cs),
(980,-184,o),
(1020,-215,o),
(1070,-215,cs),
(1107,-215,o),
(1134,-200,o),
(1153,-175,cs),
(1157,-169,o),
(1161,-164,o),
(1161,-155,cs),
(1161,-143,o),
(1153,-136,o),
(1143,-136,cs),
(1133,-136,o),
(1128,-142,o),
(1123,-147,cs),
(1104,-166,o),
(1091,-174,o),
(1072,-174,cs),
(1041,-174,o),
(1024,-155,o),
(1024,-130,cs),
(1024,-65,o),
(1145,-57,o),
(1145,5,c),
(1102,13,l)
);
}
);
};
layerId = "3D52442A-254C-4C79-B742-A98FD72DF947";
shapes = (
{
ref = A;
},
{
pos = (340,0);
ref = ogonekcomb.case;
}
);
width = 536;
},
{
layerId = "DB110BCC-92E3-410E-8C20-9F3FFF600FD0";
shapes = (
{
ref = A;
},
{
pos = (341,1);
ref = ogonekcomb.case;
}
);
width = 590;
}
);
metricLeft = "=A";
metricRight = "=A";
unicode = 260;
},
{
glyphname = AE;
kernLeft = A;
kernRight = E;
lastChange = "2024-06-17 18:15:40 +0000";
layers = (
{
anchors = (
{
name = bottom;
pos = (404,0);
},
{
name = top;
pos = (523,700);
}
);
background = {
anchors = (
{
name = bottom;
pos = (434,0);
},
{
name = top;
pos = (434,700);
}
);
shapes = (
{
attr = {
lineCapEnd = "1";
lineCapStart = "1";
strokeHeight = 140;
strokeWidth = 140;
};
closed = 0;
nodes = (
(689,626,l),
(365,626,ls),
(359,626,o),
(357,624,o),
(353,616,cs),
(110,71,l)
);
},
{
attr = {
lineCapEnd = "1";
lineCapStart = "1";
strokeHeight = 140;
strokeWidth = 140;
};
closed = 0;
nodes = (
(696,71,l),
(444,71,ls),
(441,71,o),
(439,71,o),
(439,74,cs),
(439,610,l)
);
},
{
attr = {
lineCapEnd = "2";
lineCapStart = "2";
strokeHeight = 140;
strokeWidth = 140;
};
closed = 0;
nodes = (
(723,363,l),
(439,363,l)
);
},
{
attr = {
strokeHeight = 130;
strokeWidth = 130;
};
closed = 0;
nodes = (
(424,219,l),
(190,219,l)
);
},
{
closed = 1;
nodes = (
(416,586,l),
(415,583,o),
(359,556,o),
(365,556,c),
(689,556,ls),
(728,556,o),
(759,587,o),
(759,626,cs),
(759,665,o),
(728,696,o),
(689,696,cs),
(365,696,ls),
(324,696,o),
(301,671,o),
(290,646,cs),
(46,100,ls),
(26,55,o),
(57,1,o),
(110,1,cs),
(139,1,o),
(163,18,o),
(174,42,cs)
);
},
{
closed = 1;
nodes = (
(369,74,l),
(369,21,o),
(415,1,o),
(444,1,c),
(696,1,ls),
(735,1,o),
(766,32,o),
(766,71,cs),
(766,110,o),
(735,141,o),
(696,141,cs),
(444,141,l),
(509,74,l),
(509,610,l),
(369,610,l)
);
},
{
closed = 1;
nodes = (
(660,293,ls),
(699,293,o),
(730,324,o),
(730,363,cs),
(730,402,o),
(699,433,o),
(660,433,cs),
(502,433,l),
(502,293,l)
);
},
{
closed = 1;
nodes = (
(424,154,l),
(424,284,l),
(190,284,l),
(190,154,l)
);
}
);
};
layerId = "6242D68C-0A25-4F05-8F2A-2075F7C4A210";
shapes = (
{
closed = 1;
nodes = (
(120,-10,o),
(142,9,o),
(155,32,cs),
(224,154,l),
(369,154,l),
(369,74,ls),
(369,28,o),
(397,0,o),
(444,0,cs),
(696,0,ls),
(735,0,o),
(766,32,o),
(766,71,cs),
(766,110,o),
(735,141,o),
(696,141,cs),
(509,141,l),
(509,293,l),
(660,293,ls),
(699,293,o),
(730,324,o),
(730,363,cs),
(730,402,o),
(699,433,o),
(660,433,cs),
(509,433,l),
(509,560,l),
(689,560,ls),
(728,560,o),
(759,591,o),
(759,630,cs),
(759,669,o),
(728,700,o),
(689,700,cs),
(365,700,ls),
(324,700,o),
(302,675,o),
(290,650,cs),
(27,90,ls),
(6,45,o),
(38,-10,o),
(91,-10,cs)
);
},
{
closed = 1;
nodes = (
(364,476,ls),
(365,479,o),
(366,480,o),
(367,480,c),
(369,480,l),
(369,284,l),
(282,284,l)
);
}
);
width = 801;
},
{
anchors = (
{
name = bottom;
pos = (381,0);
},
{
name = top;
pos = (489,700);
}
);
background = {
shapes = (
{
attr = {
lineCapEnd = "1";
lineCapStart = "1";
strokeHeight = 45;
strokeWidth = 45;
};
closed = 0;
nodes = (
(681,677,l),
(343,677,ls),
(337,677,o),
(333,675,o),
(329,666,cs),
(41,18,l)
);
},
{
attr = {
lineCapEnd = "1";
lineCapStart = "1";
strokeHeight = 45;
strokeWidth = 45;
};
closed = 0;
nodes = (
(689,23,l),
(390,23,ls),
(387,23,o),
(385,25,o),
(385,28,cs),
(385,665,l)
);
},
{
attr = {
lineCapEnd = "2";
lineCapStart = "2";
strokeHeight = 45;
strokeWidth = 45;
};
closed = 0;
nodes = (
(686,365,l),
(384,365,l)
);
},
{
attr = {
strokeHeight = 45;
strokeWidth = 45;
};
closed = 0;
nodes = (
(366,241,l),
(136,241,l)
);
},
{
closed = 1;
nodes = (
(347,651,ls),
(348,654,o),
(351,655,o),
(354,655,cs),
(681,655,ls),
(693,654,o),
(704,665,o),
(704,677,cs),
(704,689,o),
(693,700,o),
(681,700,cs),
(343,700,ls),
(328,700,o),
(316,692,o),
(308,675,cs),
(20,27,ls),
(19,24,o),
(19,21,o),
(19,18,cs),
(19,6,o),
(29,-5,o),
(41,-5,cs),
(50,-5,o),
(58,1,o),
(62,9,cs)
);
},
{
closed = 1;
nodes = (
(363,28,ls),
(363,13,o),
(375,1,o),
(390,1,cs),
(689,1,ls),
(701,1,o),
(712,11,o),
(712,23,cs),
(712,35,o),
(701,46,o),
(689,46,cs),
(390,46,l),
(408,28,l),
(408,665,l),
(363,665,l)
);
},
{
closed = 1;
nodes = (
(666,343,ls),
(678,343,o),
(688,353,o),
(688,365,cs),
(688,377,o),
(678,388,o),
(666,388,cs),
(404,388,l),
(404,343,l)
);
},
{
closed = 1;
nodes = (
(366,219,l),
(366,264,l),
(136,264,l),
(136,219,l)
);
}
);
};
layerId = "3D52442A-254C-4C79-B742-A98FD72DF947";
shapes = (
{
closed = 1;
nodes = (
(46,-10,o),
(54,-4,o),
(58,4,cs),
(155,219,l),
(363,219,l),
(363,27,ls),
(363,10,o),
(373,0,o),
(390,0,cs),
(689,0,ls),
(701,0,o),
(712,10,o),
(712,22,cs),
(712,34,o),
(701,45,o),
(689,45,cs),
(408,45,l),
(408,343,l),
(666,343,ls),
(678,343,o),
(688,353,o),
(688,365,cs),
(688,377,o),
(678,388,o),
(666,388,cs),
(408,388,l),
(408,655,l),
(681,655,l),
(693,654,o),
(704,665,o),
(704,677,cs),
(704,689,o),
(693,700,o),
(681,700,cs),
(343,700,ls),
(328,700,o),
(316,692,o),
(308,675,cs),
(16,22,ls),
(11,10,o),
(20,-10,o),
(37,-10,cs)
);
},
{
closed = 1;
nodes = (
(347,651,ls),
(348,654,o),
(351,655,o),
(354,655,cs),
(363,655,l),
(363,264,l),
(175,264,l)
);
}
);
width = 777;
},
{
anchors = (
{
name = bottom;
pos = (408,0);
},
{
name = top;
pos = (526,700);
}
);
layerId = "DB110BCC-92E3-410E-8C20-9F3FFF600FD0";
shapes = (
{
closed = 1;
nodes = (
(77,-10,o),
(91,1,o),
(97,15,cs),
(181,205,l),
(378,205,l),
(378,42,ls),
(378,16,o),
(394,0,o),
(420,0,cs),
(729,0,ls),
(750,0,o),
(768,17,o),
(768,38,cs),
(768,59,o),
(750,76,o),
(729,76,cs),
(458,76,l),
(458,327,l),
(689,327,ls),
(710,327,o),
(727,343,o),
(727,365,cs),
(727,385,o),
(710,403,o),
(689,403,cs),
(458,403,l),
(458,624,l),
(710,624,l),
(730,624,o),
(748,641,o),
(748,662,cs),
(748,683,o),
(730,700,o),
(710,700,cs),
(346,700,ls),
(325,700,o),
(309,686,o),
(297,659,cs),
(23,47,ls),
(13,24,o),
(29,-10,o),
(60,-10,cs)
);
},
{
closed = 1;
nodes = (
(357,608,ls),
(359,612,o),
(362,614,o),
(366,614,cs),
(378,614,l),
(378,279,l),
(213,279,l)
);
}
);
width = 815.5;
}
);
metricLeft = "=A";
metricRight = "=E";
unicode = 198;
},
{
glyphname = B;
kernLeft = H;
kernRight = B;
lastChange = "2024-06-17 18:15:40 +0000";
layers = (
{
anchors = (
{
name = bottom;
pos = (332,0);
},
{
name = center;
pos = (332,350);
},
{
name = top;
pos = (332,700);
}
);
layerId = "6242D68C-0A25-4F05-8F2A-2075F7C4A210";
shapes = (
{
closed = 1;
nodes = (
(390,0,ls),
(533,0,o),
(616,93,o),
(616,198,cs),
(616,290,o),
(552,352,o),
(476,389,c),
(487,331,l),
(534,368,o),
(576,421,o),
(576,498,cs),
(576,612,o),
(482,700,o),
(349,700,cs),
(165,700,ls),
(116,700,o),
(80,664,o),
(80,615,cs),
(80,84,ls),
(80,35,o),
(116,0,o),
(165,0,cs)
);
},
{
closed = 1;
nodes = (
(236,286,l),
(384,286,ls),
(427,286,o),
(458,256,o),
(458,216,cs),
(458,170,o),
(427,140,o),
(385,140,cs),
(236,140,l)
);
},
{
closed = 1;
nodes = (
(236,560,l),
(338,560,ls),
(382,560,o),
(416,531,o),
(416,491,cs),
(416,442,o),
(384,420,o),
(342,420,cs),
(236,419,l)
);
}
);
width = 658;
},
{
anchors = (
{
name = bottom;
pos = (291,0);
},
{
name = center;
pos = (291,350);
},
{
name = top;
pos = (291,680);
}
);
layerId = "3D52442A-254C-4C79-B742-A98FD72DF947";
shapes = (
{
closed = 1;
nodes = (
(341,0,ls),
(455,0,o),
(532,77,o),
(532,193,cs),
(532,282,o),
(484,350,o),
(400,379,c),
(400,368,l),
(462,396,o),
(499,448,o),
(499,526,cs),
(499,627,o),
(424,700,o),
(321,700,cs),
(113,700,ls),
(100,700,o),
(90,690,o),
(90,677,cs),
(90,23,ls),
(90,10,o),
(100,0,o),
(113,0,cs)
);
},
{
closed = 1;
nodes = (
(136,351,l),
(307,351,ls),
(427,351,o),
(485,286,o),
(485,193,cs),
(485,103,o),
(429,45,o),
(341,45,cs),
(136,45,l)
);
},
{
closed = 1;
nodes = (
(136,655,l),
(321,655,ls),
(403,655,o),
(452,600,o),
(452,526,cs),
(452,448,o),
(408,395,o),
(325,395,cs),
(136,395,l)
);
}
);
width = 582;
},
{
anchors = (
{
name = bottom;
pos = (299,0);
},
{
name = center;
pos = (299,376);
},
{
name = top;
pos = (299,690);
}
);
layerId = "DB110BCC-92E3-410E-8C20-9F3FFF600FD0";
shapes = (
{
closed = 1;
nodes = (
(357,0,ls),
(476,0,o),
(556,90,o),
(556,206,cs),
(556,288,o),
(505,363,o),
(424,389,c),
(427,366,l),
(483,395,o),
(524,451,o),
(524,518,cs),
(524,623,o),
(445,700,o),
(339,700,cs),
(122,700,ls),
(99,700,o),
(80,682,o),
(80,658,cs),
(80,42,ls),
(80,18,o),
(99,0,o),
(122,0,cs)
);
},
{
closed = 1;
nodes = (
(163,339,l),
(339,339,ls),
(422,339,o),
(473,285,o),
(473,207,cs),
(473,129,o),
(424,78,o),
(345,78,cs),
(163,78,l)
);
},
{
closed = 1;
nodes = (
(163,625,l),
(334,624,ls),
(399,624,o),
(441,581,o),
(441,519,cs),
(441,455,o),
(399,412,o),
(330,412,cs),
(163,412,l)
);
}
);
width = 598.5;
}
);
metricLeft = H;
unicode = 66;
},
{
glyphname = C;
kernLeft = O;
kernRight = C;
lastChange = "2024-07-07 19:42:20 +0000";
layers = (
{
anchors = (
{
name = bottom;
pos = (325,0);
},
{
name = top;
pos = (355,700);
}
);
background = {
shapes = (
{
attr = {
lineCapEnd = "2";
lineCapStart = "2";
strokeWidth = 2;
};
closed = 0;
nodes = (
(562,243,l),
(562,117,o),
(459,62,o),
(373,62,cs),
(220,62,o),
(145,191,o),
(145,347,cs),
(145,503,o),
(206,634,o),
(370,634,cs),
(479,634,o),
(543,565,o),
(543,491,c)
);
},
{
closed = 1;
nodes = (
(456,-15,o),
(526,16,o),
(578,69,cs),
(609,101,o),
(628,136,o),
(628,178,cs),
(628,219,o),
(595,252,o),
(554,252,cs),
(521,252,o),
(492,230,o),
(483,200,cs),
(469,153,o),
(434,125,o),
(374,125,cs),
(273,125,o),
(213,207,o),
(213,349,cs),
(213,486,o),
(273,577,o),
(373,575,cs),
(427,574,o),
(451,547,o),
(462,523,cs),
(474,498,o),
(499,481,o),
(529,481,cs),
(569,481,o),
(602,513,o),
(602,563,cs),
(602,600,o),
(583,632,o),
(549,660,cs),
(504,697,o),
(448,715,o),
(373,715,cs),
(178,715,o),
(56,562,o),
(56,352,cs),
(56,162,o),
(154,-15,o),
(368,-15,cs)
);
}
);
};
layerId = "6242D68C-0A25-4F05-8F2A-2075F7C4A210";
shapes = (
{
closed = 1;
nodes = (
(486,-15,o),
(602,71,o),
(602,170,cs),
(602,223,o),
(569,252,o),
(529,252,cs),
(495,252,o),
(466,230,o),
(457,200,cs),
(441,149,o),
(412,125,o),
(363,125,cs),
(273,125,o),
(213,207,o),
(213,347,cs),
(213,486,o),
(272,576,o),
(368,576,cs),
(420,576,o),
(437,550,o),
(450,532,cs),
(464,513,o),
(483,490,o),
(521,490,cs),
(565,490,o),
(589,522,o),
(589,562,cs),
(589,655,o),
(462,715,o),
(354,715,cs),
(182,715,o),
(56,563,o),
(56,350,cs),
(56,161,o),
(156,-15,o),
(350,-15,cs)
);
}
);
width = 640;
},
{
anchors = (
{
name = bottom;
pos = (315,-2);
},
{
name = top;
pos = (333,680);
}
);
background = {
shapes = (
{
closed = 0;
nodes = (
(341,715,l),
(165,715,o),
(60,579,o),
(60,354,cs),
(60,134,o),
(164,-15,o),
(337,-15,cs),
(510,-15,o),
(556,131,o),
(556,168,cs),
(556,184,o),
(546,194,o),
(534,194,cs),
(523,194,o),
(513,186,o),
(511,175,cs),
(499,94,o),
(442,29,o),
(339,29,cs),
(190,29,o),
(107,162,o),
(107,354,cs),
(107,553,o),
(193,671,o),
(338,671,cs),
(425,671,o),
(487,628,o),
(510,544,cs),
(513,531,o),
(523,525,o),
(533,525,cs),
(549,525,o),
(560,539,o),
(556,554,cs),
(531,659,o),
(447,714,o),
(338,714,cs)
);
}
);
};
layerId = "3D52442A-254C-4C79-B742-A98FD72DF947";
shapes = (
{
closed = 1;
nodes = (
(510,-15,o),
(556,131,o),
(556,168,cs),
(556,184,o),
(546,194,o),
(534,194,cs),
(523,194,o),
(513,186,o),
(511,175,cs),
(499,94,o),
(442,29,o),
(339,29,cs),
(190,29,o),
(107,162,o),
(107,354,cs),
(107,553,o),
(193,671,o),
(338,671,cs),
(425,671,o),
(487,628,o),
(510,544,cs),
(513,531,o),
(523,525,o),
(533,525,cs),
(549,525,o),
(560,539,o),
(556,554,cs),
(531,659,o),
(447,714,o),
(337,715,cs),
(168,716,o),
(60,579,o),
(60,354,cs),
(60,134,o),
(164,-15,o),
(337,-15,cs)
);
}
);
width = 612;
},
{
anchors = (
{
name = bottom;
pos = (332,0);
},
{
name = top;
pos = (326,690);
}
);
layerId = "DB110BCC-92E3-410E-8C20-9F3FFF600FD0";
shapes = (
{
closed = 1;
nodes = (
(481,-15,o),
(552,89,o),
(557,165,cs),
(558,189,o),
(540,207,o),
(517,207,cs),
(496,207,o),
(483,193,o),
(477,167,cs),
(460,101,o),
(410,61,o),
(338,61,cs),
(214,61,o),
(137,180,o),
(137,351,cs),
(137,518,o),
(212,640,o),
(339,640,cs),
(378,640,o),
(410,627,o),
(434,607,cs),
(488,561,o),
(465,510,o),
(512,510,cs),
(538,510,o),
(554,529,o),
(551,554,cs),
(543,631,o),
(456,715,o),
(335,715,cs),
(165,715,o),
(53,562,o),
(53,351,cs),
(53,140,o),
(161,-15,o),
(339,-15,cs)
);
}
);
width = 604;
}
);
metricLeft = O;
unicode = 67;
},
{
glyphname = D;
kernLeft = H;
kernRight = O;
lastChange = "2024-07-07 14:51:43 +0000";
layers = (
{
anchors = (
{
name = bottom;
pos = (344,0);
},
{
name = center;
pos = (156,350);
},
{
name = top;
pos = (314,700);
}
);
layerId = "6242D68C-0A25-4F05-8F2A-2075F7C4A210";
shapes = (
{
closed = 1;
nodes = (
(351,0,ls),
(533,0,o),
(650,149,o),
(650,352,cs),
(650,560,o),
(533,700,o),
(370,700,cs),
(158,700,ls),
(113,700,o),
(80,667,o),
(80,622,cs),
(80,78,ls),
(80,33,o),
(113,0,o),
(158,0,cs)
);
},
{
closed = 1;
nodes = (
(236,560,l),
(362,560,ls),
(441,560,o),
(493,484,o),
(493,352,cs),
(493,220,o),
(441,140,o),
(351,140,cs),
(236,140,l)
);
}
);
width = 688;
},
{
anchors = (
{
name = bottom;
pos = (303,0);
},
{
name = center;
pos = (117,362);
},
{
name = top;
pos = (263,680);
}
);
layerId = "3D52442A-254C-4C79-B742-A98FD72DF947";
shapes = (
{
closed = 1;
nodes = (
(280,0,ls),
(451,0,o),
(557,129,o),
(557,341,cs),
(557,553,o),
(450,700,o),
(280,700,cs),
(113,700,ls),
(100,700,o),
(90,690,o),
(90,677,cs),
(90,23,ls),
(90,10,o),
(100,0,o),
(113,0,cs)
);
},
{
closed = 1;
nodes = (
(136,655,l),
(280,655,ls),
(423,655,o),
(510,526,o),
(510,342,cs),
(510,175,o),
(440,46,o),
(280,46,cs),
(136,46,l)
);
}
);
width = 606;
},
{
anchors = (
{
name = bottom;
pos = (312,0);
},
{
name = center;
pos = (120,350);
},
{
name = top;
pos = (272,690);
}
);
layerId = "DB110BCC-92E3-410E-8C20-9F3FFF600FD0";
shapes = (
{
closed = 1;
nodes = (
(286,0,ls),
(471,0,o),
(578,128,o),
(578,345,cs),
(578,547,o),
(481,700,o),
(301,700,cs),
(121,700,ls),
(98,700,o),
(80,682,o),
(80,659,cs),
(80,41,ls),
(80,18,o),
(98,0,o),
(121,0,cs)
);
},
{
closed = 1;
nodes = (
(162,623,l),
(300,623,ls),
(427,623,o),
(494,508,o),
(494,344,cs),
(494,177,o),
(428,78,o),
(284,78,cs),
(162,78,l)
);
}
);
width = 624.25;
}
);
metricLeft = H;
unicode = 68;
},
{
glyphname = E;
kernLeft = H;
kernRight = E;
lastChange = "2024-06-17 18:15:40 +0000";
layers = (
{
anchors = (
{
name = bottom;
pos = (300,0);
},
{
name = ogonek;
pos = (453,0);
},
{
name = top;
pos = (309,700);
},
{
name = topleft;
pos = (20,700);
}
);
layerId = "6242D68C-0A25-4F05-8F2A-2075F7C4A210";
shapes = (
{
closed = 1;
nodes = (
(236,0,l),
(236,700,l),
(158,700,ls),
(113,700,o),
(80,667,o),
(80,622,cs),
(80,77,ls),
(80,31,o),
(113,0,o),
(158,0,cs)
);
},
{
closed = 1;
nodes = (
(474,560,ls),
(515,560,o),
(544,589,o),
(544,630,cs),
(544,671,o),
(515,700,o),
(474,700,cs),
(183,700,l),
(183,560,l)
);
},
{
closed = 1;
nodes = (
(435,285,ls),
(476,285,o),
(505,314,o),
(505,355,cs),
(505,396,o),
(476,425,o),
(435,425,cs),
(188,425,l),
(188,285,l)
);
},
{
closed = 1;
nodes = (
(487,0,ls),
(528,0,o),
(557,30,o),
(557,72,cs),
(557,114,o),
(528,144,o),
(487,144,cs),
(195,144,l),
(195,0,l)
);
}
);
width = 592;
},
{
anchors = (
{
name = bottom;
pos = (274,0);
},
{
name = ogonek;
pos = (432,0);
},
{
name = top;
pos = (283,680);
},
{
name = topleft;
pos = (20,700);
}
);
background = {
shapes = (
{
closed = 1;
nodes = (
(430,344,ls),
(443,344,o),
(453,354,o),
(453,367,cs),
(453,380,o),
(443,390,o),
(430,390,cs),
(115,390,l),
(115,344,l)
);
}
);
};
layerId = "3D52442A-254C-4C79-B742-A98FD72DF947";
shapes = (
{
closed = 1;
nodes = (
(136,0,l),
(136,700,l),
(113,700,ls),
(100,700,o),
(90,690,o),
(90,677,cs),
(90,23,ls),
(90,10,o),
(100,0,o),
(113,0,cs)
);
},
{
closed = 1;
nodes = (
(460,655,ls),
(473,655,o),
(483,664,o),
(483,677,cs),
(483,690,o),
(473,700,o),
(460,700,cs),
(116,700,l),
(116,655,l)
);
},
{
closed = 1;
nodes = (
(429,346,ls),
(442,346,o),
(453,353,o),
(453,367,cs),
(453,381,o),
(442,390,o),
(429,390,cs),
(115,389,l),
(115,345,l)
);
},
{
closed = 1;
nodes = (
(458,0,ls),
(471,0,o),
(481,9,o),
(481,22,cs),
(481,35,o),
(471,45,o),
(458,45,cs),
(121,45,l),
(121,0,l)
);
}
);
width = 548;
},
{
anchors = (
{
name = bottom;
pos = (274,0);
},
{
name = ogonek;
pos = (428,0);
},
{
name = top;
pos = (281,690);
},
{
name = topleft;
pos = (20,700);
}
);
layerId = "DB110BCC-92E3-410E-8C20-9F3FFF600FD0";
shapes = (
{
closed = 1;
nodes = (
(162,0,l),
(162,700,l),
(121,700,ls),
(97,700,o),
(80,683,o),
(80,659,cs),
(80,41,ls),
(80,18,o),
(97,0,o),
(121,0,cs)
);
},
{
closed = 1;
nodes = (
(453,624,ls),
(475,624,o),
(491,640,o),
(491,662,cs),
(491,684,o),
(475,700,o),
(453,700,cs),
(138,700,l),
(138,624,l)
);
},
{
closed = 1;
nodes = (
(418,325,ls),
(440,325,o),
(456,341,o),
(456,363,cs),
(456,386,o),
(440,402,o),
(418,402,cs),
(126,402,l),
(126,325,l)
);
},
{
closed = 1;
nodes = (
(461,0,ls),
(483,0,o),
(499,16,o),
(499,39,cs),
(499,61,o),
(483,77,o),
(461,77,cs),
(145,77,l),
(145,0,l)
);
}
);
width = 547;
}
);
metricLeft = H;
unicode = 69;
},
{
glyphname = Eogonek;
kernLeft = H;
kernRight = E;
lastChange = "2024-06-17 18:15:40 +0000";
layers = (
{
anchors = (
{
name = top;
pos = (384,700);
}
);
layerId = "6242D68C-0A25-4F05-8F2A-2075F7C4A210";
shapes = (
{
ref = E;
},
{
pos = (247,0);
ref = ogonekcomb.case;
}
);
width = 592;
},
{
anchors = (
{
name = top;
pos = (664,700);
}
);
background = {
shapes = (
{
closed = 1;
nodes = (
(820,-215,o),
(847,-200,o),
(866,-175,cs),
(870,-169,o),
(874,-164,o),
(874,-155,cs),
(874,-143,o),
(866,-136,o),
(856,-136,cs),
(846,-136,o),
(841,-142,o),
(836,-147,cs),
(817,-166,o),
(804,-174,o),
(785,-174,cs),
(754,-174,o),
(737,-155,o),
(737,-130,cs),
(737,-91,o),
(777,-62,o),
(814,-36,cs),
(842,-16,o),
(869,3,o),
(871,23,c),
(823,31,l),
(797,-17,o),
(693,-39,o),
(693,-131,cs),
(693,-184,o),
(733,-215,o),
(783,-215,cs)
);
}
);
};
layerId = "3D52442A-254C-4C79-B742-A98FD72DF947";
shapes = (
{
ref = E;
},
{
pos = (290,0);
ref = ogonekcomb.case;
}
);
width = 548;
},
{
anchors = (
{
name = top;
pos = (418,700);
}
);
layerId = "DB110BCC-92E3-410E-8C20-9F3FFF600FD0";
shapes = (
{
ref = E;
},
{
pos = (261,0);
ref = ogonekcomb.case;
}
);
width = 547;
}
);
metricLeft = "=E";
metricRight = "=E";
unicode = 280;
},
{
glyphname = Schwa;
kernLeft = O;
kernRight = O;
lastChange = "2024-06-17 18:15:40 +0000";
layers = (
{
anchors = (
{
name = bottom;
pos = (372,0);
},
{
name = top;
pos = (372,700);
}
);
layerId = "6242D68C-0A25-4F05-8F2A-2075F7C4A210";
shapes = (
{
closed = 1;
nodes = (
(580.186,-16,o),
(687,144.838,o),
(687,356,cs),
(687,557,o),
(550,709,o),
(370,709,cs),
(255.344,709,o),
(169,658,o),
(135.476,620.189,cs),
(117,600,o),
(109,578,o),
(109,557,cs),
(109,519,o),
(138,488,o),
(184,488,cs),
(202.505,488,o),
(219.445,494.702,o),
(232.524,505.811,cs),
(262.317,531.091,o),
(304,569,o),
(370,569,cs),
(465,569,o),
(537,477,o),
(537,356,cs),
(537,203.162,o),
(492,124,o),
(381,124,cs),
(238,124,o),
(215,241,o),
(215,287,c),
(665,287,l),
(665,417,l),
(152,417,ls),
(99.6,417,o),
(56,376.2,o),
(56,324,cs),
(56,190.353,o),
(126.936,-16,o),
(381,-16,cs)
);
}
);
width = 743;
},
{
anchors = (
{
name = bottom;
pos = (350,0);
},
{
name = top;
pos = (350,700);
}
);
layerId = "3D52442A-254C-4C79-B742-A98FD72DF947";
shapes = (
{
closed = 1;
nodes = (
(544,-13,o),
(640,145,o),
(640,360,cs),
(640,559,o),
(514,710,o),
(348,710,cs),
(217,710,o),
(132,631,o),
(97,549,cs),
(96,546,o),
(94,540,o),
(94,537,cs),
(94,526,o),
(102,514,o),
(116,514,cs),
(125,514,o),
(133,519,o),
(137,527,cs),
(167,599,o),
(237,665,o),
(348,665,cs),
(488,665,o),
(595,533,o),
(595,360,cs),
(595,160,o),
(516,32,o),
(360,32,cs),
(159,32,o),
(105,193,o),
(105,320,c),
(614,320,l),
(614,365,l),
(95,365,ls),
(70,365,o),
(60,345,o),
(60,321,cs),
(60,183,o),
(125,-13,o),
(360,-13,cs)
);
}
);
width = 700;
},
{
anchors = (
{
name = bottom;
pos = (346,0);
},
{
name = top;
pos = (346,700);
}
);
background = {
shapes = (
{
closed = 0;
nodes = (
(345,631,ls),
(545,631,o),
(559,396,o),
(559,359,cs)
);
}
);
};
layerId = "DB110BCC-92E3-410E-8C20-9F3FFF600FD0";
shapes = (
{
closed = 1;
nodes = (
(543,-14,o),
(639,146,o),
(639,359,cs),
(639,559,o),
(512,710,o),
(345,710,cs),
(215,710,o),
(128,631,o),
(93,552,cs),
(90,546,o),
(88,539,o),
(88,533,cs),
(88,513,o),
(104,494,o),
(128,494,cs),
(143,494,o),
(156,502,o),
(162,515,cs),
(190,576,o),
(248,631,o),
(345,631,cs),
(467,631,o),
(559,514,o),
(559,359,cs),
(559,174,o),
(493,64,o),
(356,64,cs),
(179,64,o),
(134,216,o),
(134,305,c),
(603,305,l),
(603,382,l),
(113,383,ls),
(78,383,o),
(53,356,o),
(53,323,cs),
(53,187,o),
(119,-14,o),
(356,-14,cs)
);
}
);
width = 692;
}
);
metricLeft = "=O";
metricRight = "=O";
unicode = 399;
},
{
glyphname = F;
kernLeft = H;
kernRight = F;
lastChange = "2024-06-17 18:15:40 +0000";
layers = (
{
anchors = (
{
name = bottom;
pos = (279,0);
},
{
name = top;
pos = (279,700);
}
);
layerId = "6242D68C-0A25-4F05-8F2A-2075F7C4A210";
shapes = (
{
closed = 1;
nodes = (
(203,-10,o),
(236,23,o),
(236,68,cs),
(236,700,l),
(158,700,ls,{
name = "💚";
}),
(115,700,o),
(80,665,o),
(80,622,cs),
(80,68,ls),
(80,23,o),
(113,-10,o),
(158,-10,cs)
);
},
{
closed = 1;
nodes = (
(453,560,ls),
(494,560,o),
(523,589,o),
(523,630,cs),
(523,671,o),
(494,700,o),
(453,700,cs),
(183,700,l),
(183,560,l)
);
},
{
closed = 1;
nodes = (
(435,276,ls),
(476,276,o),
(505,305,o),
(505,346,cs),
(505,387,o),
(476,416,o),
(435,416,cs),
(188,416,l),
(188,276,l)
);
}
);
width = 558;
},
{
anchors = (
{
name = bottom;
pos = (244,0);
},
{
name = top;
pos = (244,680);
}
);
background = {
shapes = (
{
closed = 1;
nodes = (
(410,344,ls),
(423,344,o),
(433,354,o),
(433,367,cs),
(433,380,o),
(423,390,o),
(410,390,cs),
(115,390,l),
(115,344,l)
);
}
);
};
layerId = "3D52442A-254C-4C79-B742-A98FD72DF947";
shapes = (
{
closed = 1;
nodes = (
(126,-10,o),
(136,0,o),
(136,13,cs),
(136,700,l),
(113,700,ls,{
name = "💚";
}),
(100,700,o),
(90,690,o),
(90,677,cs),
(90,13,ls),
(90,0,o),
(100,-10,o),
(113,-10,cs)
);
},
{
closed = 1;
nodes = (
(430,654,l),
(443,654,o),
(453,664,o),
(453,677,c),
(453,690,o),
(443,700,o),
(430,700,c),
(123,700,l),
(123,654,l)
);
},
{
closed = 1;
nodes = (
(409,339,ls),
(422,339,o),
(433,346,o),
(433,360,cs),
(433,374,o),
(422,383,o),
(409,383,cs),
(95,383,l),
(95,339,l)
);
}
);
width = 488;
},
{
anchors = (
{
name = bottom;
pos = (252,0);
},
{
name = top;
pos = (252,690);
}
);
layerId = "DB110BCC-92E3-410E-8C20-9F3FFF600FD0";
shapes = (
{
closed = 1;
nodes = (
(145,-10,o),
(162,8,o),
(162,31,cs),
(162,700,l),
(121,700,ls,{
name = "💚";
}),
(98,700,o),
(80,683,o),
(80,659,cs),
(80,31,ls),
(80,8,o),
(97,-10,o),
(121,-10,cs)
);
},
{
closed = 1;
nodes = (
(431,624,ls),
(453,624,o),
(469,640,o),
(469,662,cs),
(469,684,o),
(453,700,o),
(431,700,cs),
(136,700,l),
(136,624,l)
);
},
{
closed = 1;
nodes = (
(410,317,ls),
(433,317,o),
(449,332,o),
(449,355,cs),
(449,377,o),
(433,394,o),
(410,394,cs),
(122,394,l),
(122,317,l)
);
}
);
width = 504;
}
);
metricLeft = H;
unicode = 70;
},
{
glyphname = G;
kernLeft = O;
kernRight = G;
lastChange = "2024-07-07 19:48:30 +0000";
layers = (
{
anchors = (
{
name = bottom;
pos = (351,-15);
},
{
name = top;
pos = (366,700);
}
);
background = {
shapes = (
{
closed = 1;
nodes = (
(500,-15,o),
(581,32,o),
(632,101,cs),
(643,115,o),
(646,129,o),
(646,151,cs),
(646,324,ls),
(646,369,o),
(622,394,o),
(577,395,cs),
(480,397,ls),
(436,398,o),
(392,368,o),
(392,325,cs),
(392,286,o),
(429,253,o),
(475,253,cs),
(487,253,l),
(487,163,l),
(463,141,o),
(430,126,o),
(388,126,cs),
(286,126,o),
(213,215,o),
(213,355,cs),
(213,506,o),
(284,576,o),
(383,576,cs),
(440,576,o),
(457,553,o),
(473,531,cs),
(487,510,o),
(509,490,o),
(543,490,cs),
(584,490,o),
(611,519,o),
(611,560,cs),
(611,602,o),
(583,642,o),
(538,671,cs),
(495,698,o),
(438,715,o),
(375,715,cs),
(196,715,o),
(56,579,o),
(56,360,cs),
(56,130,o),
(193,-15,o),
(387,-15,cs)
);
}
);
};
layerId = "6242D68C-0A25-4F05-8F2A-2075F7C4A210";
shapes = (
{
closed = 1;
nodes = (
(500,-15,o),
(581,32,o),
(632,101,cs),
(643,115,o),
(646,129,o),
(646,151,cs),
(646,324,ls),
(646,369,o),
(622,394,o),
(577,395,cs),
(457,397,ls),
(413,398,o),
(369,368,o),
(369,325,cs),
(369,282,o),
(413,253,o),
(457,253,c),
(487,253,l),
(487,163,l),
(463,141,o),
(430,126,o),
(388,126,cs),
(286,126,o),
(213,215,o),
(213,355,cs),
(213,506,o),
(284,576,o),
(383,576,cs),
(440,576,o),
(457,553,o),
(473,531,cs),
(487,510,o),
(509,490,o),
(543,490,cs),
(584,490,o),
(612,519,o),
(611,560,cs),
(608,659,o),
(483,715,o),
(368,715,cs),
(196,715,o),
(56,579,o),
(56,360,cs),
(56,130,o),
(193,-15,o),
(387,-15,cs)
);
}
);
width = 701;
},
{
anchors = (
{
name = bottom;
pos = (326,-3);
},
{
name = top;
pos = (336,680);
}
);
background = {
anchors = (
{
name = bottom;
pos = (329,0);
},
{
name = top;
pos = (330,700);
}
);
shapes = (
{
closed = 0;
nodes = (
(338,671,ls),
(425,671,o),
(487,628,o),
(510,544,cs),
(513,531,o),
(523,525,o),
(533,525,cs),
(549,525,o),
(560,539,o),
(556,554,cs),
(531,659,o),
(447,714,o),
(337,715,cs)
);
}
);
};
layerId = "3D52442A-254C-4C79-B742-A98FD72DF947";
shapes = (
{
closed = 1;
nodes = (
(425,-15,o),
(514,25,o),
(559,92,cs),
(561,96,o),
(562,100,o),
(562,107,cs),
(562,330,ls),
(562,343,o),
(552,352,o),
(539,352,cs),
(395,352,ls),
(382,352,o),
(372,343,o),
(372,330,cs),
(372,317,o),
(381,308,o),
(394,308,cs),
(516,308,l),
(516,111,l),
(480,59,o),
(410,29,o),
(339,29,cs),
(200,29,o),
(107,162,o),
(107,344,cs),
(107,533,o),
(206,671,o),
(352,671,cs),
(416,671,o),
(468,644,o),
(498,560,cs),
(503,547,o),
(511,541,o),
(521,541,cs),
(537,541,o),
(548,555,o),
(544,570,cs),
(519,675,o),
(436,714,o),
(347,714,cs),
(174,714,o),
(60,563,o),
(60,341,cs),
(60,134,o),
(174,-15,o),
(339,-15,cs)
);
}
);
width = 617;
},
{
anchors = (
{
name = bottom;
pos = (320,-11);
},
{
name = top;
pos = (327,690);
}
);
layerId = "DB110BCC-92E3-410E-8C20-9F3FFF600FD0";
shapes = (
{
closed = 1;
nodes = (
(444,-15,o),
(514,24,o),
(561,91,cs),
(566,97,o),
(567,103,o),
(567,116,cs),
(567,326,ls),
(567,354,o),
(556,365,o),
(528,365,cs),
(380,365,ls),
(356,365,o),
(338,349,o),
(338,327,cs),
(338,305,o),
(355,288,o),
(378,288,cs),
(486,288,l),
(486,124,l),
(461,86,o),
(413,61,o),
(350,61,cs),
(214,61,o),
(137,175,o),
(137,344,cs),
(137,515,o),
(214,640,o),
(345,640,cs),
(408,640,o),
(451,611,o),
(469,554,cs),
(477,530,o),
(488,518,o),
(510,518,cs),
(539,518,o),
(552,541,o),
(547,569,cs),
(532,651,o),
(455,715,o),
(342,715,cs),
(161,715,o),
(53,546,o),
(53,341,cs),
(53,121,o),
(171,-15,o),
(349,-15,cs)
);
}
);
width = 627;
}
);
metricLeft = "=O";
unicode = 71;
},
{
glyphname = H;
kernLeft = H;
kernRight = H;
lastChange = "2024-06-17 18:15:40 +0000";
layers = (
{
anchors = (
{
name = bottom;
pos = (362,0);
},
{
name = center;
pos = (362,354);
},
{
name = top;
pos = (367,700);
},
{
name = topleft;
pos = (20,700);
}
);
background = {
shapes = (
{
attr = {
strokeWidth = 2;
};
closed = 0;
nodes = (
(566,700,l),
(566,0,l)
);
},
{
attr = {
strokeWidth = 2;
};
closed = 0;
nodes = (
(549,358,l),
(126,357,l)
);
},
{
attr = {
strokeWidth = 2;
};
closed = 0;
nodes = (
(127,700,l),
(127,0,l)
);
}
);
};
layerId = "6242D68C-0A25-4F05-8F2A-2075F7C4A210";
shapes = (
{
closed = 1;
nodes = (
(203,-10,o),
(236,23,o),
(236,68,cs),
(236,632,ls),
(236,677,o),
(203,710,o),
(158,710,cs),
(113,710,o),
(80,677,o),
(80,632,cs),
(80,68,ls),
(80,23,o),
(113,-10,o),
(158,-10,cs)
);
},
{
closed = 1;
nodes = (
(611,-10,o),
(644,23,o),
(644,68,cs),
(644,632,ls),
(644,677,o),
(611,710,o),
(566,710,cs),
(521,710,o),
(488,677,o),
(488,632,cs),
(488,68,ls),
(488,23,o),
(521,-10,o),
(566,-10,cs)
);
},
{
closed = 1;
nodes = (
(573,286,l),
(573,426,l),
(156,426,l),
(156,286,l)
);
}
);
width = 724;
},
{
anchors = (
{
name = bottom;
pos = (320,0);
},
{
name = center;
pos = (320,360);
},
{
name = top;
pos = (320,680);
},
{
name = topleft;
pos = (20,700);
}
);
background = {
shapes = (
{
attr = {
strokeWidth = 2;
};
closed = 0;
nodes = (
(114,665,l),
(114,35,l)
);
},
{
attr = {
strokeWidth = 2;
};
closed = 0;
nodes = (
(534,665,l),
(534,35,l)
);
},
{
attr = {
strokeWidth = 2;
};
closed = 0;
nodes = (
(114,366,l),
(534,366,l)
);
}
);
};
layerId = "3D52442A-254C-4C79-B742-A98FD72DF947";
shapes = (
{
closed = 1;
nodes = (
(126,-10,o),
(136,0,o),
(136,13,cs),
(136,687,ls),
(136,700,o),
(126,710,o),
(113,710,cs),
(100,710,o),
(90,700,o),
(90,687,cs),
(90,13,ls),
(90,0,o),
(100,-10,o),
(113,-10,cs)
);
},
{
closed = 1;
nodes = (
(540,-10,o),
(550,0,o),
(550,13,cs),
(550,687,ls),
(550,700,o),
(540,710,o),
(527,710,cs),
(514,710,o),
(504,700,o),
(504,687,cs),
(504,13,ls),
(504,0,o),
(514,-10,o),
(527,-10,cs)
);
},
{
closed = 1;
nodes = (
(517,339,l),
(517,383,l),
(127,383,l),
(127,339,l)
);
}
);
width = 640;
},
{
anchors = (
{
name = bottom;
pos = (328,0);
},
{
name = center;
pos = (328,358);
},
{
name = top;
pos = (328,690);
},
{
name = topleft;
pos = (20,700);
}
);
background = {
shapes = (
{
closed = 1;
nodes = (
(142,-10,o),
(161,8,o),
(161,33,cs),
(161,667,ls),
(161,692,o),
(142,710,o),
(117,710,cs),
(92,710,o),
(74,692,o),
(74,667,cs),
(74,33,ls),
(74,8,o),
(92,-10,o),
(117,-10,cs)
);
},
{
closed = 1;
nodes = (
(563,-10,o),
(581,8,o),
(581,33,cs),
(581,667,ls),
(581,692,o),
(563,710,o),
(538,710,cs),
(513,710,o),
(495,692,o),
(495,667,cs),
(495,33,ls),
(495,8,o),
(513,-10,o),
(538,-10,cs)
);
},
{
closed = 1;
nodes = (
(540,320,l),
(540,402,l),
(127,402,l),
(127,320,l)
);
}
);
};
layerId = "DB110BCC-92E3-410E-8C20-9F3FFF600FD0";
shapes = (
{
closed = 1;
nodes = (
(144,-10,o),
(162,9,o),
(162,32,cs),
(162,659,ls),
(162,682,o),
(144,700,o),
(121,700,cs),
(97,700,o),
(80,682,o),
(80,659,cs),
(80,32,ls),
(80,9,o),
(97,-10,o),
(121,-10,cs)
);
},
{
closed = 1;
nodes = (
(557,-10,o),
(575,9,o),
(575,32,cs),
(575,659,ls),
(575,682,o),
(557,700,o),
(534,700,cs),
(510,700,o),
(493,682,o),
(493,659,cs),
(493,32,ls),
(493,9,o),
(510,-10,o),
(534,-10,cs)
);
},
{
closed = 1;
nodes = (
(562,319,l),
(562,396,l),
(120,396,l),
(120,319,l)
);
}
);
width = 655;
}
);
unicode = 72;
},
{
glyphname = I;
kernLeft = H;
kernRight = H;
lastChange = "2024-06-17 18:15:40 +0000";
layers = (
{
anchors = (
{
name = bottom;
pos = (158,0);
},
{
name = ogonek;
pos = (135,0);
},
{
name = top;
pos = (158,700);
},
{
name = topleft;
pos = (20,700);
}
);
layerId = "6242D68C-0A25-4F05-8F2A-2075F7C4A210";
shapes = (
{
closed = 1;
nodes = (
(203,-10,o),
(236,23,o),
(236,68,cs),
(236,632,ls),
(236,677,o),
(203,710,o),
(158,710,cs),
(113,710,o),
(80,677,o),
(80,632,cs),
(80,68,ls),
(80,23,o),
(113,-10,o),
(158,-10,cs)
);
}
);
width = 316;
},
{
anchors = (
{
name = bottom;
pos = (113,0);
},
{
name = ogonek;
pos = (97,0);
},
{
name = top;
pos = (113,680);
},
{
name = topleft;
pos = (20,700);
}
);
layerId = "3D52442A-254C-4C79-B742-A98FD72DF947";
shapes = (
{
closed = 1;
nodes = (
(126,-10,o),
(136,0,o),
(136,13,cs),
(136,687,ls),
(136,700,o),
(126,710,o),
(113,710,cs),
(100,710,o),
(90,700,o),
(90,687,cs),
(90,13,ls),
(90,0,o),
(100,-10,o),
(113,-10,cs)
);
}
);
width = 226;
},
{
anchors = (
{
name = bottom;
pos = (120,0);
},
{
name = ogonek;
pos = (101,0);
},
{
name = top;
pos = (121,690);
},
{
name = topleft;
pos = (20,700);
}
);
layerId = "DB110BCC-92E3-410E-8C20-9F3FFF600FD0";
shapes = (
{
closed = 1;
nodes = (
(145,-10,o),
(162,8,o),
(162,31,cs),
(162,669,ls),
(162,693,o),
(145,710,o),
(121,710,cs),
(97,710,o),
(80,693,o),
(80,669,cs),
(80,31,ls),
(80,8,o),
(97,-10,o),
(121,-10,cs)
);
}
);
width = 242;
}
);
metricLeft = H;
metricRight = "=H";
unicode = 73;
},
{
glyphname = Iogonek;
kernLeft = H;
kernRight = H;
lastChange = "2024-06-17 18:15:40 +0000";
layers = (
{
layerId = "6242D68C-0A25-4F05-8F2A-2075F7C4A210";
shapes = (
{
ref = I;
},
{
pos = (-71,0);
ref = ogonekcomb.case;
}
);
width = 316;
},
{
background = {
shapes = (
{
closed = 1;
nodes = (
(117,-215,o),
(139,-200,o),
(158,-175,cs),
(162,-169,o),
(166,-164,o),
(166,-154,cs),
(166,-143,o),
(158,-136,o),
(148,-136,cs),
(139,-136,o),
(134,-142,o),
(129,-147,c),
(112,-167,o),
(101,-170,o),
(84,-170,cs),
(61,-170,o),
(45,-155,o),
(45,-132,cs),
(45,-80,o),
(117,-54,o),
(117,-6,cs),
(117,77,l),
(71,77,l),
(71,2,ls),
(71,-39,o),
(0,-61,o),
(0,-137,cs),
(0,-184,o),
(40,-215,o),
(83,-215,cs)
);
}
);
};
layerId = "3D52442A-254C-4C79-B742-A98FD72DF947";
shapes = (
{
ref = I;
},
{
pos = (-45,0);
ref = ogonekcomb.case;
}
);
width = 226;
},
{
layerId = "DB110BCC-92E3-410E-8C20-9F3FFF600FD0";
shapes = (
{
ref = I;
},
{
pos = (-66,0);
ref = ogonekcomb.case;
}
);
width = 242;
}
);
unicode = 302;
},
{
glyphname = J;
kernLeft = J;
kernRight = J;
lastChange = "2024-06-17 18:15:40 +0000";
layers = (
{
anchors = (
{
name = bottom;
pos = (270,0);
},
{
name = top;
pos = (383,700);
}
);
layerId = "6242D68C-0A25-4F05-8F2A-2075F7C4A210";
shapes = (
{
closed = 1;
nodes = (
(376,-15,o),
(459,74,o),
(459,227,cs),
(459,632,ls),
(459,675,o),
(424,710,o),
(381,710,cs),
(338,710,o),
(303,675,o),
(303,632,cs),
(303,219,ls),
(303,167,o),
(280,135,o),
(235,135,cs),
(200,135,o),
(170,154,o),
(170,200,cs),
(170,204,ls),
(170,247,o),
(141,282,o),
(98,282,cs),
(55,282,o),
(20,247,o),
(20,204,cs),
(20,196,ls),
(20,74,o),
(109,-15,o),
(242,-15,cs)
);
}
);
width = 539;
},
{
anchors = (
{
name = bottom;
pos = (237,0);
},
{
name = top;
pos = (362,680);
}
);
layerId = "3D52442A-254C-4C79-B742-A98FD72DF947";
shapes = (
{
closed = 1;
nodes = (
(320,-15,o),
(384,58,o),
(384,184,cs),
(384,687,ls),
(384,700,o),
(374,710,o),
(361,710,cs),
(348,710,o),
(338,700,o),
(338,687,cs),
(338,184,ls),
(338,85,o),
(293,28,o),
(209,28,cs),
(124,28,o),
(66,83,o),
(66,177,cs),
(66,194,ls),
(66,207,o),
(56,217,o),
(43,217,cs),
(30,217,o),
(20,207,o),
(20,194,cs),
(20,177,ls),
(20,61,o),
(94,-15,o),
(209,-15,cs)
);
}
);
width = 474;
},
{
anchors = (
{
name = bottom;
pos = (245,0);
},
{
name = top;
pos = (369,690);
}
);
layerId = "DB110BCC-92E3-410E-8C20-9F3FFF600FD0";
shapes = (
{
closed = 1;
nodes = (
(353,-15,o),
(409,78,o),
(409,194,cs),
(409,669,ls),
(409,693,o),
(392,710,o),
(368,710,cs),
(344,710,o),
(327,693,o),
(327,669,cs),
(327,195,ls),
(327,118,o),
(300,60,o),
(218,60,cs),
(135,60,o),
(102,118,o),
(102,182,cs),
(102,204,ls),
(102,227,o),
(84,245,o),
(61,245,cs),
(38,245,o),
(20,227,o),
(20,204,cs),
(20,182,ls),
(20,93,o),
(77,-15,o),
(220,-15,cs)
);
}
);
width = 489;
}
);
metricRight = H;
unicode = 74;
},
{
glyphname = K;
kernLeft = H;
kernRight = K;
lastChange = "2024-06-17 18:15:40 +0000";
layers = (
{
anchors = (
{
name = bottom;
pos = (324,0);
},
{
name = top;
pos = (324,700);
}
);
background = {
shapes = (
{
attr = {
strokeWidth = 2;
};
closed = 0;
nodes = (
(170,628,l),
(170,73,l)
);
},
{
attr = {
strokeWidth = 2;
};
closed = 0;
nodes = (
(511,615,l),
(300,401,l),
(170,268,l)
);
},
{
attr = {
strokeWidth = 2;
};
closed = 0;
nodes = (
(525,76,l),
(300,401,l)
);
}
);
};
layerId = "6242D68C-0A25-4F05-8F2A-2075F7C4A210";
shapes = (
{
closed = 1;
nodes = (
(203,-10,o),
(236,23,o),
(236,68,cs),
(236,250,l),
(342,350,l),
(251,360,l),
(481,24,ls),
(495,3,o),
(518,-10,o),
(545,-10,cs),
(588,-10,o),
(623,25,o),
(623,68,cs),
(623,84,o),
(617,100,o),
(609,112,cs),
(368,470,l),
(356,364,l),
(572,568,ls),
(586,581,o),
(594,602,o),
(594,623,cs),
(594,666,o),
(559,700,o),
(516,700,cs,{
name = "❌";
}),
(492,700,o),
(471,688,o),
(456,674,cs),
(236,466,l),
(236,632,ls),
(236,677,o),
(203,710,o),
(158,710,cs),
(113,710,o),
(80,677,o),
(80,632,cs),
(80,68,ls),
(80,23,o),
(113,-10,o),
(158,-10,cs)
);
}
);
width = 643;
},
{
anchors = (
{
name = bottom;
pos = (291,0);
},
{
name = top;
pos = (282,680);
}
);
layerId = "3D52442A-254C-4C79-B742-A98FD72DF947";
shapes = (
{
closed = 1;
nodes = (
(126,-10,o),
(136,0,o),
(136,13,cs),
(136,259,l),
(253,386,l),
(227,388,l),
(499,0,ls,{
name = "💚";
}),
(503,-6,o),
(511,-10,o),
(518,-10,cs),
(531,-10,o),
(541,0,o),
(541,13,cs),
(541,17,o),
(540,21,o),
(537,26,cs),
(256,420,l),
(254,388,l),
(504,661,ls),
(508,665,o),
(510,671,o),
(510,677,cs),
(510,690,o),
(500,700,o),
(487,700,cs),
(481,700,o),
(476,698,o),
(472,694,cs),
(136,326,l),
(136,687,ls),
(136,700,o),
(126,710,o),
(113,710,cs),
(100,710,o),
(90,700,o),
(90,687,cs),
(90,13,ls),
(90,0,o),
(100,-10,o),
(113,-10,cs)
);
}
);
width = 581;
},
{
anchors = (
{
name = bottom;
pos = (296,0);
},
{
name = top;
pos = (296,690);
}
);
layerId = "DB110BCC-92E3-410E-8C20-9F3FFF600FD0";
shapes = (
{
closed = 1;
nodes = (
(146,-10,o),
(163,8,o),
(163,31,cs),
(163,256,l),
(283,381,l),
(236,385,l),
(488,9,ls,{
name = "💚";
}),
(496,-2,o),
(508,-10,o),
(522,-10,cs),
(545,-10,o),
(563,9,o),
(563,32,cs),
(563,40,o),
(560,49,o),
(555,56,cs),
(289,440,l),
(285,383,l),
(520,630,ls),
(528,638,o),
(532,648,o),
(532,659,cs),
(532,682,o),
(514,700,o),
(491,700,cs),
(479,700,o),
(469,695,o),
(462,688,cs),
(163,374,l),
(163,669,ls),
(163,693,o),
(146,710,o),
(121,710,cs),
(98,710,o),
(80,693,o),
(80,669,cs),
(80,31,ls),
(80,8,o),
(98,-10,o),
(121,-10,cs)
);
}
);
width = 592.5;
}
);
metricLeft = H;
unicode = 75;
},
{
glyphname = L;
kernLeft = H;
kernRight = L;
lastChange = "2024-07-07 14:45:12 +0000";
layers = (
{
anchors = (
{
name = bottom;
pos = (279,0);
},
{
name = center;
pos = (116,350);
},
{
name = top;
pos = (214,700);
},
{
name = topright;
pos = (293,700);
}
);
background = {
shapes = (
{
closed = 1;
nodes = (
(226,0,l),
(226,632,ls),
(226,675,o),
(191,710,o),
(148,710,cs),
(105,710,o),
(70,675,o),
(70,632,cs),
(70,78,ls),
(70,35,o),
(105,0,o),
(148,0,cs,{
name = "💚";
})
);
},
{
closed = 1;
nodes = (
(467,0,ls),
(508,0,o),
(537,29,o),
(537,70,cs),
(537,111,o),
(508,140,o),
(467,140,cs),
(181,140,l),
(181,0,l)
);
}
);
};
layerId = "6242D68C-0A25-4F05-8F2A-2075F7C4A210";
shapes = (
{
closed = 1;
nodes = (
(457,0,ls),
(498,0,o),
(527,29,o),
(527,72,cs),
(527,115,o),
(498,144,o),
(457,144,cs),
(236,144,l),
(236,632,ls),
(236,675,o),
(197,710,o),
(154,710,cs),
(111,710,o),
(80,675,o),
(80,632,cs),
(80,78,ls),
(80,35,o),
(115,0,o),
(158,0,cs,{
name = "💚";
})
);
}
);
width = 557;
},
{
anchors = (
{
name = bottom;
pos = (245,0);
},
{
name = center;
pos = (113,350);
},
{
name = top;
pos = (136,680);
},
{
name = topright;
pos = (219,700);
}
);
background = {
anchors = (
{
name = bottom;
pos = (311,0);
},
{
name = center;
pos = (294,350);
},
{
name = top;
pos = (109,700);
},
{
name = topright;
pos = (591,700);
}
);
shapes = (
{
closed = 1;
nodes = (
(132,0,l),
(132,687,ls),
(132,700,o),
(122,710,o),
(109,710,cs),
(96,710,o),
(86,700,o),
(86,687,cs),
(86,23,ls),
(86,10,o),
(96,0,o),
(109,0,cs)
);
},
{
closed = 1;
nodes = (
(443,0,ls),
(456,0,o),
(466,10,o),
(466,23,cs),
(466,36,o),
(456,46,o),
(443,46,cs),
(117,46,l),
(117,0,l)
);
}
);
};
layerId = "3D52442A-254C-4C79-B742-A98FD72DF947";
shapes = (
{
closed = 1;
nodes = (
(427,0,ls),
(440,0,o),
(450,9,o),
(450,22,cs),
(450,35,o),
(440,45,o),
(427,45,cs),
(136,45,l),
(136,687,ls),
(136,700,o),
(126,710,o),
(113,710,cs),
(100,710,o),
(90,700,o),
(90,687,cs),
(90,23,ls),
(90,10,o),
(100,0,o),
(113,0,cs)
);
}
);
width = 490;
},
{
anchors = (
{
name = bottom;
pos = (250,0);
},
{
name = center;
pos = (117,350);
},
{
name = top;
pos = (121,690);
},
{
name = topright;
pos = (234,700);
}
);
layerId = "DB110BCC-92E3-410E-8C20-9F3FFF600FD0";
shapes = (
{
closed = 1;
nodes = (
(428,0,ls),
(450,0,o),
(466,17,o),
(466,39,cs),
(466,61,o),
(450,77,o),
(428,77,cs),
(162,77,l),
(162,669,ls),
(162,692,o),
(144,710,o),
(121,710,cs),
(98,710,o),
(80,692,o),
(80,669,cs),
(80,41,ls),
(80,18,o),
(98,0,o),
(121,0,cs)
);
}
);
width = 499.5;
}
);
metricLeft = H;
unicode = 76;
},
{
glyphname = M;
kernLeft = M;
kernRight = M;
lastChange = "2024-07-07 14:56:57 +0000";
layers = (
{
anchors = (
{
name = bottom;
pos = (439,0);
},
{
name = top;
pos = (439,700);
}
);
background = {
shapes = (
{
closed = 1;
nodes = (
(204,-10,o),
(237,23,o),
(236,68,cs),
(224,501,l),
(184,464,l),
(485,22,ls),
(498,3,o),
(523,-10,o),
(551,-10,cs),
(594,-10,o),
(629,25,o),
(629,68,cs),
(629,632,ls),
(629,677,o),
(596,710,o),
(551,710,cs),
(505,710,o),
(472,677,o),
(473,632,cs),
(485,179,l),
(511,226,l),
(229,658,ls),
(211,686,o),
(193,710,o),
(155,710,cs),
(117,710,o),
(80,682,o),
(80,623,cs),
(80,68,ls),
(80,23,o),
(113,-10,o),
(158,-10,cs)
);
}
);
};
layerId = "6242D68C-0A25-4F05-8F2A-2075F7C4A210";
shapes = (
{
closed = 1;
nodes = (
(204,-10,o),
(237,23,o),
(236,68,cs),
(228,353,l),
(349,58,ls),
(369,9,o),
(402,-10,o),
(439,-10,cs),
(476,-10,o),
(509,9,o),
(529,58,cs),
(650,353,l),
(642,68,ls),
(641,23,o),
(674,-10,o),
(720,-10,cs),
(765,-10,o),
(798,23,o),
(798,68,cs),
(794,623,ls),
(794,682,o),
(761,710,o),
(711,710,cs),
(665,710,o),
(637,687,o),
(625,658,cs),
(439,193,l),
(253,658,ls),
(241,687,o),
(213,710,o),
(167,710,cs),
(117,710,o),
(84,682,o),
(84,623,cs),
(80,68,ls),
(80,23,o),
(113,-10,o),
(158,-10,cs)
);
}
);
width = 878;
},
{
anchors = (
{
name = bottom;
pos = (408,0);
},
{
name = top;
pos = (404,680);
}
);
layerId = "3D52442A-254C-4C79-B742-A98FD72DF947";
shapes = (
{
closed = 1;
nodes = (
(126,-10,o),
(136,0,o),
(136,13,cs),
(136,583,l),
(386,5,ls),
(390,-3,o),
(398,-10,o),
(408,-10,cs),
(418,-10,o),
(427,-3,o),
(430,5,cs),
(672,584,l),
(672,13,ls),
(672,0,o),
(682,-10,o),
(695,-10,cs),
(708,-10,o),
(718,0,o),
(718,13,cs),
(718,687,ls),
(718,700,o),
(708,710,o),
(695,710,cs,{
name = "💚";
}),
(683,710,o),
(675,706,o),
(670,695,cs),
(409,64,l),
(136,695,ls),
(132,704,o),
(124,710,o),
(114,710,cs),
(100,710,o),
(90,700,o),
(90,687,cs),
(90,13,ls),
(90,0,o),
(100,-10,o),
(113,-10,cs)
);
}
);
width = 808;
},
{
anchors = (
{
name = bottom;
pos = (415,1);
},
{
name = top;
pos = (412,690);
}
);
layerId = "DB110BCC-92E3-410E-8C20-9F3FFF600FD0";
shapes = (
{
closed = 1;
nodes = (
(146,-10,o),
(163,8,o),
(163,31,cs),
(158,513,l),
(368,33,ls),
(382,1,o),
(396,-10,o),
(416,-10,cs),
(435,-10,o),
(449,1,o),
(463,33,cs),
(665,510,l),
(661,31,ls),
(661,8,o),
(678,-10,o),
(702,-10,cs),
(726,-10,o),
(743,8,o),
(743,31,cs),
(741,667,ls),
(741,690,o),
(723,710,o),
(698,710,cs,{
name = "💚";
}),
(677,710,o),
(662,700,o),
(656,684,cs),
(416,115,l),
(166,684,ls),
(159,700,o),
(145,710,o),
(125,710,cs),
(100,710,o),
(81,691,o),
(81,666,cs),
(80,31,ls),
(80,8,o),
(98,-10,o),
(121,-10,cs)
);
}
);
width = 823;
}
);
metricLeft = H;
metricRight = H;
unicode = 77;
},
{
glyphname = N;
kernLeft = H;
kernRight = H;
lastChange = "2024-06-17 18:15:40 +0000";
layers = (
{
anchors = (
{
name = bottom;
pos = (355,0);
},
{
name = top;
pos = (355,700);
}
);
layerId = "6242D68C-0A25-4F05-8F2A-2075F7C4A210";
shapes = (
{
closed = 1;
nodes = (
(204,-10,o),
(237,23,o),
(236,68,cs),
(224,501,l),
(184,464,l),
(485,22,ls),
(498,3,o),
(523,-10,o),
(551,-10,cs),
(594,-10,o),
(629,25,o),
(629,68,cs),
(629,632,ls),
(629,677,o),
(596,710,o),
(551,710,cs),
(505,710,o),
(472,677,o),
(473,632,cs),
(485,179,l),
(511,226,l),
(229,658,ls),
(211,686,o),
(193,710,o),
(155,710,cs),
(117,710,o),
(80,682,o),
(80,623,cs),
(80,68,ls),
(80,23,o),
(113,-10,o),
(158,-10,cs)
);
}
);
width = 709;
},
{
anchors = (
{
name = bottom;
pos = (323,0);
},
{
name = top;
pos = (323,680);
}
);
layerId = "3D52442A-254C-4C79-B742-A98FD72DF947";
shapes = (
{
closed = 1;
nodes = (
(126,-10,o),
(136,0,o),
(136,13,cs),
(134,640,l),
(124,630,l),
(512,0,ls),
(516,-6,o),
(523,-10,o),
(531,-10,cs),
(545,-10,o),
(555,0,o),
(555,13,cs),
(555,687,ls),
(555,700,o),
(545,710,o),
(532,710,cs),
(519,710,o),
(509,700,o),
(509,687,cs),
(512,63,l),
(520,69,l),
(133,700,ls),
(129,706,o),
(122,710,o),
(112,710,cs),
(98,710,o),
(90,700,o),
(90,687,cs),
(90,13,ls),
(90,0,o),
(100,-10,o),
(113,-10,cs)
);
}
);
width = 645;
},
{
anchors = (
{
name = bottom;
pos = (328,0);
},
{
name = top;
pos = (328,690);
}
);
layerId = "DB110BCC-92E3-410E-8C20-9F3FFF600FD0";
shapes = (
{
closed = 1;
nodes = (
(146,-10,o),
(163,8,o),
(163,31,cs),
(159,605,l),
(117,617,l),
(488,19,ls),
(499,2,o),
(511,-10,o),
(536,-10,cs),
(559,-10,o),
(577,8,o),
(577,31,cs),
(577,669,ls),
(577,693,o),
(560,710,o),
(536,710,cs),
(512,710,o),
(495,693,o),
(495,669,cs),
(500,81,l),
(515,122,l),
(170,679,ls),
(159,697,o),
(147,710,o),
(121,710,cs),
(98,710,o),
(80,693,o),
(80,668,cs),
(80,31,ls),
(80,8,o),
(98,-10,o),
(121,-10,cs)
);
}
);
width = 656.875;
}
);
metricLeft = H;
metricRight = H;
unicode = 78;
},
{
glyphname = Eng;
kernLeft = H;
kernRight = J;
lastChange = "2024-06-17 18:15:40 +0000";
layers = (
{
anchors = (
{
name = bottom;
pos = (355,0);
},
{
name = top;
pos = (355,700);
}
);
background = {
shapes = (
{
closed = 1;
nodes = (
(583,-215,o),
(640,-126,o),
(640,27,cs),
(640,202,l),
(395,172,l),
(409,144,o),
(467,64,o),
(490,29,cs),
(508,2,o),
(506,-76,o),
(447,-76,cs),
(424,-76,o),
(411,-64,o),
(407,-46,cs),
(398,-3,o),
(363,27,o),
(325,27,cs),
(286,27,o),
(251,-3,o),
(251,-46,cs),
(251,-126,o),
(320,-215,o),
(444,-215,cs)
);
}
);
};
layerId = "6242D68C-0A25-4F05-8F2A-2075F7C4A210";
shapes = (
{
closed = 1;
nodes = (
(204,-10,o),
(237,23,o),
(236,68,cs),
(227,401,l),
(488,16,l),
(488,-10,ls),
(488,-72,o),
(467,-79,o),
(445,-79,cs),
(419,-79,o),
(409,-63,o),
(398,-45,cs),
(386,-26,o),
(374,-6,o),
(339,-6,cs),
(299,-6,o),
(266,-34,o),
(266,-79,cs),
(266,-157,o),
(356,-215,o),
(445,-215,cs),
(546,-215,o),
(629,-141,o),
(629,-15,cs),
(629,632,ls),
(629,677,o),
(596,710,o),
(551,710,cs),
(505,710,o),
(472,677,o),
(473,632,cs),
(485,183,l),
(519,214,l),
(229,658,ls),
(211,686,o),
(193,710,o),
(155,710,cs),
(117,710,o),
(80,682,o),
(80,623,cs),
(80,68,ls),
(80,23,o),
(113,-10,o),
(158,-10,cs)
);
}
);
width = 709;
},
{
anchors = (
{
name = bottom;
pos = (323,0);
},
{
name = top;
pos = (323,700);
}
);
background = {
shapes = (
{
closed = 1;
nodes = (
(497,-215,o),
(555,-152,o),
(555,-43,cs),
(555,87,l),
(476,61,l),
(502,13,o),
(509,-18,o),
(509,-53,cs),
(509,-131,o),
(468,-170,o),
(410,-170,cs),
(341,-170,o),
(297,-117,o),
(297,-6,cs),
(297,7,o),
(287,17,o),
(274,17,cs),
(261,17,o),
(251,7,o),
(251,-6,cs),
(251,-139,o),
(311,-215,o),
(406,-215,cs)
);
}
);
};
layerId = "3D52442A-254C-4C79-B742-A98FD72DF947";
shapes = (
{
closed = 1;
nodes = (
(126,-10,o),
(136,0,o),
(136,13,cs),
(134,614,l),
(512,0,l),
(512,-48,ls),
(512,-133,o),
(471,-173,o),
(416,-173,cs),
(364,-173,o),
(336,-144,o),
(333,-104,cs),
(332,-91,o),
(323,-81,o),
(310,-81,cs),
(297,-81,o),
(286,-91,o),
(287,-104,cs),
(290,-169,o),
(345,-216,o),
(415,-216,cs),
(507,-216,o),
(555,-141,o),
(555,-48,cs),
(555,687,ls),
(555,700,o),
(545,710,o),
(532,710,cs),
(519,710,o),
(509,700,o),
(509,687,cs),
(512,52,l),
(522,64,l),
(133,700,ls),
(129,706,o),
(122,710,o),
(112,710,cs),
(98,710,o),
(90,700,o),
(90,687,cs),
(90,13,ls),
(90,0,o),
(100,-10,o),
(113,-10,cs)
);
}
);
width = 645;
},
{
anchors = (
{
name = bottom;
pos = (328,0);
},
{
name = top;
pos = (328,700);
}
);
background = {
shapes = (
{
closed = 1;
nodes = (
(529,-215,o),
(577,-121,o),
(577,-13,cs),
(577,69,l),
(463,59,l),
(482,26,o),
(494,-11,o),
(497,-36,cs),
(499,-90,o),
(468,-137,o),
(411,-137,cs),
(353,-137,o),
(321,-92,o),
(321,-26,cs),
(320,-3,o),
(303,15,o),
(280,15,cs),
(258,15,o),
(240,-3,o),
(240,-34,cs),
(240,-123,o),
(297,-215,o),
(413,-215,cs)
);
}
);
};
layerId = "DB110BCC-92E3-410E-8C20-9F3FFF600FD0";
shapes = (
{
closed = 1;
nodes = (
(146,-10,o),
(163,8,o),
(163,31,cs),
(159,549,l),
(497,0,l),
(498,-41,ls),
(499,-98,o),
(469,-141,o),
(422,-141,cs),
(384,-141,o),
(360,-123,o),
(351,-84,cs),
(347,-67,o),
(331,-54,o),
(313,-54,cs),
(288,-54,o),
(269,-78,o),
(275,-102,cs),
(293,-177,o),
(358,-215,o),
(422,-215,cs),
(509,-215,o),
(577,-146,o),
(577,0,cs),
(577,669,ls),
(577,693,o),
(560,710,o),
(536,710,cs),
(512,710,o),
(495,693,o),
(495,669,cs),
(499,106,l),
(518,111,l),
(170,679,ls),
(159,697,o),
(147,710,o),
(121,710,cs),
(98,710,o),
(80,693,o),
(80,668,cs),
(80,31,ls),
(80,8,o),
(98,-10,o),
(121,-10,cs)
);
}
);
width = 656.875;
}
);
metricLeft = "=N";
metricRight = "=N";
unicode = 330;
},
{
glyphname = O;
kernLeft = O;
kernRight = O;
lastChange = "2024-07-07 15:00:07 +0000";
layers = (
{
anchors = (
{
name = bottom;
pos = (371,0);
},
{
name = center;
pos = (371,350);
},
{
name = ogonek;
pos = (422,0);
},
{
name = top;
pos = (371,700);
},
{
name = topleft;
pos = (20,700);
},
{
name = topright;
pos = (427,713);
}
);
layerId = "6242D68C-0A25-4F05-8F2A-2075F7C4A210";
shapes = (
{
closed = 1;
nodes = (
(553,-15,o),
(686,133,o),
(686,349,cs),
(686,565,o),
(552,715,o),
(371,715,cs),
(190,715,o),
(56,565,o),
(56,349,cs),
(56,133,o),
(189,-15,o),
(371,-15,cs)
);
},
{
closed = 1;
nodes = (
(270,125,o),
(213,206,o),
(213,349,cs),
(213,493,o),
(270,575,o),
(371,575,cs),
(472,575,o),
(529,493,o),
(529,349,cs),
(529,206,o),
(472,125,o),
(371,125,cs)
);
}
);
width = 742;
},
{
anchors = (
{
name = bottom;
pos = (344,0);
},
{
name = center;
pos = (344,350);
},
{
name = ogonek;
pos = (400,0);
},
{
name = top;
pos = (344,680);
},
{
name = topleft;
pos = (20,700);
},
{
name = topright;
pos = (376,707);
}
);
layerId = "3D52442A-254C-4C79-B742-A98FD72DF947";
shapes = (
{
closed = 1;
nodes = (
(514,-15,o),
(627,137,o),
(627,347,cs),
(627,556,o),
(514,715,o),
(344,715,cs),
(173,715,o),
(60,556,o),
(60,347,cs),
(60,137,o),
(173,-15,o),
(344,-15,cs)
);
},
{
closed = 1;
nodes = (
(200,28,o),
(107,156,o),
(107,347,cs),
(107,538,o),
(200,672,o),
(344,672,cs),
(487,672,o),
(580,538,o),
(580,347,cs),
(580,156,o),
(487,28,o),
(344,28,cs)
);
}
);
width = 687;
},
{
anchors = (
{
name = bottom;
pos = (339,0);
},
{
name = center;
pos = (339,350);
},
{
name = ogonek;
pos = (391,0);
},
{
name = top;
pos = (339,690);
},
{
name = topleft;
pos = (19,700);
},
{
name = topright;
pos = (399,714);
}
);
layerId = "DB110BCC-92E3-410E-8C20-9F3FFF600FD0";
shapes = (
{
closed = 1;
nodes = (
(513,-15,o),
(625,130,o),
(625,349,cs),
(625,566,o),
(510,715,o),
(340,715,cs),
(171,715,o),
(53,566,o),
(53,349,cs),
(53,130,o),
(166,-15,o),
(339,-15,cs)
);
},
{
closed = 1;
nodes = (
(215,60,o),
(137,176,o),
(137,349,cs),
(137,519,o),
(215,640,o),
(339,640,cs),
(464,640,o),
(542,519,o),
(542,349,cs),
(542,176,o),
(464,60,o),
(339,60,cs)
);
}
);
width = 678;
}
);
unicode = 79;
},
{
glyphname = Ohorn;
kernLeft = O;
kernRight = O;
lastChange = "2024-07-07 19:39:07 +0000";
layers = (
{
anchors = (
{
name = bottom;
pos = (371,0);
},
{
name = top;
pos = (371,700);
}
);
background = {
anchors = (
{
name = bottom;
pos = (375,0);
},
{
name = center;
pos = (371,350);
},
{
name = ogonek;
pos = (440,0);
},
{
name = top;
pos = (375,700);
},
{
name = topleft;
pos = (0,700);
},
{
name = topright;
pos = (742,700);
}
);
shapes = (
{
closed = 1;
nodes = (
(553,-15,o),
(686,133,o),
(686,349,cs),
(686,565,o),
(552,715,o),
(371,715,cs),
(190,715,o),
(56,565,o),
(56,349,cs),
(56,133,o),
(189,-15,o),
(371,-15,cs)
);
},
{
closed = 1;
nodes = (
(270,125,o),
(213,206,o),
(213,349,cs),
(213,493,o),
(270,575,o),
(371,575,cs),
(472,575,o),
(529,493,o),
(529,349,cs),
(529,206,o),
(472,125,o),
(371,125,cs)
);
},
{
closed = 1;
nodes = (
(398,597,l),
(553,597,o),
(643,641,o),
(643,746,cs),
(643,789,o),
(617,820,o),
(576,820,cs),
(538,820,o),
(513,791,o),
(513,751,cs),
(513,725,o),
(490,715,o),
(398,715,c),
(379,715,l),
(379,597,l)
);
}
);
};
layerId = "6242D68C-0A25-4F05-8F2A-2075F7C4A210";
shapes = (
{
ref = O;
},
{
pos = (360,185);
ref = hornlongcomb.case;
}
);
width = 742;
},
{
anchors = (
{
name = bottom;
pos = (344,0);
},
{
name = top;
pos = (344,700);
}
);
background = {
anchors = (
{
name = bottom;
pos = (331,0);
},
{
name = center;
pos = (341,350);
},
{
name = ogonek;
pos = (401,0);
},
{
name = top;
pos = (300,700);
},
{
name = topleft;
pos = (61,700);
},
{
name = topright;
pos = (621,700);
}
);
shapes = (
{
closed = 1;
nodes = (
(504,-15,o),
(617,137,o),
(617,347,cs),
(617,556,o),
(504,715,o),
(334,715,cs),
(163,715,o),
(50,556,o),
(50,347,cs),
(50,137,o),
(163,-15,o),
(334,-15,cs)
);
},
{
closed = 1;
nodes = (
(190,28,o),
(97,156,o),
(97,347,cs),
(97,538,o),
(190,672,o),
(334,672,cs),
(477,672,o),
(570,538,o),
(570,347,cs),
(570,156,o),
(477,28,o),
(334,28,cs)
);
},
{
closed = 1;
nodes = (
(421,678,ls),
(511,679,o),
(539,733,o),
(539,779,cs),
(539,793,o),
(530,804,o),
(517,804,cs),
(504,804,o),
(495,793,o),
(495,779,cs),
(495,742,o),
(472,715,o),
(391,715,cs),
(328,715,l),
(328,677,l)
);
}
);
};
layerId = "3D52442A-254C-4C79-B742-A98FD72DF947";
shapes = (
{
ref = O;
},
{
pos = (334,186);
ref = hornlongcomb.case;
}
);
width = 687;
},
{
anchors = (
{
name = bottom;
pos = (340,0);
},
{
name = top;
pos = (348,700);
}
);
background = {
anchors = (
{
name = bottom;
pos = (343,0);
},
{
name = center;
pos = (342,350);
},
{
name = ogonek;
pos = (421,0);
},
{
name = top;
pos = (337,700);
},
{
name = topleft;
pos = (24,700);
},
{
name = topright;
pos = (661,700);
}
);
shapes = (
{
closed = 1;
nodes = (
(514,-15,o),
(626,130,o),
(626,349,cs),
(626,566,o),
(511,715,o),
(341,715,cs),
(172,715,o),
(54,566,o),
(54,349,cs),
(54,130,o),
(167,-15,o),
(340,-15,cs)
);
},
{
closed = 1;
nodes = (
(216,60,o),
(138,176,o),
(138,349,cs),
(138,519,o),
(216,640,o),
(340,640,cs),
(465,640,o),
(543,519,o),
(543,349,cs),
(543,176,o),
(465,60,o),
(340,60,cs)
);
},
{
closed = 1;
nodes = (
(365,654,ls),
(512,654,o),
(551,698,o),
(551,770,cs),
(551,797,o),
(538,814,o),
(515,814,cs),
(494,814,o),
(480,799,o),
(480,775,cs),
(480,737,o),
(456,716,o),
(365,716,cs),
(347,716,l),
(347,654,l)
);
}
);
};
layerId = "DB110BCC-92E3-410E-8C20-9F3FFF600FD0";
shapes = (
{
ref = O;
},
{
pos = (359,184);
ref = hornlongcomb.case;
}
);
width = 678;
}
);
unicode = 416;
},
{
glyphname = Oogonek;
kernLeft = Oogonek;
kernRight = Oogonek;
lastChange = "2024-06-17 18:15:40 +0000";
layers = (
{
anchors = (
{
name = top;
pos = (371,700);
}
);
layerId = "6242D68C-0A25-4F05-8F2A-2075F7C4A210";
shapes = (
{
ref = O;
},
{
pos = (216,0);
ref = ogonekcomb.case;
}
);
width = 742;
},
{
anchors = (
{
name = top;
pos = (344,700);
}
);
background = {
shapes = (
{
closed = 1;
nodes = (
(459,-137,o),
(449,-143,o),
(432,-143,cs),
(404,-143,o),
(394,-126,o),
(394,-100,cs),
(394,-38,o),
(450,0,o),
(470,17,cs),
(491,35,l),
(497,79,l),
(460,54,ls),
(373,-5,o),
(349,-54,o),
(349,-99,cs),
(349,-148,o),
(379,-184,o),
(430,-184,cs),
(455,-184,o),
(476,-176,o),
(496,-157,cs),
(511,-144,o),
(516,-132,o),
(516,-124,cs),
(516,-112,o),
(506,-106,o),
(497,-106,cs),
(485,-106,o),
(476,-117,o),
(471,-123,cs)
);
}
);
};
layerId = "3D52442A-254C-4C79-B742-A98FD72DF947";
shapes = (
{
ref = O;
},
{
pos = (258,0);
ref = ogonekcomb.case;
}
);
width = 687;
},
{
anchors = (
{
name = top;
pos = (340,700);
}
);
layerId = "DB110BCC-92E3-410E-8C20-9F3FFF600FD0";
shapes = (
{
ref = O;
},
{
pos = (224,0);
ref = ogonekcomb.case;
}
);
width = 678;
}
);
metricLeft = "=O";
metricRight = "=O";
unicode = 490;
},
{
glyphname = OE;
kernLeft = O;
kernRight = E;
lastChange = "2024-06-17 18:15:40 +0000";
layers = (
{
anchors = (
{
name = bottom;
pos = (462,0);
},
{
name = top;
pos = (472,700);
}
);
background = {
shapes = (
{
closed = 1;
nodes = (
(463,-17,o),
(596,133,o),
(596,348,cs),
(596,563,o),
(468,712,o),
(286,712,cs),
(104,712,o),
(-34,563,o),
(-34,348,cs),
(-34,133,o),
(99,-17,o),
(281,-17,cs)
);
},
{
closed = 1;
nodes = (
(185,123,o),
(123,217,o),
(123,348,cs),
(123,479,o),
(185,572,o),
(281,572,cs),
(377,572,o),
(439,479,o),
(439,348,cs),
(439,217,o),
(377,123,o),
(281,123,cs)
);
}
);
};
layerId = "6242D68C-0A25-4F05-8F2A-2075F7C4A210";
shapes = (
{
closed = 1;
nodes = (
(410,-15,o),
(449,13,o),
(490,47,c),
(461,72,l),
(462,49,l),
(462,20,o),
(505,0,o),
(535,0,cs),
(811,0,ls),
(852,0,o),
(881,29,o),
(881,70,cs),
(881,111,o),
(852,140,o),
(811,140,cs),
(596,140,l),
(596,285,l),
(759,285,ls),
(800,285,o),
(829,314,o),
(829,355,cs),
(829,396,o),
(800,425,o),
(759,425,cs),
(596,425,l),
(596,560,l),
(798,560,ls),
(839,560,o),
(868,589,o),
(868,630,cs),
(868,671,o),
(839,700,o),
(798,700,cs),
(532,700,ls),
(500,700,o),
(461,670,o),
(461,638,c),
(461,622,l),
(511,653,l),
(469,682,o),
(440,715,o),
(353,715,cs),
(178,715,o),
(56,562,o),
(56,351,cs),
(56,162,o),
(154,-15,o),
(335,-15,cs)
);
},
{
closed = 1;
nodes = (
(213,486,o),
(273,579,o),
(371,576,cs),
(407,575,o),
(434,563,o),
(450,551,c),
(450,150,l),
(434,139,o),
(396,125,o),
(357,125,cs),
(273,125,o),
(213,208,o),
(213,347,cs)
);
}
);
width = 916;
},
{
anchors = (
{
name = bottom;
pos = (485,0);
},
{
name = top;
pos = (485,700);
}
);
layerId = "3D52442A-254C-4C79-B742-A98FD72DF947";
shapes = (
{
closed = 1;
nodes = (
(429,-15,o),
(484,19,o),
(519,72,c),
(512,82,l),
(512,23,ls),
(512,10,o),
(522,0,o),
(535,0,cs),
(880,0,ls),
(893,0,o),
(903,10,o),
(903,23,cs),
(903,36,o),
(893,46,o),
(880,46,cs),
(558,46,l),
(558,344,l),
(852,344,ls),
(865,344,o),
(875,354,o),
(875,367,cs),
(875,380,o),
(865,390,o),
(852,390,cs),
(558,390,l),
(558,654,l),
(882,654,ls),
(895,654,o),
(905,664,o),
(905,677,cs),
(905,690,o),
(895,700,o),
(882,700,cs),
(535,700,ls),
(522,700,o),
(512,690,o),
(512,677,cs),
(512,614,l),
(518,624,l),
(487,675,o),
(429,716,o),
(340,716,cs),
(163,716,o),
(60,557,o),
(60,350,cs),
(60,134,o),
(163,-15,o),
(343,-15,cs)
);
},
{
closed = 1;
nodes = (
(106,533,o),
(189,672,o),
(337,672,cs),
(425,672,o),
(499,616,o),
(512,549,c),
(512,151,l),
(492,91,o),
(446,29,o),
(341,29,cs),
(189,29,o),
(106,162,o),
(106,354,cs)
);
}
);
width = 970;
},
{
anchors = (
{
name = bottom;
pos = (460,0);
},
{
name = top;
pos = (460,700);
}
);
layerId = "DB110BCC-92E3-410E-8C20-9F3FFF600FD0";
shapes = (
{
closed = 1;
nodes = (
(404,-15,o),
(459,8,o),
(497,47,c),
(478,62,l),
(478,35,ls),
(479,15,o),
(496,0,o),
(518,0,cs),
(835,0,ls),
(858,0,o),
(874,16,o),
(874,39,cs),
(874,61,o),
(858,77,o),
(835,77,cs),
(559,77,l),
(559,324,l),
(797,324,ls),
(819,324,o),
(835,340,o),
(835,362,cs),
(835,384,o),
(819,401,o),
(797,401,cs),
(559,401,l),
(559,624,l),
(828,624,ls),
(850,624,o),
(866,640,o),
(866,662,cs),
(866,684,o),
(850,700,o),
(828,700,cs),
(518,700,ls),
(497,700,o),
(479,687,o),
(479,667,cs),
(479,641,l),
(498,655,l),
(460,693,o),
(403,715,o),
(338,715,cs),
(165,715,o),
(53,561,o),
(53,351,cs),
(53,141,o),
(160,-15,o),
(338,-15,cs)
);
},
{
closed = 1;
nodes = (
(135,518,o),
(208,641,o),
(338,640,cs),
(402,640,o),
(451,609,o),
(477,565,c),
(477,140,l),
(459,97,o),
(406,61,o),
(338,61,cs),
(212,61,o),
(135,180,o),
(135,351,cs)
);
}
);
width = 922;
}
);
metricLeft = "=O";
metricRight = "=E";
unicode = 338;
},
{
glyphname = P;
kernLeft = H;
kernRight = P;
lastChange = "2024-06-17 18:15:40 +0000";
layers = (
{
anchors = (
{
name = bottom;
pos = (308,0);
},
{
name = top;
pos = (308,700);
}
);
background = {
shapes = (
{
attr = {
strokeWidth = 2;
};
closed = 0;
nodes = (
(266,618,l),
(447,618,ls),
(521,618,o),
(580,559,o),
(580,485,c),
(580,413,o),
(521,353,o),
(447,353,cs),
(266,353,l)
);
},
{
closed = 1;
nodes = (
(262,-10,o),
(298,26,o),
(298,70,cs),
(298,700,l),
(218,700,ls),
(174,700,o),
(138,664,o),
(138,620,cs),
(138,70,ls),
(138,26,o),
(174,-10,o),
(218,-10,cs)
);
}
);
};
layerId = "6242D68C-0A25-4F05-8F2A-2075F7C4A210";
shapes = (
{
closed = 1;
nodes = (
(201,-10,o),
(236,25,o),
(236,68,cs),
(236,700,l),
(158,700,ls,{
name = "💚";
}),
(115,700,o),
(80,665,o),
(80,622,cs),
(80,68,ls),
(80,25,o),
(115,-10,o),
(158,-10,cs)
);
},
{
closed = 1;
nodes = (
(376,255,ls),
(496,255,o),
(596,343,o),
(596,477,cs),
(596,610,o),
(497,700,o),
(364,700,cs),
(206,700,l),
(206,560,l),
(350,560,ls),
(404,560,o),
(436,528,o),
(436,474,cs),
(436,428,o),
(403,395,o),
(358,395,cs),
(206,395,l),
(206,255,l)
);
}
);
width = 611;
},
{
anchors = (
{
name = bottom;
pos = (279,0);
},
{
name = top;
pos = (279,680);
}
);
background = {
shapes = (
{
attr = {
strokeWidth = 2;
};
closed = 0;
nodes = (
(86,677,l),
(321,677,ls),
(417,677,o),
(494,599,o),
(494,503,c),
(494,408,o),
(417,329,o),
(321,329,cs),
(86,329,l)
);
}
);
};
layerId = "3D52442A-254C-4C79-B742-A98FD72DF947";
shapes = (
{
closed = 1;
nodes = (
(126,-10,o),
(136,0,o),
(136,13,cs),
(136,700,l),
(113,700,ls),
(100,700,o),
(90,690,o),
(90,677,cs),
(90,13,ls),
(90,0,o),
(100,-10,o),
(113,-10,cs)
);
},
{
closed = 1;
nodes = (
(335,306,ls),
(451,306,o),
(538,396,o),
(538,503,cs),
(538,611,o),
(451,700,o),
(342,700,cs),
(128,700,l),
(128,655,l),
(342,655,ls),
(426,655,o),
(491,590,o),
(491,503,cs),
(491,417,o),
(424,350,o),
(335,350,cs),
(128,350,l),
(128,306,l)
);
}
);
width = 558;
},
{
anchors = (
{
name = bottom;
pos = (285,0);
},
{
name = top;
pos = (285,690);
}
);
layerId = "DB110BCC-92E3-410E-8C20-9F3FFF600FD0";
shapes = (
{
closed = 1;
nodes = (
(145,-10,o),
(162,8,o),
(162,31,cs),
(162,700,l),
(121,700,ls),
(98,700,o),
(80,682,o),
(80,659,cs),
(80,31,ls),
(80,8,o),
(98,-10,o),
(121,-10,cs)
);
},
{
closed = 1;
nodes = (
(363,288,ls),
(473,288,o),
(560,375,o),
(560,495,cs),
(560,612,o),
(471,700,o),
(353,700,cs),
(128,700,l),
(128,623,l),
(351,623,ls),
(427,623,o),
(477,570,o),
(477,494,cs),
(477,417,o),
(427,364,o),
(350,364,cs),
(128,364,l),
(128,288,l)
);
}
);
width = 570;
}
);
metricLeft = H;
unicode = 80;
},
{
glyphname = Thorn;
kernLeft = H;
kernRight = Thorn;
lastChange = "2024-06-17 18:15:40 +0000";
layers = (
{
anchors = (
{
name = bottom;
pos = (304,0);
},
{
name = ogonek;
pos = (135,0);
},
{
name = top;
pos = (304,700);
},
{
name = topleft;
pos = (20,700);
}
);
layerId = "6242D68C-0A25-4F05-8F2A-2075F7C4A210";
shapes = (
{
closed = 1;
nodes = (
(374,138,ls),
(499,138,o),
(598,241,o),
(598,359,cs),
(598,477,o),
(495,580,o),
(357,580,cs),
(196,580,l),
(196,432,l),
(357,432,ls),
(418,432,o),
(447,401,o),
(447,359,cs),
(447,317,o),
(418,286,o),
(357,286,cs),
(196,286,l),
(196,138,l)
);
},
{
closed = 1;
nodes = (
(203,-10,o),
(236,23,o),
(236,68,cs),
(236,632,ls),
(236,677,o),
(203,710,o),
(158,710,cs),
(113,710,o),
(80,677,o),
(80,632,cs),
(80,68,ls),
(80,23,o),
(113,-10,o),
(158,-10,cs)
);
}
);
width = 613;
},
{
anchors = (
{
name = bottom;
pos = (268,0);
},
{
name = ogonek;
pos = (97,0);
},
{
name = top;
pos = (268,700);
},
{
name = topleft;
pos = (20,700);
}
);
layerId = "3D52442A-254C-4C79-B742-A98FD72DF947";
shapes = (
{
closed = 1;
nodes = (
(344,171,ls),
(442,171,o),
(516,247,o),
(516,359,cs),
(516,471,o),
(439,548,o),
(327,548,cs),
(109,548,l),
(109,505,l),
(327,505,ls),
(413,505,o),
(470,444,o),
(470,359,cs),
(470,274,o),
(413,214,o),
(327,214,cs),
(109,214,l),
(109,171,l)
);
},
{
closed = 1;
nodes = (
(126,-10,o),
(136,0,o),
(136,13,cs),
(136,687,ls),
(136,700,o),
(126,710,o),
(113,710,cs),
(100,710,o),
(90,700,o),
(90,687,cs),
(90,13,ls),
(90,0,o),
(100,-10,o),
(113,-10,cs)
);
}
);
width = 536;
},
{
anchors = (
{
name = bottom;
pos = (276,0);
},
{
name = ogonek;
pos = (101,0);
},
{
name = top;
pos = (276,700);
},
{
name = topleft;
pos = (20,700);
}
);
layerId = "DB110BCC-92E3-410E-8C20-9F3FFF600FD0";
shapes = (
{
closed = 1;
nodes = (
(353,156,ls),
(459,156,o),
(542,242,o),
(542,359,cs),
(542,477,o),
(456,563,o),
(336,563,cs),
(114,563,l),
(114,485,l),
(336,485,ls),
(412,485,o),
(461,434,o),
(461,359,cs),
(461,286,o),
(412,234,o),
(336,234,cs),
(114,234,l),
(114,156,l)
);
},
{
closed = 1;
nodes = (
(145,-10,o),
(162,8,o),
(162,31,cs),
(162,669,ls),
(162,693,o),
(145,710,o),
(121,710,cs),
(97,710,o),
(80,693,o),
(80,669,cs),
(80,31,ls),
(80,8,o),
(97,-10,o),
(121,-10,cs)
);
}
);
width = 552;
}
);
metricLeft = "=H";
metricRight = "=P";
unicode = 222;
},
{
glyphname = Q;
kernLeft = O;
kernRight = Q;
lastChange = "2024-07-14 15:20:23 +0000";
layers = (
{
anchors = (
{
name = bottom;
pos = (394,0);
},
{
name = top;
pos = (394,700);
}
);
annotations = (
{
pos = (726.709,678.073);
text = "need to fix tail";
type = Text;
}
);
guides = (
{
pos = (509,-45);
}
);
layerId = "6242D68C-0A25-4F05-8F2A-2075F7C4A210";
shapes = (
{
closed = 1;
nodes = (
(579,-15,o),
(718,136,o),
(718,351,cs),
(718,566,o),
(584,715,o),
(392,715,cs),
(200,715,o),
(56,566,o),
(56,351,cs),
(56,136,o),
(195,-15,o),
(387,-15,cs)
);
},
{
closed = 1;
nodes = (
(281,125,o),
(219,220,o),
(219,351,cs),
(219,482,o),
(281,575,o),
(387,575,cs),
(493,575,o),
(555,482,o),
(555,351,cs),
(555,209,o),
(493,125,o),
(387,125,cs)
);
},
{
closed = 1;
nodes = (
(714,-45,o),
(778,-23,o),
(778,47,cs),
(778,90,o),
(751,109,o),
(720,109,cs),
(691,109,o),
(681,93,o),
(655,93,cs),
(624,93,o),
(607,124,o),
(590,163,cs),
(546,261,o),
(514,315,o),
(426,315,cs),
(381,315,o),
(347,285,o),
(347,246,cs),
(347,210,o),
(372,183,o),
(404,183,cs),
(419,183,o),
(437,176,o),
(451,161,cs),
(464,148,o),
(474,128,o),
(491,96,cs),
(534,15,o),
(572,-45,o),
(659,-45,cs)
);
}
);
width = 788;
},
{
anchors = (
{
name = bottom;
pos = (339,0);
},
{
name = top;
pos = (342,680);
}
);
guides = (
{
pos = (613,-45);
}
);
layerId = "3D52442A-254C-4C79-B742-A98FD72DF947";
shapes = (
{
closed = 1;
nodes = (
(514,-15,o),
(627,141,o),
(627,350,cs),
(627,559,o),
(514,715,o),
(344,715,cs),
(173,715,o),
(60,559,o),
(60,350,cs),
(60,141,o),
(173,-15,o),
(344,-15,cs)
);
},
{
closed = 1;
nodes = (
(200,28,o),
(107,159,o),
(107,350,cs),
(107,541,o),
(200,672,o),
(344,672,cs),
(487,672,o),
(580,541,o),
(580,350,cs),
(580,159,o),
(487,28,o),
(344,28,cs)
);
},
{
closed = 1;
nodes = (
(621,-45,o),
(655,-34,o),
(655,-10,cs),
(655,3,o),
(645,14,o),
(634,14,cs),
(621,14,o),
(607,1,o),
(586,1,cs),
(559,1,o),
(531,22,o),
(499,74,cs),
(463,134,o),
(440,195,o),
(386,195,cs),
(364,195,o),
(345,185,o),
(345,168,cs),
(345,155,o),
(355,146,o),
(369,146,cs),
(377,146,o),
(382,149,o),
(388,149,cs),
(413,149,o),
(428,103,o),
(464,47,cs),
(501,-10,o),
(528,-45,o),
(587,-45,cs)
);
}
);
width = 675;
},
{
anchors = (
{
name = bottom;
pos = (336,0);
},
{
name = top;
pos = (336,690);
}
);
layerId = "DB110BCC-92E3-410E-8C20-9F3FFF600FD0";
shapes = (
{
closed = 1;
nodes = (
(520,-15,o),
(632,131,o),
(632,349,cs),
(632,567,o),
(520,715,o),
(343,715,cs),
(171,715,o),
(53,567,o),
(53,349,cs),
(53,131,o),
(165,-15,o),
(342,-15,cs)
);
},
{
closed = 1;
nodes = (
(215,59,o),
(137,178,o),
(137,349,cs),
(137,520,o),
(215,641,o),
(342,641,cs),
(470,641,o),
(548,520,o),
(548,349,cs),
(548,178,o),
(470,59,o),
(342,59,cs)
);
},
{
closed = 1;
nodes = (
(613,-45,o),
(662,-33,o),
(662,4,cs),
(662,26,o),
(646,40,o),
(626,40,cs),
(609,40,o),
(601,29,o),
(584,29,cs),
(561,29,o),
(541,50,o),
(517,86,c),
(486,136,o),
(434,225,o),
(377,225,cs),
(351,225,o),
(333,207,o),
(333,188,cs),
(333,170,o),
(351,155,o),
(377,155,cs),
(385,155,o),
(391,152,o),
(398,146,cs),
(411,133,o),
(427,105,o),
(456,57,c),
(494,-5,o),
(525,-45,o),
(582,-45,cs)
);
}
);
width = 672;
}
);
metricLeft = O;
unicode = 81;
},
{
glyphname = R;
kernLeft = H;
kernRight = R;
lastChange = "2024-07-07 15:03:48 +0000";
layers = (
{
anchors = (
{
name = bottom;
pos = (338,0);
},
{
name = top;
pos = (334,700);
}
);
background = {
shapes = (
{
attr = {
strokeWidth = 2;
};
closed = 0;
nodes = (
(186,669,l),
(186,0,l)
);
},
{
attr = {
strokeWidth = 2;
};
closed = 0;
nodes = (
(128,340,l),
(369,340,ls),
(472,340,o),
(532,394,o),
(532,487,cs),
(532,572,o),
(464,634,o),
(369,634,cs),
(128,634,l)
);
},
{
attr = {
strokeWidth = 2;
};
closed = 0;
nodes = (
(393,370,l),
(571,4,l)
);
},
{
closed = 1;
nodes = (
(204,-10,o),
(240,26,o),
(240,70,cs),
(240,700,l),
(160,700,ls),
(116,700,o),
(80,664,o),
(80,620,cs),
(80,70,ls),
(80,26,o),
(116,-10,o),
(160,-10,cs)
);
}
);
};
layerId = "6242D68C-0A25-4F05-8F2A-2075F7C4A210";
shapes = (
{
closed = 1;
nodes = (
(203,-10,o),
(236,23,o),
(236,68,cs),
(236,700,l),
(158,700,ls),
(113,700,o),
(80,667,o),
(80,622,cs),
(80,68,ls),
(80,23,o),
(113,-10,o),
(158,-10,cs)
);
},
{
closed = 1;
nodes = (
(388,255,ls),
(508,255,o),
(608,343,o),
(608,477,cs),
(608,610,o),
(509,700,o),
(376,700,cs),
(208,700,l),
(208,560,l),
(362,560,ls),
(402,560,o),
(448,532,o),
(448,474,cs),
(448,428,o),
(417,395,o),
(370,395,cs),
(208,395,l),
(208,255,l)
);
},
{
closed = 1;
nodes = (
(593,-10,o),
(626,23,o),
(626,65,cs),
(626,77,o),
(623,89,o),
(618,99,cs,{
name = "💚";
}),
(499,343,l),
(352,309,l),
(485,31,ls),
(497,6,o),
(522,-10,o),
(551,-10,cs)
);
}
);
width = 671;
},
{
anchors = (
{
name = bottom;
pos = (303,0);
},
{
name = top;
pos = (285,680);
}
);
background = {
shapes = (
{
attr = {
strokeWidth = 2;
};
closed = 0;
nodes = (
(107,682,l),
(107,0,l)
);
},
{
attr = {
strokeWidth = 2;
};
closed = 0;
nodes = (
(121,352,l),
(335,352,ls),
(449,352,o),
(517,411,o),
(517,509,cs),
(517,610,o),
(441,678,o),
(335,678,cs),
(121,678,l)
);
},
{
attr = {
strokeWidth = 2;
};
closed = 0;
nodes = (
(360,376,l),
(542,1,l)
);
}
);
};
layerId = "3D52442A-254C-4C79-B742-A98FD72DF947";
shapes = (
{
closed = 1;
nodes = (
(126,-10,o),
(136,0,o),
(136,13,cs),
(136,700,l),
(113,700,ls),
(100,700,o),
(90,690,o),
(90,677,cs),
(90,13,ls),
(90,0,o),
(100,-10,o),
(113,-10,cs)
);
},
{
closed = 1;
nodes = (
(335,328,ls),
(461,328,o),
(540,396,o),
(540,508,cs),
(540,622,o),
(453,700,o),
(335,700,cs),
(127,700,l),
(127,655,l),
(335,655,ls),
(429,655,o),
(493,599,o),
(493,508,cs),
(493,420,o),
(440,372,o),
(335,372,cs),
(127,372,l),
(127,328,l)
);
},
{
closed = 1;
nodes = (
(547,-10,o),
(556,0,o),
(556,12,cs),
(556,15,o),
(555,19,o),
(554,22,cs),
(393,358,l),
(346,355,l),
(515,2,ls),
(518,-5,o),
(526,-10,o),
(534,-10,cs)
);
}
);
width = 606;
},
{
anchors = (
{
name = bottom;
pos = (310,0);
},
{
name = top;
pos = (299,690);
}
);
layerId = "DB110BCC-92E3-410E-8C20-9F3FFF600FD0";
shapes = (
{
closed = 1;
nodes = (
(144,-10,o),
(162,9,o),
(162,32,cs),
(162,700,l),
(121,700,ls),
(99,700,o),
(80,682,o),
(80,659,cs),
(80,32,ls),
(80,9,o),
(99,-10,o),
(121,-10,cs)
);
},
{
closed = 1;
nodes = (
(357,320,ls),
(473,320,o),
(558,395,o),
(558,508,cs),
(558,622,o),
(470,700,o),
(351,700,cs),
(131,700,l),
(131,623,l),
(353,623,ls),
(426,623,o),
(476,578,o),
(476,507,cs),
(476,440,o),
(432,396,o),
(360,396,cs),
(133,396,l),
(133,320,l)
);
},
{
closed = 1;
nodes = (
(553,-10,o),
(570,9,o),
(570,31,cs),
(570,38,o),
(569,44,o),
(566,49,cs),
(419,354,l),
(337,345,l),
(494,13,ls),
(501,-1,o),
(515,-10,o),
(530,-10,cs)
);
}
);
width = 619.75;
}
);
metricLeft = H;
unicode = 82;
},
{
color = 1;
glyphname = S;
kernLeft = S;
kernRight = S;
lastChange = "2024-07-07 19:41:08 +0000";
layers = (
{
anchors = (
{
name = bottom;
pos = (294,0);
},
{
name = top;
pos = (294,700);
}
);
background = {
shapes = (
{
closed = 1;
nodes = (
(440,-15,o),
(552,54,o),
(552,197,cs),
(552,339,o),
(443,382,o),
(352,417,cs),
(286,443,o),
(229,466,o),
(229,519,cs),
(229,556,o),
(261,575,o),
(303,575,cs),
(351,575,o),
(370,556,o),
(386,535,cs),
(401,515,o),
(414,503,o),
(447,503,cs),
(490,503,o),
(518,533,o),
(518,576,cs),
(518,655,o),
(425,715,o),
(303,715,cs),
(171,715,o),
(73,645,o),
(73,513,cs),
(73,362,o),
(184,321,o),
(276,287,cs),
(341,263,o),
(396,242,o),
(396,189,cs),
(396,142,o),
(353,125,o),
(301,125,cs),
(241,125,o),
(205,148,o),
(181,179,cs),
(162,204,o),
(148,229,o),
(110,229,cs),
(65,229,o),
(35,199,o),
(35,158,cs),
(35,62,o),
(156,-15,o),
(305,-15,cs)
);
}
);
};
layerId = "6242D68C-0A25-4F05-8F2A-2075F7C4A210";
shapes = (
{
closed = 1;
nodes = (
(440,-15,o),
(552,54,o),
(552,197,cs),
(552,339,o),
(443,382,o),
(352,417,cs),
(286,443,o),
(229,466,o),
(229,519,cs),
(229,556,o),
(261,575,o),
(303,575,cs),
(351,575,o),
(371,557,o),
(386,535,cs),
(403,510,o),
(417,503,o),
(447,503,cs),
(490,503,o),
(518,533,o),
(518,576,cs),
(518,655,o),
(425,715,o),
(303,715,cs),
(171,715,o),
(73,645,o),
(73,513,cs),
(73,362,o),
(184,321,o),
(276,287,cs),
(341,263,o),
(396,242,o),
(396,189,cs),
(396,142,o),
(353,125,o),
(301,125,cs),
(241,125,o),
(205,148,o),
(181,179,cs),
(162,204,o),
(148,229,o),
(110,229,cs),
(65,229,o),
(35,199,o),
(35,158,cs),
(35,62,o),
(156,-15,o),
(305,-15,cs)
);
}
);
width = 587;
},
{
anchors = (
{
name = bottom;
pos = (277,0);
},
{
name = top;
pos = (277,683);
}
);
background = {
anchors = (
{
name = bottom;
pos = (277,0);
},
{
name = top;
pos = (277,680);
}
);
shapes = (
{
closed = 1;
nodes = (
(445,-16,o),
(508,87,o),
(508,170,cs),
(508,304,o),
(394,344,o),
(299,383,cs),
(211,419,o),
(123,445,o),
(123,532,cs),
(123,624,o),
(211,671,o),
(286,671,cs),
(368,671,o),
(426,628,o),
(443,563,cs),
(447,548,o),
(456,541,o),
(468,541,cs),
(485,541,o),
(492,554,o),
(490,571,cs),
(486,604,o),
(439,714,o),
(287,714,cs),
(176,714,o),
(77,646,o),
(77,532,cs),
(77,416,o),
(185,376,o),
(279,341,cs),
(425,287,o),
(462,247,o),
(462,168,cs),
(462,79,o),
(377,28,o),
(283,28,cs),
(178,28,o),
(100,86,o),
(88,175,c),
(86,186,o),
(78,194,o),
(67,194,cs),
(55,194,o),
(44,184,o),
(45,168,cs),
(55,57,o),
(151,-16,o),
(291,-16,cs)
);
}
);
};
layerId = "3D52442A-254C-4C79-B742-A98FD72DF947";
shapes = (
{
closed = 1;
nodes = (
(445,-16,o),
(508,87,o),
(508,170,cs),
(508,304,o),
(394,344,o),
(299,383,cs),
(211,419,o),
(123,445,o),
(123,532,cs),
(123,624,o),
(211,671,o),
(286,671,cs),
(368,671,o),
(426,628,o),
(443,563,cs),
(447,548,o),
(456,541,o),
(468,541,cs),
(485,541,o),
(492,554,o),
(490,571,cs),
(486,604,o),
(439,714,o),
(287,714,cs),
(176,714,o),
(77,646,o),
(77,532,cs),
(77,416,o),
(185,376,o),
(279,341,cs),
(425,287,o),
(462,247,o),
(462,168,cs),
(462,79,o),
(377,28,o),
(283,28,cs),
(178,28,o),
(100,86,o),
(88,175,cs),
(87,186,o),
(78,194,o),
(67,194,cs),
(55,194,o),
(44,184,o),
(45,168,cs),
(55,57,o),
(151,-16,o),
(291,-16,cs)
);
}
);
width = 553;
},
{
anchors = (
{
name = bottom;
pos = (291,0);
},
{
name = top;
pos = (291,700);
}
);
background = {
shapes = (
{
closed = 1;
nodes = (
(449,-16,o),
(532,69,o),
(531,192,cs),
(530,287,o),
(481,337,o),
(323,400,cs),
(238,434,o),
(160,452,o),
(160,533,cs),
(160,600,o),
(213,640,o),
(292,640,cs),
(336,640,o),
(368,627,o),
(392,607,cs),
(446,561,o),
(423,510,o),
(470,510,cs),
(496,510,o),
(512,529,o),
(509,554,cs),
(501,631,o),
(414,715,o),
(286,715,cs),
(172,715,o),
(78,652,o),
(78,529,cs),
(78,395,o),
(188,366,o),
(289,325,cs),
(413,275,o),
(449,252,o),
(449,187,cs),
(449,94,o),
(375,60,o),
(291,60,cs),
(193,60,o),
(143,110,o),
(129,163,cs),
(120,197,o),
(100,213,o),
(80,213,cs),
(62,213,o),
(45,201,o),
(45,165,cs),
(45,86,o),
(130,-16,o),
(295,-16,cs)
);
}
);
};
layerId = "DB110BCC-92E3-410E-8C20-9F3FFF600FD0";
shapes = (
{
closed = 1;
nodes = (
(449,-16,o),
(532,69,o),
(531,192,cs),
(530,287,o),
(481,337,o),
(323,400,cs),
(238,434,o),
(160,452,o),
(160,533,cs),
(160,600,o),
(213,640,o),
(292,640,cs),
(360,640,o),
(406,610,o),
(430,552,cs),
(439,528,o),
(442,510,o),
(470,510,cs),
(496,510,o),
(512,529,o),
(509,554,cs),
(501,631,o),
(414,715,o),
(286,715,cs),
(172,715,o),
(78,652,o),
(78,529,cs),
(78,395,o),
(188,366,o),
(289,325,cs),
(413,275,o),
(449,252,o),
(449,187,cs),
(449,94,o),
(375,60,o),
(291,60,cs),
(193,60,o),
(145,110,o),
(129,163,cs),
(122,188,o),
(112,209,o),
(84,209,cs),
(58,209,o),
(45,190,o),
(45,165,cs),
(45,86,o),
(130,-16,o),
(295,-16,cs)
);
}
);
width = 576;
}
);
unicode = 83;
},
{
glyphname = Germandbls;
kernLeft = Germandbls;
kernRight = Germandbls;
lastChange = "2024-07-05 15:11:30 +0000";
layers = (
{
anchors = (
{
name = bottom;
pos = (369,0);
},
{
name = top;
pos = (369,700);
}
);
layerId = "6242D68C-0A25-4F05-8F2A-2075F7C4A210";
shapes = (
{
closed = 1;
nodes = (
(198,-10,o),
(232,24,o),
(232,65,cs),
(232,429,ls),
(232,517,o),
(263,554,o),
(337,554,cs),
(597,554,l),
(519,686,l),
(355,430,ls),
(315,368,o),
(342,313,o),
(405,294,cs),
(500,267,o),
(556,261,o),
(556,203,cs),
(556,159,o),
(525,135,o),
(459,135,cs),
(427,135,o),
(392,146,o),
(374,152,cs),
(317,171,o),
(265,136,o),
(265,82,cs),
(265,53,o),
(282,26,o),
(309,15,cs),
(332,5,o),
(402,-15,o),
(463,-15,cs),
(621,-15,o),
(707,99,o),
(707,211,cs),
(707,346,o),
(585,406,o),
(395,443,c),
(472,332,l),
(630,572,ls),
(670,633,o),
(629,700,o),
(566,700,cs),
(315,700,ls),
(188,700,o),
(80,593,o),
(80,486,cs),
(80,65,ls),
(80,24,o),
(115,-10,o),
(156,-10,cs)
);
}
);
width = 732;
},
{
anchors = (
{
name = bottom;
pos = (306,0);
},
{
name = top;
pos = (306,700);
}
);
layerId = "3D52442A-254C-4C79-B742-A98FD72DF947";
shapes = (
{
closed = 1;
nodes = (
(126,-10,o),
(136,0,o),
(136,13,cs),
(136,481,ls),
(136,580,o),
(175,655,o),
(294,655,cs),
(482,655,l),
(458,672,l),
(298,406,ls),
(277,371,o),
(280,358,o),
(317,347,cs),
(408,320,o),
(526,286,o),
(526,170,cs),
(526,78,o),
(462,30,o),
(376,30,cs),
(335,30,o),
(293,43,o),
(275,49,cs),
(250,57,o),
(231,52,o),
(231,33,cs),
(231,20,o),
(238,14,o),
(247,10,cs),
(266,1,o),
(326,-15,o),
(380,-15,cs),
(507,-15,o),
(572,72,o),
(572,171,cs),
(572,288,o),
(475,352,o),
(329,389,c),
(329,372,l),
(502,650,ls),
(521,681,o),
(509,700,o),
(483,700,cs),
(287,700,ls),
(171,700,o),
(90,616,o),
(90,502,cs),
(90,13,ls),
(90,0,o),
(100,-10,o),
(113,-10,cs)
);
}
);
width = 607;
},
{
anchors = (
{
name = bottom;
pos = (319,0);
},
{
name = top;
pos = (319,700);
}
);
layerId = "DB110BCC-92E3-410E-8C20-9F3FFF600FD0";
shapes = (
{
closed = 1;
nodes = (
(145,-9,o),
(162,9,o),
(162,32,cs),
(162,464,ls),
(162,550,o),
(198,624,o),
(302,624,cs),
(486,624,l),
(461,661,l),
(316,414,ls),
(292,372,o),
(299,343,o),
(345,329,cs),
(437,302,o),
(526,285,o),
(526,186,cs),
(526,107,o),
(473,66,o),
(394,66,cs),
(356,66,o),
(317,78,o),
(299,84,cs),
(266,95,o),
(234,80,o),
(234,48,cs),
(234,32,o),
(244,18,o),
(258,12,cs),
(278,3,o),
(342,-15,o),
(398,-15,cs),
(535,-15,o),
(608,81,o),
(608,192,cs),
(608,317,o),
(505,372,o),
(365,402,c),
(381,364,l),
(535,624,ls),
(559,665,o),
(538,700,o),
(501,700,cs),
(295,700,ls),
(172,700,o),
(80,607,o),
(80,485,cs),
(80,32,ls),
(80,9,o),
(99,-9,o),
(121,-9,cs)
);
}
);
width = 643;
}
);
metricLeft = "=H";
metricRight = "=S-10";
unicode = 7838;
},
{
glyphname = T;
kernLeft = T;
kernRight = T;
lastChange = "2024-07-05 20:52:07 +0000";
layers = (
{
anchors = (
{
name = bottom;
pos = (304,0);
},
{
name = center;
pos = (304,350);
},
{
name = top;
pos = (304,700);
}
);
layerId = "6242D68C-0A25-4F05-8F2A-2075F7C4A210";
shapes = (
{
closed = 1;
nodes = (
(518,550,ls),
(561,550,o),
(593,582,o),
(593,625,cs),
(593,668,o),
(561,700,o),
(518,700,cs),
(90,700,ls),
(47,700,o),
(15,668,o),
(15,625,cs),
(15,582,o),
(47,550,o),
(90,550,cs)
);
},
{
closed = 1;
nodes = (
(349,-10,o),
(382,23,o),
(382,68,cs),
(382,623,l),
(226,623,l),
(226,68,ls),
(226,23,o),
(259,-10,o),
(304,-10,cs)
);
}
);
width = 608;
},
{
anchors = (
{
name = bottom;
pos = (248,0);
},
{
name = center;
pos = (248,385);
},
{
name = top;
pos = (248,680);
}
);
background = {
shapes = (
{
closed = 1;
nodes = (
(463,655,ls),
(476,655,o),
(486,664,o),
(486,677,cs),
(486,690,o),
(476,700,o),
(463,700,cs),
(33,700,ls),
(20,700,o),
(10,690,o),
(10,677,cs),
(10,664,o),
(20,655,o),
(33,655,cs)
);
}
);
};
layerId = "3D52442A-254C-4C79-B742-A98FD72DF947";
shapes = (
{
closed = 1;
nodes = (
(463,656,ls),
(477,656,o),
(486,664,o),
(486,677,cs),
(486,690,o),
(477,700,o),
(463,700,cs),
(33,700,ls),
(19,700,o),
(10,690,o),
(10,677,cs),
(10,664,o),
(19,656,o),
(33,656,cs)
);
},
{
closed = 1;
nodes = (
(261,-10,o),
(271,0,o),
(271,13,cs),
(271,677,l),
(225,677,l),
(225,13,ls),
(225,0,o),
(235,-10,o),
(248,-10,cs)
);
}
);
width = 496;
},
{
anchors = (
{
name = bottom;
pos = (268,0);
},
{
name = center;
pos = (268,375);
},
{
name = top;
pos = (268,690);
}
);
layerId = "DB110BCC-92E3-410E-8C20-9F3FFF600FD0";
shapes = (
{
closed = 1;
nodes = (
(483,623,ls),
(505,623,o),
(522,639,o),
(522,662,cs),
(522,684,o),
(505,700,o),
(483,700,cs),
(54,700,ls),
(32,700,o),
(15,684,o),
(15,662,cs),
(15,639,o),
(32,623,o),
(54,623,cs)
);
},
{
closed = 1;
nodes = (
(293,-10,o),
(310,8,o),
(310,31,cs),
(310,657,l),
(228,657,l),
(228,31,ls),
(228,8,o),
(245,-10,o),
(268,-10,cs)
);
}
);
width = 536.25;
}
);
unicode = 84;
},
{
glyphname = Tbar;
kernLeft = T;
kernRight = T;
lastChange = "2024-07-07 15:04:11 +0000";
layers = (
{
background = {
shapes = (
{
attr = {
lineCapEnd = "2";
lineCapStart = "2";
strokeHeight = 130;
strokeWidth = 130;
};
closed = 0;
nodes = (
(108,370,l),
(501,370,l)
);
}
);
};
layerId = "6242D68C-0A25-4F05-8F2A-2075F7C4A210";
shapes = (
{
ref = T;
},
{
pos = (46,-14);
ref = strokeshortcomb;
}
);
width = 608;
},
{
layerId = "3D52442A-254C-4C79-B742-A98FD72DF947";
shapes = (
{
ref = T;
},
{
pos = (35,20);
ref = strokeshortcomb;
}
);
width = 496;
},
{
layerId = "DB110BCC-92E3-410E-8C20-9F3FFF600FD0";
shapes = (
{
ref = T;
},
{
pos = (20,14);
ref = strokeshortcomb;
}
);
width = 536;
}
);
metricLeft = "=T";
metricRight = "=T";
unicode = 358;
},
{
glyphname = U;
kernLeft = U;
kernRight = U;
lastChange = "2024-06-17 18:15:40 +0000";
layers = (
{
anchors = (
{
name = bottom;
pos = (358,0);
},
{
name = ogonek;
pos = (405,0);
},
{
name = top;
pos = (358,700);
},
{
name = topright;
pos = (601,697);
}
);
layerId = "6242D68C-0A25-4F05-8F2A-2075F7C4A210";
shapes = (
{
closed = 1;
nodes = (
(516,-15,o),
(641,111,o),
(641,269,cs),
(641,632,ls),
(641,677,o),
(608,710,o),
(563,710,cs),
(518,710,o),
(485,677,o),
(485,632,cs),
(485,258,ls),
(485,184,o),
(432,130,o),
(358,130,cs),
(284,130,o),
(231,184,o),
(231,258,cs),
(231,632,ls),
(231,677,o),
(198,710,o),
(153,710,cs),
(108,710,o),
(75,677,o),
(75,632,cs),
(75,269,ls),
(75,111,o),
(200,-15,o),
(358,-15,cs)
);
}
);
width = 716;
},
{
anchors = (
{
name = bottom;
pos = (330,0);
},
{
name = ogonek;
pos = (386,0);
},
{
name = top;
pos = (333,680);
},
{
name = topright;
pos = (557,702);
}
);
layerId = "3D52442A-254C-4C79-B742-A98FD72DF947";
shapes = (
{
closed = 1;
nodes = (
(467,-15,o),
(580,90,o),
(580,234,cs),
(580,687,ls),
(580,700,o),
(570,710,o),
(557,710,cs),
(544,710,o),
(534,700,o),
(534,687,cs),
(534,234,ls),
(534,119,o),
(446,28,o),
(330,28,cs),
(214,28,o),
(126,119,o),
(126,234,cs),
(126,687,ls),
(126,700,o),
(116,710,o),
(103,710,cs),
(90,710,o),
(80,700,o),
(80,687,cs),
(80,234,ls),
(80,90,o),
(192,-15,o),
(330,-15,cs)
);
}
);
width = 660;
},
{
anchors = (
{
name = bottom;
pos = (329,0);
},
{
name = ogonek;
pos = (382,0);
},
{
name = top;
pos = (329,690);
},
{
name = topright;
pos = (540,706);
}
);
layerId = "DB110BCC-92E3-410E-8C20-9F3FFF600FD0";
shapes = (
{
closed = 1;
nodes = (
(475,-15,o),
(584,94,o),
(584,239,cs),
(584,669,ls),
(584,693,o),
(567,710,o),
(542,710,cs),
(519,710,o),
(501,693,o),
(501,669,cs),
(501,239,ls),
(501,139,o),
(429,62,o),
(329,62,cs),
(230,62,o),
(158,139,o),
(158,239,cs),
(158,669,ls),
(158,693,o),
(141,710,o),
(116,710,cs),
(93,710,o),
(75,693,o),
(75,669,cs),
(75,239,ls),
(75,94,o),
(184,-15,o),
(329,-15,cs)
);
}
);
width = 658.25;
}
);
unicode = 85;
},
{
glyphname = Uhorn;
kernLeft = U;
kernRight = Uhorn;
lastChange = "2024-07-07 15:05:01 +0000";
layers = (
{
anchors = (
{
name = bottom;
pos = (358,0);
},
{
name = ogonek;
pos = (405,0);
},
{
name = top;
pos = (366,700);
},
{
name = topright;
pos = (563,702);
}
);
background = {
shapes = (
{
closed = 1;
nodes = (
(638,592,l),
(710,595,o),
(774,634,o),
(774,770,cs),
(774,807,o),
(748,838,o),
(707,838,cs),
(669,838,o),
(644,809,o),
(644,775,cs),
(644,713,o),
(633,710,o),
(562,710,c),
(562,592,l)
);
}
);
};
layerId = "6242D68C-0A25-4F05-8F2A-2075F7C4A210";
shapes = (
{
closed = 1;
nodes = (
(516,-15,o),
(641,111,o),
(641,269,cs),
(641,608,l),
(719,631,o),
(767,678,o),
(767,740,cs),
(767,777,o),
(741,808,o),
(700,808,cs),
(662,808,o),
(637,779,o),
(637,745,cs),
(637,719,o),
(618,710,o),
(563,710,cs),
(518,710,o),
(485,677,o),
(485,632,cs),
(485,258,ls),
(485,184,o),
(432,130,o),
(358,130,cs),
(284,130,o),
(231,184,o),
(231,258,cs),
(231,632,ls),
(231,677,o),
(198,710,o),
(153,710,cs),
(108,710,o),
(75,677,o),
(75,632,cs),
(75,269,ls),
(75,111,o),
(200,-15,o),
(358,-15,cs)
);
}
);
width = 716;
},
{
anchors = (
{
name = bottom;
pos = (330,0);
},
{
name = ogonek;
pos = (386,0);
},
{
name = top;
pos = (330,700);
},
{
name = topright;
pos = (557,702);
}
);
layerId = "3D52442A-254C-4C79-B742-A98FD72DF947";
shapes = (
{
closed = 1;
nodes = (
(467,-15,o),
(580,90,o),
(580,234,cs),
(580,674,l),
(667,687,o),
(686,726,o),
(686,780,cs),
(686,794,o),
(678,805,o),
(664,805,cs),
(652,805,o),
(642,794,o),
(642,780,cs),
(642,738,o),
(615,710,o),
(557,710,cs),
(544,710,o),
(534,700,o),
(534,687,cs),
(534,234,ls),
(534,119,o),
(446,28,o),
(330,28,cs),
(214,28,o),
(126,119,o),
(126,234,cs),
(126,687,ls),
(126,700,o),
(116,710,o),
(103,710,cs),
(90,710,o),
(80,700,o),
(80,687,cs),
(80,234,ls),
(80,90,o),
(192,-15,o),
(330,-15,cs)
);
}
);
width = 660;
},
{
anchors = (
{
name = bottom;
pos = (329,0);
},
{
name = ogonek;
pos = (382,0);
},
{
name = top;
pos = (337,700);
},
{
name = topright;
pos = (542,702);
}
);
layerId = "DB110BCC-92E3-410E-8C20-9F3FFF600FD0";
shapes = (
{
closed = 1;
nodes = (
(475,-15,o),
(584,94,o),
(584,239,cs),
(584,651,l),
(675,665,o),
(698,714,o),
(698,761,cs),
(698,789,o),
(685,807,o),
(663,807,cs),
(641,807,o),
(627,790,o),
(627,768,cs),
(627,738,o),
(610,710,o),
(542,710,cs),
(519,710,o),
(501,693,o),
(501,669,cs),
(501,239,ls),
(501,139,o),
(429,62,o),
(329,62,cs),
(230,62,o),
(158,139,o),
(158,239,cs),
(158,669,ls),
(158,693,o),
(141,710,o),
(116,710,cs),
(93,710,o),
(75,693,o),
(75,669,cs),
(75,239,ls),
(75,94,o),
(184,-15,o),
(329,-15,cs)
);
}
);
width = 658;
}
);
metricLeft = "=U";
unicode = 431;
},
{
glyphname = V;
kernLeft = V;
kernRight = V;
lastChange = "2024-06-17 18:15:40 +0000";
layers = (
{
anchors = (
{
name = bottom;
pos = (313,0);
},
{
name = top;
pos = (313,700);
}
);
background = {
shapes = (
{
attr = {
lineCapEnd = "1";
lineCapStart = "1";
strokeWidth = 155;
};
closed = 0;
nodes = (
(77,709,l),
(312,26,l),
(550,709,l)
);
}
);
};
layerId = "6242D68C-0A25-4F05-8F2A-2075F7C4A210";
shapes = (
{
closed = 1;
nodes = (
(355,-15,o),
(378,23,o),
(393,63,cs),
(601,607,ls),
(618,650,o),
(591,710,o),
(527,710,cs),
(491,710,o),
(463,688,o),
(453,658,cs),
(286,167,l),
(339,167,l),
(173,658,ls),
(163,688,o),
(135,710,o),
(99,710,cs),
(35,710,o),
(9,650,o),
(25,607,cs),
(232,63,ls),
(247,23,o),
(269,-15,o),
(312,-15,cs)
);
}
);
width = 626;
},
{
anchors = (
{
name = bottom;
pos = (265,0);
},
{
name = top;
pos = (265,680);
}
);
background = {
shapes = (
{
attr = {
strokeWidth = 2;
};
closed = 0;
nodes = (
(44,669,l),
(269,15,l),
(497,669,l)
);
}
);
};
layerId = "3D52442A-254C-4C79-B742-A98FD72DF947";
shapes = (
{
closed = 1;
nodes = (
(275,-15,o),
(284,-8,o),
(287,0,cs),
(513,679,ls),
(518,695,o),
(507,710,o),
(491,710,cs),
(481,710,o),
(472,704,o),
(469,695,cs),
(260,55,l),
(270,55,l),
(60,695,ls),
(57,704,o),
(48,710,o),
(38,710,cs),
(21,710,o),
(11,695,o),
(16,679,cs),
(243,0,ls),
(246,-8,o),
(255,-15,o),
(265,-15,cs)
);
}
);
width = 529;
},
{
anchors = (
{
name = bottom;
pos = (287,0);
},
{
name = top;
pos = (287,690);
}
);
layerId = "DB110BCC-92E3-410E-8C20-9F3FFF600FD0";
shapes = (
{
closed = 1;
nodes = (
(306,-15,o),
(323,1,o),
(332,28,cs),
(551,657,ls),
(559,681,o),
(542,710,o),
(512,710,cs),
(495,710,o),
(479,699,o),
(474,683,cs),
(272,89,l),
(300,89,l),
(98,683,ls),
(93,699,o),
(78,710,o),
(61,710,cs),
(29,710,o),
(14,680,o),
(22,657,cs),
(240,28,ls),
(250,1,o),
(266,-15,o),
(286,-15,cs)
);
}
);
width = 573;
}
);
metricLeft = A;
metricRight = A;
unicode = 86;
},
{
glyphname = W;
kernLeft = W;
kernRight = W;
lastChange = "2024-06-17 18:15:40 +0000";
layers = (
{
anchors = (
{
name = bottom;
pos = (415,0);
},
{
name = top;
pos = (415,700);
}
);
background = {
shapes = (
{
closed = 1;
nodes = (
(288,-15,o),
(311,23,o),
(326,63,cs),
(534,607,ls),
(551,650,o),
(524,710,o),
(460,710,cs),
(424,710,o),
(396,688,o),
(386,658,cs),
(219,167,l),
(272,167,l),
(106,658,ls),
(96,688,o),
(68,710,o),
(32,710,cs),
(-32,710,o),
(-58,650,o),
(-42,607,cs),
(165,63,ls),
(180,23,o),
(202,-15,o),
(245,-15,cs)
);
}
);
};
layerId = "6242D68C-0A25-4F05-8F2A-2075F7C4A210";
shapes = (
{
closed = 1;
nodes = (
(288,-10,o),
(315,28,o),
(326,68,cs),
(427,443,l),
(403,443,l),
(504,68,ls),
(515,28,o),
(542,-10,o),
(585,-10,cs),
(628,-10,o),
(655,28,o),
(665,68,cs),
(805,607,ls),
(807,615,o),
(810,626,o),
(810,635,cs),
(810,677,o),
(776,710,o),
(731,710,cs),
(692,710,o),
(660,688,o),
(654,658,cs),
(553,171,l),
(603,173,l),
(489,656,ls),
(482,687,o),
(451,710,o),
(415,710,cs),
(379,710,o),
(348,687,o),
(341,656,cs),
(227,173,l),
(277,171,l),
(176,658,ls),
(170,688,o),
(138,710,o),
(99,710,cs),
(54,710,o),
(20,677,o),
(20,635,cs),
(20,626,o),
(23,615,o),
(25,607,cs),
(165,68,ls),
(175,28,o),
(202,-10,o),
(245,-10,cs)
);
}
);
width = 830;
},
{
anchors = (
{
name = bottom;
pos = (418,0);
},
{
name = top;
pos = (418,680);
}
);
background = {
shapes = (
{
attr = {
strokeWidth = 2;
};
closed = 0;
nodes = (
(30,702,l),
(239,0,l),
(419,701,l)
);
},
{
attr = {
strokeWidth = 2;
};
closed = 0;
nodes = (
(419,700,l),
(620,0,l),
(801,700,l)
);
},
{
closed = 1;
nodes = (
(237,86,l),
(58,688,ls),
(55,698,o),
(47,705,o),
(36,705,cs),
(21,705,o),
(10,691,o),
(14,676,cs),
(241,-86,l),
(436,676,ls),
(440,690,o),
(429,704,o),
(414,704,cs),
(403,704,o),
(394,696,o),
(391,686,cs)
);
},
{
closed = 1;
nodes = (
(619,87,l),
(447,686,ls),
(444,696,o),
(435,703,o),
(425,703,cs),
(410,703,o),
(399,689,o),
(402,674,c),
(621,-87,l),
(818,675,ls),
(822,689,o),
(811,703,o),
(796,703,cs),
(785,703,o),
(776,695,o),
(773,685,cs)
);
}
);
};
layerId = "3D52442A-254C-4C79-B742-A98FD72DF947";
shapes = (
{
closed = 1;
nodes = (
(248,-10,o),
(258,-3,o),
(260,5,cs),
(423,625,l),
(413,625,l),
(576,5,ls),
(578,-3,o),
(588,-10,o),
(598,-10,cs),
(608,-10,o),
(618,-3,o),
(620,5,cs),
(820,679,ls),
(822,685,o),
(822,691,o),
(820,696,cs),
(817,704,o),
(809,710,o),
(798,710,cs),
(788,710,o),
(779,704,o),
(776,695,cs),
(592,59,l),
(605,58,l),
(440,695,ls),
(438,704,o),
(429,710,o),
(418,710,cs),
(407,710,o),
(398,704,o),
(396,695,cs),
(231,57,l),
(244,59,l),
(60,695,ls),
(57,704,o),
(48,710,o),
(38,710,cs),
(27,710,o),
(19,704,o),
(16,696,cs),
(14,691,o),
(14,685,o),
(16,679,cs),
(216,5,ls),
(218,-3,o),
(228,-10,o),
(238,-10,cs)
);
}
);
width = 836;
},
{
anchors = (
{
name = bottom;
pos = (414,0);
},
{
name = top;
pos = (414,690);
}
);
layerId = "DB110BCC-92E3-410E-8C20-9F3FFF600FD0";
shapes = (
{
closed = 1;
nodes = (
(246,-13,o),
(265,3,o),
(273,29,cs),
(422,562,l),
(403,562,l),
(555,29,ls),
(563,3,o),
(581,-13,o),
(601,-13,cs),
(621,-13,o),
(641,3,o),
(647,29,cs),
(805,660,ls),
(807,665,o),
(808,671,o),
(807,676,cs),
(807,697,o),
(788,714,o),
(767,714,cs),
(749,714,o),
(732,702,o),
(729,687,cs),
(587,104,l),
(609,105,l),
(453,680,ls),
(448,700,o),
(431,714,o),
(413,714,cs),
(395,714,o),
(378,700,o),
(373,680,cs),
(217,105,l),
(239,104,l),
(98,687,ls),
(95,702,o),
(78,714,o),
(61,714,cs),
(39,714,o),
(20,697,o),
(20,676,cs),
(19,671,o),
(20,665,o),
(22,660,cs),
(180,29,ls),
(186,3,o),
(207,-13,o),
(226,-13,cs)
);
}
);
width = 827;
}
);
metricLeft = A;
metricRight = A;
unicode = 87;
},
{
glyphname = X;
kernLeft = X;
kernRight = X;
lastChange = "2024-06-17 18:15:40 +0000";
layers = (
{
anchors = (
{
name = bottom;
pos = (310,0);
},
{
name = top;
pos = (310,700);
}
);
background = {
shapes = (
{
attr = {
strokeWidth = 2;
};
closed = 0;
nodes = (
(102,640,l),
(510,60,l)
);
},
{
attr = {
strokeWidth = 2;
};
closed = 0;
nodes = (
(509,642,l),
(317,366,l)
);
},
{
attr = {
strokeWidth = 2;
};
closed = 0;
nodes = (
(307,366,l),
(95,60,l)
);
}
);
};
guides = (
{
pos = (292,357);
}
);
layerId = "6242D68C-0A25-4F05-8F2A-2075F7C4A210";
shapes = (
{
closed = 1;
nodes = (
(551,-10,o),
(586,25,o),
(586,68,cs),
(586,85,o),
(580,102,o),
(571,115,cs),
(180,678,ls),
(166,698,o),
(142,711,o),
(116,711,cs),
(73,711,o),
(38,676,o),
(38,633,cs),
(38,616,o),
(43,601,o),
(52,588,cs),
(445,21,ls),
(458,2,o),
(482,-10,o),
(508,-10,cs)
);
},
{
closed = 1;
nodes = (
(580,585,ls),
(590,598,o),
(595,615,o),
(595,632,cs),
(595,675,o),
(560,710,o),
(517,710,cs),
(491,710,o),
(468,698,o),
(454,679,cs),
(227,372,l),
(337,263,l)
);
},
{
closed = 1;
nodes = (
(129,-10,o),
(153,2,o),
(167,23,cs),
(350,286,l),
(237,392,l),
(39,113,ls),
(30,100,o),
(25,85,o),
(25,68,cs),
(25,25,o),
(60,-10,o),
(103,-10,cs)
);
}
);
width = 620;
},
{
anchors = (
{
name = bottom;
pos = (280,0);
},
{
name = top;
pos = (280,680);
}
);
layerId = "3D52442A-254C-4C79-B742-A98FD72DF947";
shapes = (
{
closed = 1;
nodes = (
(520,-10,o),
(530,0,o),
(530,13,cs),
(530,18,o),
(528,23,o),
(526,26,cs),
(85,701,ls,{
name = "💚";
}),
(81,707,o),
(74,710,o),
(66,710,cs),
(53,710,o),
(43,700,o),
(43,687,cs),
(43,682,o),
(45,677,o),
(47,674,cs),
(488,-1,ls,{
name = "💚";
}),
(492,-7,o),
(499,-10,o),
(507,-10,cs)
);
},
{
closed = 1;
nodes = (
(513,674,ls,{
name = "💚";
}),
(515,677,o),
(517,682,o),
(517,687,cs),
(517,700,o),
(507,710,o),
(494,710,cs),
(486,710,o),
(479,706,o),
(475,700,cs),
(266,368,l),
(304,342,l)
);
},
{
closed = 1;
nodes = (
(61,-10,o),
(68,-6,o),
(72,0,cs),
(296,339,l),
(263,372,l),
(34,26,ls,{
name = "💚";
}),
(32,23,o),
(30,18,o),
(30,13,cs),
(30,0,o),
(40,-10,o),
(53,-10,cs)
);
}
);
width = 560;
},
{
anchors = (
{
name = bottom;
pos = (295,0);
},
{
name = top;
pos = (295,690);
}
);
layerId = "DB110BCC-92E3-410E-8C20-9F3FFF600FD0";
shapes = (
{
closed = 1;
nodes = (
(548,-10,o),
(565,8,o),
(565,31,cs),
(565,39,o),
(562,47,o),
(558,53,cs),
(116,693,ls,{
name = "💚";
}),
(109,703,o),
(97,710,o),
(83,710,cs),
(61,710,o),
(44,692,o),
(44,670,cs),
(44,662,o),
(47,654,o),
(51,647,cs),
(493,7,ls,{
name = "💚";
}),
(500,-3,o),
(512,-10,o),
(525,-10,cs)
);
},
{
closed = 1;
nodes = (
(554,648,ls,{
name = "💚";
}),
(558,654,o),
(561,662,o),
(561,670,cs),
(561,693,o),
(544,710,o),
(521,710,cs),
(508,710,o),
(496,704,o),
(489,694,cs),
(272,382,l),
(325,320,l)
);
},
{
closed = 1;
nodes = (
(78,-10,o),
(91,-3,o),
(98,8,cs),
(316,322,l),
(264,386,l),
(32,53,ls,{
name = "💚";
}),
(28,47,o),
(25,39,o),
(25,31,cs),
(25,8,o),
(43,-10,o),
(65,-10,cs)
);
}
);
width = 590;
}
);
unicode = 88;
},
{
glyphname = Y;
kernLeft = Y;
kernRight = Y;
lastChange = "2024-07-07 14:45:33 +0000";
layers = (
{
anchors = (
{
name = bottom;
pos = (280,0);
},
{
name = top;
pos = (287,700);
},
{
name = topleft;
pos = (20,700);
}
);
background = {
shapes = (
{
attr = {
strokeWidth = 2;
};
closed = 0;
nodes = (
(495,640,l),
(280,351,l),
(78,640,l)
);
},
{
attr = {
strokeWidth = 2;
};
closed = 0;
nodes = (
(280,359,l),
(280,60,l)
);
}
);
};
layerId = "6242D68C-0A25-4F05-8F2A-2075F7C4A210";
shapes = (
{
closed = 1;
nodes = (
(323,-10,o),
(358,25,o),
(358,68,cs),
(358,317,l),
(548,585,ls),
(557,598,o),
(563,615,o),
(563,632,cs),
(563,675,o),
(528,710,o),
(485,710,cs),
(459,710,o),
(436,698,o),
(422,679,cs),
(242,422,l),
(321,421,l),
(152,677,ls),
(139,697,o),
(114,710,o),
(88,710,cs),
(45,710,o),
(10,675,o),
(10,632,cs),
(10,615,o),
(15,600,o),
(24,587,cs),
(202,319,l),
(202,68,ls),
(202,25,o),
(237,-10,o),
(280,-10,cs)
);
}
);
width = 573;
},
{
anchors = (
{
name = bottom;
pos = (250,0);
},
{
name = top;
pos = (258,680);
},
{
name = topleft;
pos = (5,700);
}
);
background = {
shapes = (
{
attr = {
strokeWidth = 2;
};
closed = 0;
nodes = (
(510,700,l),
(250,351,l),
(6,700,l)
);
},
{
attr = {
strokeWidth = 2;
};
closed = 0;
nodes = (
(250,361,l),
(250,0,l)
);
}
);
};
layerId = "3D52442A-254C-4C79-B742-A98FD72DF947";
shapes = (
{
closed = 1;
nodes = (
(263,-10,o),
(273,0,o),
(273,13,cs),
(273,344,l),
(506,669,ls),
(509,673,o),
(511,678,o),
(511,683,cs),
(511,696,o),
(500,706,o),
(488,706,cs),
(480,706,o),
(473,703,o),
(469,697,cs),
(239,368,l),
(263,367,l),
(47,698,ls),
(43,704,o),
(36,708,o),
(28,708,cs),
(15,708,o),
(5,698,o),
(5,685,cs),
(5,680,o),
(7,675,o),
(9,672,cs,{
name = "💚";
}),
(227,344,l),
(227,13,ls),
(227,0,o),
(237,-10,o),
(250,-10,cs)
);
}
);
width = 516;
},
{
anchors = (
{
name = bottom;
pos = (262,0);
},
{
name = top;
pos = (257,690);
},
{
name = topleft;
pos = (20,700);
}
);
layerId = "DB110BCC-92E3-410E-8C20-9F3FFF600FD0";
shapes = (
{
closed = 1;
nodes = (
(285,-10,o),
(303,8,o),
(303,31,cs),
(303,339,l),
(520,645,ls),
(525,651,o),
(528,659,o),
(528,668,cs),
(528,691,o),
(511,708,o),
(489,708,cs),
(475,708,o),
(464,702,o),
(457,692,cs),
(238,385,l),
(287,384,l),
(83,692,ls),
(76,702,o),
(63,709,o),
(50,709,cs),
(28,709,o),
(10,691,o),
(10,669,cs),
(10,661,o),
(13,652,o),
(17,646,cs,{
name = "💚";
}),
(221,340,l),
(221,31,ls),
(221,8,o),
(239,-10,o),
(262,-10,cs)
);
}
);
width = 538;
}
);
unicode = 89;
},
{
glyphname = Z;
kernLeft = Z;
kernRight = Z;
lastChange = "2024-06-17 18:15:40 +0000";
layers = (
{
anchors = (
{
name = bottom;
pos = (300,0);
},
{
name = center;
pos = (300,350);
},
{
name = top;
pos = (300,700);
}
);
background = {
shapes = (
{
attr = {
strokeWidth = 2;
};
closed = 0;
nodes = (
(124,640,l),
(485,640,l),
(110,61,l),
(485,61,l)
);
},
{
closed = 1;
nodes = (
(509,0,ls),
(550,0,o),
(584,34,o),
(584,75,cs),
(584,116,o),
(550,150,o),
(509,150,cs),
(190,150,l),
(229,93,l),
(539,561,ls),
(571,609,o),
(575,622,o),
(575,641,cs),
(575,681,o),
(547,700,o),
(500,700,cs),
(111,700,ls),
(70,700,o),
(36,666,o),
(36,625,cs),
(36,584,o),
(70,550,o),
(111,550,cs),
(424,550,l),
(392,607,l),
(71,139,ls),
(38,91,o),
(35,78,o),
(35,59,cs),
(35,19,o),
(63,0,o),
(114,0,cs)
);
}
);
};
layerId = "6242D68C-0A25-4F05-8F2A-2075F7C4A210";
shapes = (
{
closed = 1;
nodes = (
(505,0,ls),
(544,0,o),
(575,31,o),
(575,70,cs),
(575,109,o),
(544,140,o),
(505,140,cs),
(190,140,l),
(222,93,l),
(539,561,ls),
(565,600,o),
(575,619,o),
(575,636,cs),
(575,673,o),
(546,700,o),
(505,700,cs),
(110,700,ls),
(71,700,o),
(40,669,o),
(40,630,cs),
(40,591,o),
(71,560,o),
(110,560,cs),
(505,560,l),
(392,607,l),
(71,139,ls),
(38,91,o),
(35,86,o),
(35,66,cs),
(35,31,o),
(66,0,o),
(105,0,cs)
);
}
);
width = 600;
},
{
anchors = (
{
name = bottom;
pos = (267,0);
},
{
name = center;
pos = (267,350);
},
{
name = top;
pos = (269,680);
}
);
background = {
shapes = (
{
attr = {
strokeWidth = 2;
};
closed = 0;
nodes = (
(64,699,l),
(487,699,l),
(47,19,l),
(487,19,l)
);
}
);
};
layerId = "3D52442A-254C-4C79-B742-A98FD72DF947";
shapes = (
{
closed = 1;
nodes = (
(472,0,ls),
(485,0,o),
(495,10,o),
(495,23,cs),
(495,35,o),
(485,45,o),
(472,45,cs),
(83,45,l),
(92,29,l),
(495,662,ls),
(498,667,o),
(499,673,o),
(499,677,cs),
(499,690,o),
(488,700,o),
(473,700,cs),
(94,700,ls),
(81,700,o),
(71,690,o),
(71,677,cs),
(71,665,o),
(81,655,o),
(94,655,cs),
(456,655,l),
(445,671,l),
(44,38,ls),
(41,33,o),
(40,27,o),
(40,23,cs),
(40,10,o),
(51,0,o),
(65,0,cs)
);
}
);
width = 529;
},
{
anchors = (
{
name = bottom;
pos = (278,0);
},
{
name = center;
pos = (278,350);
},
{
name = top;
pos = (278,690);
}
);
layerId = "DB110BCC-92E3-410E-8C20-9F3FFF600FD0";
shapes = (
{
closed = 1;
nodes = (
(485,0,ls),
(505,0,o),
(522,18,o),
(522,38,cs),
(522,59,o),
(505,76,o),
(485,76,cs),
(89,76,l),
(122,44,l),
(501,620,ls),
(513,638,o),
(519,652,o),
(519,663,cs),
(519,684,o),
(502,700,o),
(480,700,cs),
(86,700,ls),
(65,700,o),
(48,684,o),
(48,663,cs),
(48,642,o),
(65,625,o),
(86,625,cs),
(476,625,l),
(429,656,l),
(52,81,ls),
(39,62,o),
(35,49,o),
(35,37,cs),
(35,18,o),
(53,0,o),
(73,0,cs)
);
}
);
width = 555.625;
}
);
unicode = 90;
},
{
glyphname = a;
kernLeft = o;
kernRight = n;
lastChange = "2024-07-07 15:14:57 +0000";
layers = (
{
anchors = (
{
name = bottom;
pos = (300,0);
},
{
name = ogonek;
pos = (450,0);
},
{
name = top;
pos = (287,515);
}
);
background = {
shapes = (
{
closed = 1;
nodes = (
(312,-15,o),
(376,8,o),
(405,69,c),
(408,69,l),
(408,67,ls,{
name = "💚";
}),
(408,14,o),
(439,-9,o),
(485,-10,cs),
(539,-11,o),
(570,21,o),
(570,61,cs),
(570,97,o),
(545,117,o),
(522,126,cs),
(509,131,o),
(506,135,o),
(506,152,cs),
(506,333,ls),
(506,456,o),
(425,529,o),
(301,529,cs),
(207,529,o),
(78,488,o),
(78,405,cs),
(78,364,o),
(110,341,o),
(147,341,cs),
(175,341,o),
(200,349,o),
(214,366,cs),
(225,380,o),
(247,402,o),
(289,402,cs),
(316,402,o),
(358,394,o),
(358,366,cs),
(358,333,o),
(324,327,o),
(243,316,cs),
(95,296,o),
(37,233,o),
(37,148,cs),
(37,36,o),
(137,-15,o),
(244,-15,cs)
);
}
);
};
layerId = "6242D68C-0A25-4F05-8F2A-2075F7C4A210";
shapes = (
{
closed = 1;
nodes = (
(301,-15,o),
(342,13,o),
(379,69,c),
(382,69,l),
(383,65,ls,{
name = "💚";
}),
(394,21,o),
(425,-9,o),
(485,-10,cs),
(539,-11,o),
(570,21,o),
(570,61,cs),
(570,97,o),
(545,117,o),
(522,126,cs),
(509,131,o),
(506,135,o),
(506,152,cs),
(506,333,ls),
(506,451,o),
(427,529,o),
(291,529,cs),
(175,529,o),
(78,472,o),
(78,401,cs),
(78,363,o),
(105,341,o),
(147,341,cs),
(177,341,o),
(202,354,o),
(221,373,cs),
(241,393,o),
(263,406,o),
(296,406,cs),
(334,406,o),
(357,392,o),
(357,364,cs),
(357,328,o),
(303,325,o),
(243,316,cs),
(99,293,o),
(40,243,o),
(40,141,cs),
(40,35,o),
(131,-15,o),
(217,-15,cs)
);
},
{
closed = 1;
nodes = (
(213,111,o),
(191,125,o),
(191,156,cs),
(191,178,o),
(202,197,o),
(259,210,cs),
(298,219,o),
(327,219,o),
(350,232,cs),
(355,235,o),
(357,235,o),
(357,231,cs),
(357,206,ls),
(357,145,o),
(309,111,o),
(256,111,cs)
);
}
);
width = 590;
},
{
anchors = (
{
name = bottom;
pos = (263,0);
},
{
name = ogonek;
pos = (410,0);
},
{
name = top;
pos = (253,515);
}
);
layerId = "3D52442A-254C-4C79-B742-A98FD72DF947";
shapes = (
{
closed = 1;
nodes = (
(304,-15,o),
(360,13,o),
(398,78,c),
(401,78,l),
(401,40,ls),
(401,13,o),
(410,-10,o),
(449,-10,cs),
(474,-10,o),
(486,-1,o),
(486,14,cs),
(486,28,o),
(476,36,o),
(462,36,cs),
(447,36,o),
(444,43,o),
(444,63,cs),
(444,350,ls),
(444,464,o),
(390,530,o),
(268,530,cs),
(128,530,o),
(85,444,o),
(81,410,cs),
(79,393,o),
(86,384,o),
(100,384,cs),
(113,384,o),
(121,392,o),
(126,407,cs),
(139,446,o),
(174,487,o),
(263,487,cs),
(363,487,o),
(395,435,o),
(395,384,cs),
(395,323,o),
(347,295,o),
(238,288,cs),
(97,279,o),
(45,215,o),
(45,134,cs),
(45,48,o),
(104,-15,o),
(223,-15,cs)
);
},
{
closed = 1;
nodes = (
(127,28,o),
(91,76,o),
(91,134,cs),
(91,193,o),
(128,239,o),
(236,247,cs),
(302,252,o),
(354,264,o),
(391,289,cs),
(397,293,o),
(399,294,o),
(399,291,cs),
(399,197,ls),
(399,102,o),
(328,28,o),
(217,28,cs)
);
}
);
width = 521;
},
{
anchors = (
{
name = bottom;
pos = (268,0);
},
{
name = ogonek;
pos = (431,0);
},
{
name = top;
pos = (268,515);
}
);
layerId = "DB110BCC-92E3-410E-8C20-9F3FFF600FD0";
shapes = (
{
closed = 1;
nodes = (
(300,-15,o),
(353,19,o),
(386,68,c),
(389,68,l),
(389,51,ls),
(389,16,o),
(412,-10,o),
(452,-10,cs),
(484,-10,o),
(503,8,o),
(503,31,cs),
(503,52,o),
(487,68,o),
(469,69,cs),
(459,70,o),
(457,76,o),
(457,90,cs),
(457,339,ls),
(457,445,o),
(411,530,o),
(276,530,cs),
(151,530,o),
(79,455,o),
(79,405,cs),
(79,384,o),
(91,368,o),
(114,368,cs),
(133,368,o),
(146,378,o),
(155,395,cs),
(168,421,o),
(199,456,o),
(269,456,cs),
(346,456,o),
(376,415,o),
(376,374,cs),
(376,319,o),
(321,311,o),
(236,302,cs),
(98,286,o),
(40,221,o),
(40,139,cs),
(40,52,o),
(107,-15,o),
(220,-15,cs)
);
},
{
closed = 1;
nodes = (
(147,59,o),
(120,103,o),
(120,143,cs),
(120,196,o),
(168,220,o),
(237,231,cs),
(271,237,o),
(341,244,o),
(372,267,cs),
(376,272,o),
(378,270,o),
(378,268,cs),
(378,200,ls),
(378,122,o),
(311,59,o),
(221,59,cs)
);
}
);
width = 530;
}
);
metricLeft = o;
unicode = 97;
},
{
glyphname = a.ss01;
kernLeft = a.ss01;
kernRight = a.ss01;
lastChange = "2024-06-17 18:15:40 +0000";
layers = (
{
anchors = (
{
name = bottom;
pos = (323,0);
},
{
name = ogonek;
pos = (498,0);
},
{
name = top;
pos = (323,515);
}
);
background = {
shapes = (
{
closed = 1;
nodes = (
(337,-15,o),
(399,23,o),
(419,89,c),
(424,89,l),
(424,87,ls),
(424,21,o),
(457,-10,o),
(527,-10,cs),
(583,-10,o),
(615,13,o),
(615,53,cs),
(615,82,o),
(600,110,o),
(570,110,cs),
(553,110,o),
(550,133,o),
(550,177,cs),
(550,445,ls),
(550,488,o),
(519,520,o),
(476,520,cs),
(436,520,o),
(402,499,o),
(402,451,cs),
(402,442,l),
(422,442,l),
(386,500,o),
(334,530,o),
(263,530,cs),
(108,530,o),
(31,387,o),
(31,248,cs),
(31,114,o),
(89,-15,o),
(251,-15,cs)
);
},
{
closed = 1;
nodes = (
(225,122,o),
(186,166,o),
(186,256,cs),
(186,346,o),
(225,390,o),
(294,390,cs),
(360,390,o),
(401,348,o),
(401,259,cs),
(401,164,o),
(360,122,o),
(294,122,cs)
);
}
);
};
guides = (
{
angle = 90;
pos = (401,-32);
}
);
layerId = "6242D68C-0A25-4F05-8F2A-2075F7C4A210";
shapes = (
{
closed = 1;
nodes = (
(346,-15,o),
(400,24,o),
(419,91,c),
(424,91,l),
(424,89,ls),
(424,22,o),
(457,-10,o),
(527,-10,cs),
(583,-10,o),
(615,13,o),
(615,53,cs),
(615,82,o),
(600,110,o),
(570,110,cs),
(553,110,o),
(550,133,o),
(550,177,cs),
(550,445,ls),
(550,488,o),
(519,520,o),
(476,520,cs),
(436,520,o),
(402,499,o),
(402,451,cs),
(402,433,l),
(422,433,l),
(391,494,o),
(341,530,o),
(272,530,cs),
(117,530,o),
(40,387,o),
(40,248,cs),
(40,114,o),
(98,-15,o),
(260,-15,cs)
);
},
{
closed = 1;
nodes = (
(234,123,o),
(195,167,o),
(195,257,cs),
(195,347,o),
(234,391,o),
(303,391,cs),
(369,391,o),
(410,349,o),
(410,260,cs),
(410,165,o),
(369,123,o),
(303,123,cs)
);
}
);
width = 635;
},
{
anchors = (
{
name = bottom;
pos = (274,0);
},
{
name = ogonek;
pos = (438,0);
},
{
name = top;
pos = (274,515);
}
);
background = {
shapes = (
{
closed = 1;
nodes = (
(328,-15,o),
(383,18,o),
(420,73,c),
(422,73,l),
(422,42,ls),
(422,16,o),
(431,-8,o),
(469,-8,cs),
(495,-8,o),
(507,1,o),
(507,16,cs),
(507,30,o),
(497,38,o),
(483,38,cs),
(468,38,o),
(465,45,o),
(465,65,cs),
(465,493,ls),
(465,509,o),
(456,520,o),
(443,520,cs),
(430,520,o),
(420,509,o),
(420,493,cs),
(420,420,l),
(422,433,l),
(395,488,o),
(325,530,o),
(258,530,cs),
(129,530,o),
(42,408,o),
(42,258,cs),
(42,107,o),
(112,-15,o),
(254,-15,cs)
);
},
{
closed = 1;
nodes = (
(148,29,o),
(87,113,o),
(87,258,cs),
(87,401,o),
(166,487,o),
(261,487,cs),
(351,487,o),
(420,394,o),
(420,258,cs),
(420,113,o),
(356,31,o),
(252,30,cs)
);
}
);
};
guides = (
{
angle = 90;
pos = (420,-190);
}
);
layerId = "3D52442A-254C-4C79-B742-A98FD72DF947";
shapes = (
{
closed = 1;
nodes = (
(331,-15,o),
(384,23,o),
(420,87,c),
(422,87,l),
(422,42,ls),
(422,16,o),
(431,-8,o),
(469,-8,cs),
(495,-8,o),
(507,1,o),
(507,16,cs),
(507,30,o),
(497,38,o),
(483,38,cs),
(468,38,o),
(465,45,o),
(465,65,cs),
(465,493,ls),
(465,509,o),
(456,520,o),
(443,520,cs),
(430,520,o),
(420,509,o),
(420,493,cs),
(420,407,l),
(434,409,l),
(406,475,o),
(346,530,o),
(257,530,cs),
(130,530,o),
(45,408,o),
(45,258,cs),
(45,107,o),
(115,-15,o),
(257,-15,cs)
);
},
{
closed = 1;
nodes = (
(151,29,o),
(90,113,o),
(90,258,cs),
(90,401,o),
(167,487,o),
(258,487,cs),
(355,487,o),
(423,394,o),
(423,258,cs),
(423,113,o),
(359,31,o),
(255,30,cs)
);
}
);
width = 542;
},
{
anchors = (
{
name = bottom;
pos = (285,0);
},
{
name = ogonek;
pos = (461,0);
},
{
name = top;
pos = (285,515);
}
);
layerId = "DB110BCC-92E3-410E-8C20-9F3FFF600FD0";
shapes = (
{
closed = 1;
nodes = (
(327,-15,o),
(379,15,o),
(420,80,c),
(424,80,l),
(424,53,ls),
(424,14,o),
(443,-6,o),
(485,-6,cs),
(518,-6,o),
(536,10,o),
(536,33,cs),
(536,53,o),
(523,69,o),
(504,69,cs),
(494,69,o),
(493,76,o),
(493,103,cs),
(493,479,ls),
(493,503,o),
(476,520,o),
(453,520,cs),
(431,520,o),
(413,504,o),
(413,480,cs),
(413,424,l),
(424,427,l),
(396,486,o),
(340,530,o),
(264,530,cs),
(122,530,o),
(40,399,o),
(40,250,cs),
(40,78,o),
(131,-15,o),
(263,-15,cs)
);
},
{
closed = 1;
nodes = (
(176,60,o),
(120,127,o),
(120,251,cs),
(120,377,o),
(179,456,o),
(272,456,cs),
(359,453,o),
(418,378,o),
(418,254,cs),
(418,108,o),
(344,60,o),
(271,60,cs)
);
}
);
width = 563;
}
);
metricLeft = "=o";
metricRight = "=a";
},
{
glyphname = aogonek;
kernLeft = a;
kernRight = n;
lastChange = "2024-06-17 18:15:40 +0000";
layers = (
{
background = {
shapes = (
{
closed = 1;
nodes = (
(-75,-15,o),
(-11,8,o),
(18,69,c),
(21,69,l),
(21,67,ls,{
name = "💚";
}),
(21,19,o),
(35,-8,o),
(68,-8,cs),
(102,-8,o),
(119,19,o),
(119,74,cs),
(119,333,ls),
(119,456,o),
(38,529,o),
(-86,529,cs),
(-180,529,o),
(-309,488,o),
(-309,405,cs),
(-309,364,o),
(-277,341,o),
(-240,341,cs),
(-212,341,o),
(-187,349,o),
(-173,366,cs),
(-162,380,o),
(-140,402,o),
(-98,402,cs),
(-71,402,o),
(-29,394,o),
(-29,366,cs),
(-29,333,o),
(-63,321,o),
(-144,316,cs),
(-297,307,o),
(-350,233,o),
(-350,148,cs),
(-350,36,o),
(-250,-15,o),
(-143,-15,cs)
);
},
{
closed = 1;
nodes = (
(-166,113,o),
(-203,126,o),
(-203,158,cs),
(-203,179,o),
(-187,195,o),
(-128,207,cs),
(-70,219,o),
(-52,224,o),
(-35,234,cs),
(-30,237,o),
(-28,237,o),
(-28,233,cs),
(-28,208,ls),
(-28,147,o),
(-76,113,o),
(-131,113,cs)
);
},
{
closed = 1;
nodes = (
(11,-87,o),
(-11,-101,o),
(-21,-91,cs),
(-35,-77,o),
(-8,-62,o),
(11,-53,cs),
(28,-45,o),
(119,-14,o),
(119,51,cs),
(119,105,l),
(21,105,l),
(21,53,l),
(21,0,o),
(-136,0,o),
(-136,-108,cs),
(-136,-178,o),
(-78,-218,o),
(0,-218,cs),
(49,-218,o),
(93,-201,o),
(123,-167,cs),
(134,-154,o),
(141,-137,o),
(141,-119,cs),
(141,-80,o),
(108,-57,o),
(79,-57,cs),
(53,-57,o),
(39,-66,o),
(24,-77,cs)
);
},
{
closed = 1;
nodes = (
(525,-15,o),
(589,8,o),
(618,69,c),
(621,69,l),
(621,67,ls,{
name = "💚";
}),
(621,19,o),
(635,-8,o),
(668,-8,cs),
(702,-8,o),
(719,19,o),
(719,74,cs),
(719,333,ls),
(719,456,o),
(638,529,o),
(514,529,cs),
(420,529,o),
(291,488,o),
(291,405,cs),
(291,364,o),
(323,341,o),
(360,341,cs),
(388,341,o),
(413,349,o),
(427,366,cs),
(438,380,o),
(460,402,o),
(502,402,cs),
(529,402,o),
(571,394,o),
(571,366,cs),
(571,333,o),
(537,321,o),
(456,316,cs),
(303,307,o),
(250,233,o),
(250,148,cs),
(250,36,o),
(350,-15,o),
(457,-15,cs)
);
},
{
closed = 1;
nodes = (
(434,113,o),
(397,126,o),
(397,158,cs),
(397,179,o),
(413,195,o),
(472,207,cs),
(530,219,o),
(548,224,o),
(565,234,cs),
(570,237,o),
(572,237,o),
(572,233,cs),
(572,208,ls),
(572,147,o),
(524,113,o),
(469,113,cs)
);
},
{
closed = 1;
nodes = (
(611,-87,o),
(589,-101,o),
(579,-91,cs),
(565,-77,o),
(592,-62,o),
(611,-53,cs),
(628,-45,o),
(719,-14,o),
(719,51,cs),
(719,105,l),
(621,105,l),
(621,53,l),
(621,0,o),
(464,0,o),
(464,-108,cs),
(464,-178,o),
(522,-218,o),
(600,-218,cs),
(649,-218,o),
(693,-201,o),
(723,-167,cs),
(734,-154,o),
(741,-137,o),
(741,-119,cs),
(741,-80,o),
(708,-57,o),
(679,-57,cs),
(653,-57,o),
(639,-66,o),
(624,-77,cs)
);
}
);
};
layerId = "6242D68C-0A25-4F05-8F2A-2075F7C4A210";
shapes = (
{
ref = a;
},
{
pos = (278,0);
ref = ogonekcomb;
}
);
width = 590;
},
{
layerId = "3D52442A-254C-4C79-B742-A98FD72DF947";
shapes = (
{
ref = a;
},
{
pos = (268,0);
ref = ogonekcomb;
}
);
width = 521;
},
{
layerId = "DB110BCC-92E3-410E-8C20-9F3FFF600FD0";
shapes = (
{
ref = a;
},
{
pos = (276,0);
ref = ogonekcomb;
}
);
width = 530;
}
);
metricLeft = "=a";
metricRight = "=a";
unicode = 261;
},
{
glyphname = ae;
kernLeft = a;
kernRight = e;
lastChange = "2024-07-05 14:28:43 +0000";
layers = (
{
anchors = (
{
name = bottom;
pos = (412,0);
},
{
name = top;
pos = (412,515);
}
);
background = {
anchors = (
{
name = bottom;
pos = (421,0);
},
{
name = ogonek;
pos = (807,10);
},
{
name = top;
pos = (421,515);
}
);
shapes = (
{
closed = 1;
nodes = (
(276,-15,o),
(344,18,o),
(373,79,c),
(470,68,l),
(470,333,ls),
(470,456,o),
(389,529,o),
(265,529,cs),
(171,529,o),
(42,488,o),
(42,405,cs),
(42,364,o),
(74,341,o),
(111,341,cs),
(139,341,o),
(164,349,o),
(178,366,cs),
(189,380,o),
(211,402,o),
(253,402,cs),
(280,402,o),
(322,394,o),
(322,366,cs),
(322,333,o),
(288,321,o),
(207,316,cs),
(54,307,o),
(1,233,o),
(1,148,cs),
(1,36,o),
(101,-15,o),
(208,-15,cs)
);
},
{
closed = 1;
nodes = (
(185,113,o),
(148,126,o),
(148,158,cs),
(148,179,o),
(164,195,o),
(223,207,cs),
(281,219,o),
(308,224,o),
(325,234,cs),
(330,237,o),
(332,237,o),
(332,233,cs),
(332,228,ls),
(332,136,o),
(275,113,o),
(220,113,cs)
);
},
{
closed = 1;
nodes = (
(663,-15,o),
(775,30,o),
(775,112,cs),
(775,154,o),
(745,179,o),
(708,179,cs),
(673,179,o),
(659,165,o),
(642,151,cs),
(625,136,o),
(605,122,o),
(577,122,cs),
(524,122,o),
(487,162,o),
(487,266,cs),
(487,356,o),
(523,393,o),
(570,393,cs),
(618,393,o),
(642,355,o),
(644,275,c),
(694,310,l),
(385,310,l),
(385,214,l),
(707,214,ls),
(765,214,o),
(794,247,o),
(794,290,cs),
(794,404,o),
(707,530,o),
(567,530,cs),
(424,530,o),
(331,404,o),
(331,253,cs),
(331,93,o),
(429,-15,o),
(573,-15,cs)
);
},
{
closed = 1;
nodes = (
(326,-15,o),
(395,29,o),
(426,70,c),
(430,70,l),
(464,30,o),
(517,-15,o),
(598,-15,cs),
(660,-15,o),
(730,6,o),
(768,46,cs),
(785,64,o),
(795,86,o),
(795,112,cs),
(795,154,o),
(769,179,o),
(728,179,cs),
(697,179,o),
(679,165,o),
(662,151,cs),
(645,136,o),
(625,122,o),
(597,122,cs),
(548,122,o),
(499,155,o),
(499,266,cs),
(499,363,o),
(548,393,o),
(590,393,cs),
(630,393,o),
(664,366,o),
(671,310,c),
(427,310,l),
(428,214,l),
(727,214,ls),
(785,214,o),
(814,247,o),
(814,305,cs),
(814,404,o),
(727,530,o),
(587,530,cs),
(528,530,o),
(477,509,o),
(439,463,c),
(403,509,o),
(350,529,o),
(285,529,cs),
(191,529,o),
(62,488,o),
(62,405,cs),
(62,364,o),
(94,341,o),
(131,341,cs),
(159,341,o),
(181,349,o),
(198,366,cs),
(215,383,o),
(232,402,o),
(278,402,cs),
(301,402,o),
(342,396,o),
(342,364,cs),
(342,335,o),
(308,321,o),
(227,316,cs),
(74,307,o),
(21,233,o),
(21,148,cs),
(21,36,o),
(121,-15,o),
(228,-15,cs)
);
},
{
closed = 1;
nodes = (
(205,113,o),
(168,126,o),
(168,158,cs),
(168,179,o),
(184,195,o),
(243,207,cs),
(301,219,o),
(326,224,o),
(345,234,cs),
(349,236,o),
(352,236,o),
(352,230,cs),
(352,226,ls),
(352,140,o),
(295,113,o),
(240,113,cs)
);
}
);
};
layerId = "6242D68C-0A25-4F05-8F2A-2075F7C4A210";
shapes = (
{
closed = 1;
nodes = (
(286,-15,o),
(351,5,o),
(407,63,c),
(448,17,o),
(508,-15,o),
(598,-15,cs),
(696,-15,o),
(797,42,o),
(797,108,cs),
(797,151,o),
(768,175,o),
(729,175,cs),
(700,175,o),
(684,161,o),
(668,149,cs),
(645,131,o),
(627,119,o),
(593,119,cs),
(539,119,o),
(494,147,o),
(479,214,c),
(723,214,ls),
(780,214,o),
(808,247,o),
(808,303,cs),
(808,401,o),
(727,530,o),
(587,530,cs),
(521,530,o),
(466,507,o),
(424,466,c),
(388,507,o),
(340,529,o),
(277,529,cs),
(188,529,o),
(59,488,o),
(59,403,cs),
(59,363,o),
(86,341,o),
(128,341,cs),
(158,341,o),
(183,354,o),
(202,373,cs),
(222,393,o),
(244,407,o),
(277,407,cs),
(315,407,o),
(338,392,o),
(338,364,cs),
(338,328,o),
(284,325,o),
(224,316,cs),
(80,293,o),
(20,243,o),
(20,149,cs),
(20,35,o),
(112,-15,o),
(220,-15,cs)
);
},
{
closed = 1;
nodes = (
(194,113,o),
(172,127,o),
(172,158,cs),
(172,180,o),
(183,199,o),
(240,212,cs),
(279,221,o),
(308,221,o),
(331,234,cs),
(336,237,o),
(340,237,o),
(340,233,cs),
(340,208,ls),
(340,147,o),
(290,113,o),
(233,113,cs)
);
},
{
closed = 1;
nodes = (
(489,373,o),
(522,407,o),
(571,407,cs),
(620,407,o),
(655,373,o),
(663,314,c),
(478,314,l)
);
}
);
width = 828;
},
{
anchors = (
{
name = bottom;
pos = (407,0);
},
{
name = top;
pos = (407,515);
}
);
background = {
shapes = (
{
closed = 1;
nodes = (
(244,-15,o),
(300,13,o),
(348,78,c),
(351,78,l),
(384,78,l),
(384,350,ls),
(384,463,o),
(332,530,o),
(214,530,cs),
(98,530,o),
(50,456,o),
(41,410,cs),
(38,395,o),
(46,384,o),
(59,384,cs),
(73,384,o),
(81,392,o),
(86,407,cs),
(99,446,o),
(134,486,o),
(214,486,cs),
(303,486,o),
(335,433,o),
(335,375,cs),
(335,323,o),
(284,289,o),
(183,288,cs),
(57,287,o),
(5,215,o),
(5,132,cs),
(5,48,o),
(64,-15,o),
(163,-15,cs)
);
},
{
closed = 1;
nodes = (
(87,29,o),
(50,76,o),
(50,136,cs),
(50,193,o),
(88,248,o),
(180,247,cs),
(242,246,o),
(295,259,o),
(332,285,cs),
(337,288,o),
(339,289,o),
(339,286,cs),
(339,197,ls),
(339,102,o),
(268,29,o),
(171,29,cs)
);
},
{
closed = 1;
nodes = (
(637,-15,o),
(685,69,o),
(696,118,cs),
(703,147,o),
(691,159,o),
(676,159,cs),
(664,159,o),
(656,150,o),
(653,133,cs),
(648,100,o),
(619,29,o),
(536,29,cs),
(455,29,o),
(385,88,o),
(385,260,cs),
(389,409,o),
(443,485,o),
(530,485,cs),
(611,485,o),
(666,417,o),
(669,277,c),
(679,286,l),
(375,286,l),
(374,243,l),
(673,243,ls),
(703,243,o),
(713,253,o),
(713,284,cs),
(713,426,o),
(644,530,o),
(533,530,cs),
(414,530,o),
(340,430,o),
(340,255,cs),
(340,67,o),
(424,-15,o),
(530,-15,cs)
);
},
{
closed = 1;
nodes = (
(249,-15,o),
(315,8,o),
(359,107,c),
(363,107,l),
(390,29,o),
(451,-15,o),
(530,-15,cs),
(637,-15,o),
(686,68,o),
(696,118,cs),
(697,123,o),
(698,129,o),
(698,133,cs),
(698,151,o),
(688,159,o),
(676,159,cs),
(664,159,o),
(656,150,o),
(653,133,cs),
(648,100,o),
(619,29,o),
(536,29,cs),
(455,29,o),
(385,88,o),
(385,270,cs),
(385,412,o),
(445,485,o),
(530,485,cs),
(609,485,o),
(664,420,o),
(669,286,c),
(362,286,l),
(360,243,l),
(673,243,ls),
(703,243,o),
(713,253,o),
(713,284,cs),
(713,426,o),
(644,530,o),
(533,530,cs),
(462,530,o),
(406,494,o),
(374,427,c),
(353,493,o),
(302,530,o),
(214,530,cs),
(98,530,o),
(50,456,o),
(41,410,cs),
(38,395,o),
(46,384,o),
(59,384,cs),
(73,384,o),
(81,392,o),
(86,407,cs),
(99,446,o),
(134,486,o),
(214,486,cs),
(303,486,o),
(335,433,o),
(335,375,cs),
(335,323,o),
(284,289,o),
(183,288,cs),
(57,287,o),
(5,215,o),
(5,132,cs),
(5,48,o),
(64,-15,o),
(163,-15,cs)
);
},
{
closed = 1;
nodes = (
(87,29,o),
(50,76,o),
(50,136,cs),
(50,192,o),
(87,247,o),
(178,247,cs),
(237,247,o),
(288,258,o),
(325,280,cs),
(334,286,o),
(339,283,o),
(339,274,cs),
(339,197,ls),
(339,102,o),
(268,29,o),
(171,29,cs)
);
}
);
};
layerId = "3D52442A-254C-4C79-B742-A98FD72DF947";
shapes = (
{
closed = 1;
nodes = (
(293,-15,o),
(365,26,o),
(404,115,c),
(442,26,o),
(511,-15,o),
(597,-15,cs),
(724,-15,o),
(787,73,o),
(787,120,cs),
(787,136,o),
(780,147,o),
(766,147,cs),
(753,147,o),
(745,138,o),
(743,128,cs),
(731,70,o),
(680,29,o),
(602,29,cs),
(507,29,o),
(429,86,o),
(424,243,c),
(754,243,ls),
(788,243,o),
(794,255,o),
(794,291,cs),
(794,423,o),
(715,530,o),
(591,530,cs),
(511,530,o),
(455,491,o),
(416,418,c),
(397,490,o),
(343,530,o),
(248,530,cs),
(100,530,o),
(61,434,o),
(61,405,cs),
(61,391,o),
(68,384,o),
(80,384,cs),
(93,384,o),
(101,392,o),
(106,407,cs),
(119,446,o),
(154,486,o),
(243,486,cs),
(343,486,o),
(375,435,o),
(375,384,cs),
(375,323,o),
(327,295,o),
(218,288,cs),
(77,279,o),
(25,215,o),
(25,134,cs),
(25,48,o),
(84,-15,o),
(200,-15,cs)
);
},
{
closed = 1;
nodes = (
(107,28,o),
(71,76,o),
(71,134,cs),
(71,193,o),
(108,239,o),
(216,247,cs),
(282,252,o),
(335,263,o),
(371,289,cs),
(378,294,o),
(379,292,o),
(379,289,cs),
(379,197,ls),
(379,102,o),
(308,28,o),
(197,28,cs)
);
},
{
closed = 1;
nodes = (
(434,419,o),
(496,486,o),
(591,486,cs),
(680,486,o),
(745,416,o),
(750,286,c),
(425,286,l)
);
}
);
width = 819;
},
{
anchors = (
{
name = bottom;
pos = (408,0);
},
{
name = top;
pos = (408,515);
}
);
background = {
shapes = (
{
closed = 1;
nodes = (
(290,-15,o),
(353,19,o),
(397,99,c),
(403,99,l),
(446,19,o),
(497,-15,o),
(578,-15,cs),
(665,-15,o),
(731,42,o),
(754,94,cs),
(759,105,o),
(762,115,o),
(762,124,cs),
(761,146,o),
(745,159,o),
(728,159,cs),
(706,159,o),
(694,142,o),
(687,129,cs),
(673,101,o),
(637,62,o),
(578,62,cs),
(506,62,o),
(437,101,o),
(437,279,cs),
(437,392,o),
(495,454,o),
(577,454,cs),
(653,454,o),
(694,391,o),
(699,306,c),
(403,306,l),
(402,239,l),
(719,236,ls),
(757,235,o),
(775,256,o),
(775,294,cs),
(775,432,o),
(695,530,o),
(579,530,cs),
(507,530,o),
(449,501,o),
(411,447,c),
(386,499,o),
(336,530,o),
(251,530,cs),
(158,530,o),
(70,471,o),
(64,412,cs),
(60,390,o),
(72,369,o),
(99,369,cs),
(118,369,o),
(129,378,o),
(139,395,cs),
(152,421,o),
(183,455,o),
(250,455,cs),
(325,455,o),
(354,415,o),
(354,370,cs),
(354,324,o),
(311,303,o),
(217,302,cs),
(83,300,o),
(24,221,o),
(24,138,cs),
(24,53,o),
(89,-15,o),
(202,-15,cs)
);
},
{
closed = 1;
nodes = (
(132,60,o),
(104,103,o),
(104,144,cs),
(104,186,o),
(136,230,o),
(217,231,cs),
(274,233,o),
(320,250,o),
(346,268,cs),
(353,273,o),
(357,272,o),
(357,264,cs),
(357,184,ls),
(357,104,o),
(289,61,o),
(207,61,cs)
);
}
);
};
layerId = "DB110BCC-92E3-410E-8C20-9F3FFF600FD0";
shapes = (
{
closed = 1;
nodes = (
(286,-15,o),
(346,18,o),
(402,95,c),
(445,18,o),
(510,-15,o),
(596,-15,cs),
(724,-15,o),
(789,75,o),
(792,128,cs),
(793,155,o),
(779,173,o),
(756,173,cs),
(736,173,o),
(725,160,o),
(719,144,cs),
(703,99,o),
(665,59,o),
(594,59,cs),
(514,59,o),
(445,109,o),
(437,232,c),
(746,232,ls),
(791,232,o),
(802,257,o),
(802,296,cs),
(802,415,o),
(717,530,o),
(586,530,cs),
(514,530,o),
(454,496,o),
(417,439,c),
(390,493,o),
(339,530,o),
(255,530,cs),
(132,530,o),
(60,455,o),
(60,405,cs),
(60,384,o),
(72,368,o),
(95,368,cs),
(114,368,o),
(127,378,o),
(136,395,cs),
(149,421,o),
(180,456,o),
(250,456,cs),
(329,456,o),
(359,415,o),
(359,374,cs),
(359,319,o),
(304,311,o),
(217,302,cs),
(79,288,o),
(20,221,o),
(20,139,cs),
(20,52,o),
(88,-15,o),
(206,-15,cs)
);
},
{
closed = 1;
nodes = (
(128,59,o),
(101,103,o),
(101,143,cs),
(101,196,o),
(149,220,o),
(218,231,cs),
(252,237,o),
(322,244,o),
(353,267,cs),
(358,271,o),
(360,270,o),
(360,268,cs),
(360,200,ls),
(360,122,o),
(292,59,o),
(202,59,cs)
);
},
{
closed = 1;
nodes = (
(450,404,o),
(505,456,o),
(581,456,cs),
(665,456,o),
(719,394,o),
(725,301,c),
(438,301,l)
);
}
);
width = 822;
}
);
metricLeft = "=a-20";
metricRight = "=e-20";
unicode = 230;
},
{
glyphname = ae.ss01;
kernLeft = ae.ss01;
kernRight = ae.ss01;
lastChange = "2024-07-05 14:28:43 +0000";
layers = (
{
anchors = (
{
name = bottom;
pos = (477,0);
},
{
name = top;
pos = (477,515);
}
);
background = {
shapes = (
{
closed = 1;
nodes = (
(612,123,o),
(573,167,o),
(573,257,cs),
(573,347,o),
(612,391,o),
(681,391,cs),
(747,391,o),
(788,349,o),
(788,260,cs),
(788,165,o),
(747,123,o),
(681,123,cs)
);
}
);
};
layerId = "6242D68C-0A25-4F05-8F2A-2075F7C4A210";
shapes = (
{
closed = 1;
nodes = (
(324,-15,o),
(367,10,o),
(398,52,c),
(399,46,ls),
(406,3,o),
(443,-10,o),
(467,-10,cs),
(494,-10,o),
(519,6,o),
(532,46,cs),
(534,52,l),
(569,12,o),
(627,-14,o),
(694,-14,cs),
(789,-14,o),
(897,42,o),
(897,108,cs),
(897,151,o),
(868,175,o),
(829,175,cs),
(800,175,o),
(784,161,o),
(768,149,cs),
(745,131,o),
(726,119,o),
(692,119,cs),
(638,119,o),
(593,147,o),
(578,214,c),
(827,214,ls),
(885,214,o),
(914,247,o),
(914,303,cs),
(914,401,o),
(822,530,o),
(678,530,cs),
(614,530,o),
(566,504,o),
(531,464,c),
(529,471,ls),
(518,509,o),
(501,525,o),
(470,525,cs),
(437,525,o),
(415,509,o),
(401,472,cs),
(398,464,l),
(367,506,o),
(331,530,o),
(267,530,cs),
(112,530,o),
(40,387,o),
(40,248,cs),
(40,114,o),
(98,-15,o),
(255,-15,cs)
);
},
{
closed = 1;
nodes = (
(229,123,o),
(190,172,o),
(190,257,cs),
(190,342,o),
(229,391,o),
(298,391,cs),
(366,391,o),
(405,343,o),
(405,260,cs),
(405,173,o),
(366,123,o),
(298,123,cs)
);
},
{
closed = 1;
nodes = (
(589,368,o),
(621,397,o),
(670,397,cs),
(718,397,o),
(753,372,o),
(762,314,c),
(577,314,l)
);
}
);
width = 954;
},
{
anchors = (
{
name = bottom;
pos = (445,0);
},
{
name = top;
pos = (445,515);
}
);
background = {
shapes = (
{
closed = 0;
nodes = (
(256,30,l),
(152,29,o),
(91,113,o),
(91,258,cs),
(91,401,o),
(168,487,o),
(259,487,cs),
(356,487,o),
(417,394,o),
(417,258,cs),
(417,89,o),
(326,29,o),
(232,29,c)
);
},
{
closed = 0;
nodes = (
(258,-15,ls),
(116,-15,o),
(46,107,o),
(46,258,cs),
(46,408,o),
(131,530,o),
(258,530,cs),
(347,530,o),
(407,475,o),
(435,409,c),
(464,254,l),
(464,68,o),
(360,-15,o),
(236,-15,cs)
);
},
{
closed = 1;
nodes = (
(775,-15,o),
(838,73,o),
(838,120,cs),
(838,136,o),
(831,147,o),
(817,147,cs),
(804,147,o),
(796,138,o),
(794,128,cs),
(782,70,o),
(731,28,o),
(654,28,cs),
(560,28,o),
(472,86,o),
(467,243,c),
(805,243,ls),
(839,243,o),
(845,255,o),
(845,291,cs),
(845,423,o),
(766,530,o),
(639,530,cs),
(516,530,o),
(422,430,o),
(422,254,cs),
(422,68,o),
(526,-15,o),
(650,-15,cs)
);
},
{
closed = 1;
nodes = (
(477,419,o),
(549,485,o),
(639,485,cs),
(732,485,o),
(796,416,o),
(801,286,c),
(468,286,l)
);
}
);
};
layerId = "3D52442A-254C-4C79-B742-A98FD72DF947";
shapes = (
{
closed = 1;
nodes = (
(315,-15,o),
(380,16,o),
(421,82,c),
(421,17,ls),
(421,1,o),
(431,-10,o),
(444,-10,cs),
(457,-10,o),
(466,1,o),
(466,17,cs),
(466,80,l),
(508,15,o),
(575,-15,o),
(650,-15,cs),
(775,-15,o),
(838,73,o),
(838,120,cs),
(838,136,o),
(831,147,o),
(817,147,cs),
(804,147,o),
(796,138,o),
(794,128,cs),
(782,70,o),
(731,28,o),
(654,28,cs),
(560,28,o),
(472,86,o),
(467,243,c),
(805,243,ls),
(839,243,o),
(845,255,o),
(845,291,cs),
(845,423,o),
(766,530,o),
(639,530,cs),
(567,530,o),
(505,496,o),
(466,432,c),
(466,493,ls),
(466,509,o),
(457,520,o),
(444,520,cs),
(431,520,o),
(421,509,o),
(421,493,cs),
(421,437,l),
(389,490,o),
(334,530,o),
(258,530,cs),
(131,530,o),
(45,408,o),
(45,258,cs),
(45,91,o),
(122,-15,o),
(255,-15,cs)
);
},
{
closed = 1;
nodes = (
(157,28,o),
(91,114,o),
(91,258,cs),
(91,401,o),
(168,487,o),
(259,487,cs),
(356,487,o),
(417,394,o),
(417,258,cs),
(417,89,o),
(323,28,o),
(250,28,cs)
);
},
{
closed = 1;
nodes = (
(477,419,o),
(549,485,o),
(639,485,cs),
(732,485,o),
(796,416,o),
(801,286,c),
(468,286,l)
);
}
);
width = 890;
},
{
anchors = (
{
name = bottom;
pos = (463,0);
},
{
name = top;
pos = (463,515);
}
);
background = {
shapes = (
{
closed = 1;
nodes = (
(319,-15,o),
(392,15,o),
(418,110,c),
(405,109,l),
(405,33,ls),
(405,9,o),
(423,-9,o),
(445,-9,cs),
(468,-9,o),
(485,10,o),
(485,33,cs),
(485,113,l),
(471,111,l),
(495,22,o),
(577,-15,o),
(650,-15,cs),
(735,-15,o),
(803,42,o),
(825,94,cs),
(845,133,o),
(824,160,o),
(799,160,cs),
(777,160,o),
(766,142,o),
(758,129,cs),
(744,101,o),
(707,62,o),
(649,62,cs),
(579,62,o),
(509,108,o),
(501,234,c),
(797,234,ls),
(836,234,o),
(854,254,o),
(854,291,cs),
(854,421,o),
(770,530,o),
(648,530,cs),
(572,530,o),
(497,488,o),
(471,405,c),
(485,407,l),
(485,480,ls),
(485,503,o),
(468,521,o),
(445,521,cs),
(423,521,o),
(405,504,o),
(405,480,cs),
(405,413,l),
(417,412,l),
(403,488,o),
(325,530,o),
(253,530,cs),
(122,530,o),
(41,404,o),
(41,257,cs),
(41,112,o),
(112,-15,o),
(246,-15,cs)
);
},
{
closed = 1;
nodes = (
(174,62,o),
(121,133,o),
(121,258,cs),
(121,383,o),
(176,455,o),
(264,454,cs),
(345,454,o),
(402,374,o),
(402,254,cs),
(402,106,o),
(330,62,o),
(262,62,cs)
);
},
{
closed = 1;
nodes = (
(515,403,o),
(574,453,o),
(644,453,cs),
(720,453,o),
(769,393,o),
(778,303,c),
(503,303,l)
);
},
{
closed = 1;
nodes = (
(177,60,o),
(121,127,o),
(121,251,cs),
(121,377,o),
(180,456,o),
(273,456,cs),
(360,453,o),
(419,378,o),
(419,254,cs),
(419,139,o),
(345,60,o),
(272,60,cs)
);
}
);
};
layerId = "DB110BCC-92E3-410E-8C20-9F3FFF600FD0";
shapes = (
{
closed = 1;
nodes = (
(332,-15,o),
(392,17,o),
(433,68,c),
(433,33,ls),
(433,3,o),
(451,-10,o),
(474,-10,cs),
(493,-10,o),
(509,7,o),
(509,31,cs),
(509,68,l),
(550,17,o),
(610,-15,o),
(675,-15,cs),
(807,-15,o),
(872,75,o),
(875,128,cs),
(876,155,o),
(862,173,o),
(839,173,cs),
(819,173,o),
(808,160,o),
(802,144,cs),
(786,99,o),
(744,56,o),
(667,59,cs),
(579,62,o),
(516,122,o),
(509,232,c),
(831,232,ls),
(876,232,o),
(887,257,o),
(887,296,cs),
(887,415,o),
(802,530,o),
(666,530,cs),
(602,530,o),
(546,504,o),
(505,456,c),
(505,479,ls),
(505,503,o),
(488,520,o),
(468,520,cs),
(446,520,o),
(428,504,o),
(428,480,cs),
(428,456,l),
(387,503,o),
(330,530,o),
(265,530,cs),
(123,530,o),
(40,399,o),
(40,250,cs),
(40,89,o),
(124,-15,o),
(264,-15,cs)
);
},
{
closed = 1;
nodes = (
(171,59,o),
(121,127,o),
(121,251,cs),
(121,377,o),
(180,456,o),
(273,456,cs),
(359,456,o),
(430,390,o),
(430,258,cs),
(430,132,o),
(371,59,o),
(267,59,cs)
);
},
{
closed = 1;
nodes = (
(525,404,o),
(589,456,o),
(665,456,cs),
(750,456,o),
(801,391,o),
(810,301,c),
(511,301,l)
);
}
);
width = 927;
}
);
metricLeft = "=o";
metricRight = "=o";
},
{
glyphname = b;
kernLeft = h;
kernRight = o;
lastChange = "2024-06-17 18:15:40 +0000";
layers = (
{
anchors = (
{
name = bottom;
pos = (311,0);
},
{
name = center;
pos = (311,258);
},
{
name = top;
pos = (311,515);
}
);
background = {
shapes = (
{
closed = 1;
nodes = (
(516,-15,o),
(586,135,o),
(586,258,cs),
(586,381,o),
(516,530,o),
(356,530,cs),
(297,530,o),
(238,502,o),
(202,434,c),
(220,422,l),
(220,655,ls),
(220,696,o),
(186,730,o),
(145,730,cs),
(104,730,o),
(70,696,o),
(70,655,cs),
(70,66,ls),
(70,24,o),
(104,-10,o),
(145,-10,cs),
(186,-10,o),
(220,24,o),
(220,66,cs),
(220,91,l),
(203,91,l),
(212,31,o),
(288,-15,o),
(361,-15,cs)
);
},
{
closed = 1;
nodes = (
(262,120,o),
(220,165,o),
(220,255,cs),
(220,345,o),
(258,396,o),
(324,396,cs),
(391,396,o),
(431,344,o),
(431,256,cs),
(431,171,o),
(393,120,o),
(323,120,cs)
);
}
);
};
layerId = "6242D68C-0A25-4F05-8F2A-2075F7C4A210";
shapes = (
{
closed = 1;
nodes = (
(486,-15,o),
(582,89,o),
(582,260,cs),
(582,421,o),
(484,530,o),
(360,530,cs),
(288,530,o),
(238,501,o),
(195,438,c),
(220,426,l),
(220,655,ls),
(220,698,o),
(188,730,o),
(145,730,cs),
(102,730,o),
(70,698,o),
(70,655,cs),
(70,66,ls),
(70,22,o),
(102,-10,o),
(145,-10,cs),
(188,-10,o),
(222,30,o),
(220,84,cs),
(219,112,l),
(191,114,l),
(210,52,o),
(269,-15,o),
(356,-15,cs)
);
},
{
closed = 1;
nodes = (
(260,122,o),
(216,171,o),
(216,259,cs),
(216,343,o),
(254,397,o),
(321,397,cs),
(387,397,o),
(427,345,o),
(427,257,cs),
(427,172,o),
(388,122,o),
(320,122,cs)
);
}
);
width = 622;
},
{
anchors = (
{
name = bottom;
pos = (282,0);
},
{
name = center;
pos = (282,258);
},
{
name = top;
pos = (282,515);
}
);
background = {
shapes = (
{
closed = 1;
nodes = (
(-153,133,o),
(-207,61,o),
(-308,62,cs),
(-402,63,o),
(-453,130,o),
(-453,258,cs),
(-453,386,o),
(-402,453,o),
(-306,453,cs),
(-210,453,o),
(-153,381,o),
(-153,258,cs)
);
},
{
closed = 1;
nodes = (
(-73,402,o),
(-152,530,o),
(-291,530,cs),
(-362,530,o),
(-425,496,o),
(-470,443,c),
(-453,427,l),
(-453,690,ls),
(-453,712,o),
(-471,730,o),
(-493,730,cs),
(-515,730,o),
(-533,712,o),
(-533,690,cs),
(-533,31,ls),
(-533,8,o),
(-515,-10,o),
(-493,-10,cs),
(-471,-10,o),
(-453,8,o),
(-453,31,cs),
(-453,92,l),
(-469,74,l),
(-426,20,o),
(-362,-15,o),
(-290,-15,cs),
(-152,-14,o),
(-73,114,o),
(-73,258,cs)
);
},
{
closed = 1;
nodes = (
(455,-15,o),
(521,109,o),
(521,255,cs),
(521,410,o),
(446,530,o),
(300,530,cs),
(197,530,o),
(133,470,o),
(113,409,c),
(125,409,l),
(125,703,ls),
(125,718,o),
(117,730,o),
(102,730,cs),
(87,730,o),
(80,718,o),
(80,703,cs),
(80,22,ls),
(80,6,o),
(87,-5,o),
(102,-5,cs),
(117,-5,o),
(125,6,o),
(125,22,cs),
(125,107,l),
(115,107,l),
(138,37,o),
(203,-15,o),
(302,-15,cs)
);
},
{
closed = 1;
nodes = (
(189,28,o),
(125,103,o),
(125,261,cs),
(125,418,o),
(189,487,o),
(293,487,cs),
(407,487,o),
(475,403,o),
(475,254,cs),
(475,115,o),
(416,28,o),
(298,28,cs)
);
},
{
closed = 1;
nodes = (
(452,-15,o),
(518,109,o),
(518,255,cs),
(518,410,o),
(443,530,o),
(297,530,cs),
(194,530,o),
(130,465,o),
(110,399,c),
(125,399,l),
(125,703,ls),
(125,718,o),
(117,730,o),
(102,730,cs),
(87,730,o),
(80,718,o),
(80,703,cs),
(80,22,ls),
(80,6,o),
(87,-5,o),
(102,-5,cs),
(117,-5,o),
(125,6,o),
(125,22,cs),
(125,110,l),
(112,110,l),
(135,40,o),
(200,-15,o),
(299,-15,cs)
);
},
{
closed = 1;
nodes = (
(188,28,o),
(122,109,o),
(122,261,cs),
(122,411,o),
(186,487,o),
(290,487,cs),
(404,487,o),
(472,403,o),
(472,254,cs),
(472,115,o),
(413,28,o),
(295,28,cs)
);
}
);
};
layerId = "3D52442A-254C-4C79-B742-A98FD72DF947";
shapes = (
{
closed = 1;
nodes = (
(452,-15,o),
(518,109,o),
(518,255,cs),
(518,410,o),
(443,530,o),
(297,530,cs),
(199,530,o),
(141,475,o),
(110,399,c),
(125,399,l),
(125,703,ls),
(125,718,o),
(117,730,o),
(102,730,cs),
(87,730,o),
(80,718,o),
(80,703,cs),
(80,22,ls),
(80,6,o),
(87,-5,o),
(102,-5,cs),
(117,-5,o),
(125,6,o),
(125,22,cs),
(125,114,l),
(112,114,l),
(135,42,o),
(200,-15,o),
(299,-15,cs)
);
},
{
closed = 1;
nodes = (
(203,28,o),
(122,89,o),
(122,261,cs),
(122,411,o),
(190,487,o),
(294,487,cs),
(408,487,o),
(472,403,o),
(472,254,cs),
(472,115,o),
(417,28,o),
(299,28,cs)
);
}
);
width = 563;
},
{
anchors = (
{
name = bottom;
pos = (284,0);
},
{
name = center;
pos = (284,258);
},
{
name = top;
pos = (284,515);
}
);
layerId = "DB110BCC-92E3-410E-8C20-9F3FFF600FD0";
shapes = (
{
closed = 1;
nodes = (
(455,-15,o),
(529,113,o),
(529,256,cs),
(529,405,o),
(448,530,o),
(305,530,cs),
(220,530,o),
(162,478,o),
(140,431,c),
(150,424,l),
(150,689,ls),
(150,712,o),
(133,730,o),
(110,730,cs),
(87,730,o),
(70,712,o),
(70,689,cs),
(70,34,ls),
(70,10,o),
(87,-9,o),
(110,-9,cs),
(133,-9,o),
(150,10,o),
(150,34,cs),
(150,81,l),
(143,80,l),
(166,30,o),
(228,-15,o),
(310,-15,cs)
);
},
{
closed = 1;
nodes = (
(204,62,o),
(146,130,o),
(146,256,cs),
(146,378,o),
(202,456,o),
(297,456,cs),
(391,456,o),
(448,380,o),
(448,257,cs),
(448,134,o),
(392,58,o),
(295,60,cs)
);
}
);
width = 569;
}
);
metricLeft = "=n";
metricRight = "=o";
unicode = 98;
},
{
glyphname = c;
kernLeft = o;
kernRight = c;
lastChange = "2024-06-17 18:15:40 +0000";
layers = (
{
anchors = (
{
name = bottom;
pos = (269,0);
},
{
name = top;
pos = (269,515);
}
);
background = {
shapes = (
{
closed = 1;
nodes = (
(414,-15,o),
(503,64,o),
(503,134,cs),
(503,175,o),
(472,209,o),
(431,209,cs),
(400,209,o),
(389,189,o),
(373,166,cs),
(358,144,o),
(341,122,o),
(297,122,cs),
(233,122,o),
(195,167,o),
(195,257,cs),
(195,347,o),
(233,394,o),
(292,394,cs),
(327,394,o),
(340,377,o),
(351,368,cs),
(363,358,o),
(380,352,o),
(401,352,cs),
(439,352,o),
(471,373,o),
(471,415,cs),
(471,480,o),
(395,530,o),
(296,530,cs),
(143,530,o),
(40,410,o),
(40,258,cs),
(40,104,o),
(145,-15,o),
(293,-15,cs)
);
}
);
};
layerId = "6242D68C-0A25-4F05-8F2A-2075F7C4A210";
shapes = (
{
closed = 1;
nodes = (
(414,-15,o),
(503,64,o),
(503,134,cs),
(503,175,o),
(472,209,o),
(431,209,cs),
(400,209,o),
(389,189,o),
(373,166,cs),
(358,144,o),
(341,122,o),
(297,122,cs),
(233,122,o),
(195,167,o),
(195,257,cs),
(195,347,o),
(233,394,o),
(292,394,cs),
(327,394,o),
(340,377,o),
(351,368,cs),
(363,358,o),
(380,352,o),
(401,352,cs),
(439,352,o),
(471,373,o),
(471,415,cs),
(471,480,o),
(395,530,o),
(296,530,cs),
(143,530,o),
(40,410,o),
(40,258,cs),
(40,104,o),
(145,-15,o),
(293,-15,cs)
);
}
);
width = 538;
},
{
anchors = (
{
name = bottom;
pos = (249,0);
},
{
name = top;
pos = (249,515);
}
);
background = {
shapes = (
{
pos = (-490,0);
ref = e;
},
{
pos = (-490,0);
ref = o;
}
);
};
layerId = "3D52442A-254C-4C79-B742-A98FD72DF947";
shapes = (
{
closed = 1;
nodes = (
(388,-15,o),
(447,73,o),
(457,136,cs),
(462,167,o),
(452,177,o),
(438,177,cs),
(425,177,o),
(417,168,o),
(414,151,cs),
(401,80,o),
(350,28,o),
(266,28,cs),
(159,28,o),
(91,113,o),
(91,257,cs),
(91,394,o),
(153,487,o),
(266,487,cs),
(336,487,o),
(383,451,o),
(401,404,cs),
(406,391,o),
(409,379,o),
(427,379,cs),
(442,379,o),
(447,388,o),
(447,403,cs),
(447,454,o),
(377,530,o),
(264,530,cs),
(125,530,o),
(45,416,o),
(45,256,cs),
(45,94,o),
(126,-15,o),
(264,-15,cs)
);
}
);
width = 498;
},
{
anchors = (
{
name = bottom;
pos = (270,0);
},
{
name = top;
pos = (252,515);
}
);
layerId = "DB110BCC-92E3-410E-8C20-9F3FFF600FD0";
shapes = (
{
closed = 1;
nodes = (
(400,-15,o),
(465,86,o),
(469,138,cs),
(471,166,o),
(456,183,o),
(433,183,cs),
(413,183,o),
(402,170,o),
(395,151,cs),
(379,104,o),
(341,60,o),
(271,60,cs),
(179,60,o),
(121,138,o),
(121,259,cs),
(121,373,o),
(174,457,o),
(270,457,cs),
(331,457,o),
(365,423,o),
(383,387,cs),
(390,374,o),
(399,361,o),
(420,361,cs),
(441,361,o),
(460,376,o),
(456,404,cs),
(452,453,o),
(387,530,o),
(271,530,cs),
(131,530,o),
(40,415,o),
(40,258,cs),
(40,101,o),
(129,-15,o),
(270,-15,cs)
);
}
);
width = 504;
}
);
metricLeft = o;
metricRight = "=o-5";
unicode = 99;
},
{
glyphname = d;
kernLeft = o;
kernRight = l;
lastChange = "2024-07-04 18:32:40 +0000";
layers = (
{
anchors = (
{
name = bottom;
pos = (311,0);
},
{
name = center;
pos = (483,584);
},
{
name = top;
pos = (311,515);
},
{
name = topright;
pos = (602,730);
}
);
background = {
shapes = (
{
closed = 1;
nodes = (
(-490,530,o),
(-564,387,o),
(-564,256,cs),
(-564,118,o),
(-486,-15,o),
(-334,-15,cs),
(-263,-15,o),
(-216,14,o),
(-173,77,c),
(-194,89,l),
(-194,-140,ls),
(-194,-183,o),
(-162,-215,o),
(-119,-215,cs),
(-76,-215,o),
(-44,-183,o),
(-44,-140,cs),
(-44,449,ls),
(-44,493,o),
(-76,525,o),
(-119,525,cs),
(-162,525,o),
(-199,493,o),
(-194,449,cs),
(-191,421,l),
(-169,430,l),
(-189,483,o),
(-247,530,o),
(-335,530,cs)
);
},
{
closed = 1;
nodes = (
(-194,166,o),
(-235,124,o),
(-301,124,cs),
(-370,124,o),
(-409,168,o),
(-409,258,cs),
(-409,348,o),
(-370,392,o),
(-301,392,cs),
(-235,392,o),
(-194,350,o),
(-194,258,c)
);
},
{
closed = 1;
nodes = (
(-251,-15,o),
(-193,32,o),
(-173,85,c),
(-195,94,l),
(-198,66,ls),
(-203,22,o),
(-166,-10,o),
(-123,-10,cs),
(-80,-10,o),
(-48,22,o),
(-48,66,cs),
(-48,650,ls),
(-48,693,o),
(-80,725,o),
(-123,725,cs),
(-166,725,o),
(-198,693,o),
(-198,650,cs),
(-198,426,l),
(-177,438,l),
(-220,501,o),
(-267,530,o),
(-337,530,cs),
(-486,530,o),
(-564,397,o),
(-564,260,cs),
(-564,127,o),
(-490,-15,o),
(-338,-15,cs)
);
},
{
closed = 1;
nodes = (
(-370,119,o),
(-409,169,o),
(-409,255,cs),
(-409,343,o),
(-369,395,o),
(-303,395,cs),
(-236,395,o),
(-198,341,o),
(-198,254,cs),
(-198,169,o),
(-235,119,o),
(-302,119,cs)
);
},
{
closed = 1;
nodes = (
(118,535,o),
(40,402,o),
(40,265,cs),
(40,132,o),
(114,-10,o),
(266,-10,cs),
(349,-10,o),
(403,46,o),
(426,107,c),
(402,116,l),
(401,85,ls),
(399,27,o),
(433,-5,o),
(476,-5,cs),
(519,-5,o),
(551,27,o),
(551,71,cs),
(551,655,ls),
(551,698,o),
(519,730,o),
(476,730,cs),
(433,730,o),
(401,698,o),
(401,655,cs),
(401,431,l),
(422,443,l),
(389,503,o),
(337,535,o),
(262,535,cs)
);
},
{
closed = 1;
nodes = (
(368,400,o),
(406,349,o),
(406,259,cs),
(406,169,o),
(369,124,o),
(303,124,cs),
(233,124,o),
(195,175,o),
(195,260,cs),
(195,348,o),
(235,400,o),
(302,400,cs)
);
}
);
};
layerId = "6242D68C-0A25-4F05-8F2A-2075F7C4A210";
shapes = (
{
closed = 1;
nodes = (
(353,-15,o),
(412,52,o),
(431,114,c),
(403,112,l),
(402,84,ls),
(400,30,o),
(434,-10,o),
(477,-10,cs),
(520,-10,o),
(552,22,o),
(552,66,cs),
(552,655,ls),
(552,698,o),
(520,730,o),
(477,730,cs),
(434,730,o),
(402,698,o),
(402,655,cs),
(402,426,l),
(427,438,l),
(384,501,o),
(334,530,o),
(262,530,cs),
(138,530,o),
(40,421,o),
(40,260,cs),
(40,89,o),
(136,-15,o),
(266,-15,cs)
);
},
{
closed = 1;
nodes = (
(234,120,o),
(195,170,o),
(195,255,cs),
(195,343,o),
(235,395,o),
(301,395,cs),
(368,395,o),
(406,341,o),
(406,257,cs),
(406,169,o),
(362,120,o),
(302,120,cs)
);
}
);
width = 622;
},
{
anchors = (
{
name = bottom;
pos = (282,0);
},
{
name = center;
pos = (467,584);
},
{
name = top;
pos = (282,515);
},
{
name = topright;
pos = (543,730);
}
);
background = {
shapes = (
{
closed = 1;
nodes = (
(360,-15,o),
(425,37,o),
(448,107,c),
(438,107,l),
(438,22,ls),
(438,6,o),
(446,-5,o),
(461,-5,cs),
(476,-5,o),
(483,6,o),
(483,22,cs),
(483,703,ls),
(483,718,o),
(476,730,o),
(461,730,cs),
(446,730,o),
(438,718,o),
(438,703,cs),
(438,409,l),
(450,409,l),
(430,470,o),
(366,530,o),
(263,530,cs),
(117,530,o),
(42,410,o),
(42,255,cs),
(42,109,o),
(108,-15,o),
(261,-15,cs)
);
},
{
closed = 1;
nodes = (
(147,28,o),
(88,115,o),
(88,254,cs),
(88,403,o),
(156,487,o),
(270,487,cs),
(374,487,o),
(438,418,o),
(438,261,cs),
(438,103,o),
(374,28,o),
(265,28,cs)
);
},
{
closed = 1;
nodes = (
(116,535,o),
(47,413,o),
(47,263,cs),
(47,117,o),
(113,-10,o),
(262,-10,cs),
(361,-10,o),
(431,49,o),
(448,124,c),
(438,124,l),
(438,22,ls),
(438,6,o),
(446,-5,o),
(461,-5,cs),
(476,-5,o),
(483,6,o),
(483,22,cs),
(483,703,ls),
(483,718,o),
(476,730,o),
(461,730,cs),
(446,730,o),
(438,718,o),
(438,703,cs),
(438,394,l),
(454,404,l),
(438,459,o),
(383,535,o),
(266,535,cs)
);
},
{
closed = 1;
nodes = (
(369,492,o),
(441,426,o),
(441,267,cs),
(441,111,o),
(374,34,o),
(267,33,cs),
(152,32,o),
(93,128,o),
(93,263,cs),
(93,406,o),
(159,492,o),
(270,492,cs)
);
}
);
};
layerId = "3D52442A-254C-4C79-B742-A98FD72DF947";
shapes = (
{
closed = 1;
nodes = (
(363,-15,o),
(428,47,o),
(451,117,c),
(438,117,l),
(438,22,ls),
(438,6,o),
(446,-5,o),
(461,-5,cs),
(476,-5,o),
(483,6,o),
(483,22,cs),
(483,703,ls),
(483,718,o),
(476,730,o),
(461,730,cs),
(446,730,o),
(438,718,o),
(438,703,cs),
(438,399,l),
(453,399,l),
(433,465,o),
(369,530,o),
(266,530,cs),
(120,530,o),
(45,406,o),
(45,251,cs),
(45,105,o),
(111,-15,o),
(264,-15,cs)
);
},
{
closed = 1;
nodes = (
(150,28,o),
(91,111,o),
(91,250,cs),
(91,399,o),
(159,487,o),
(267,487,cs),
(370,487,o),
(441,415,o),
(441,261,cs),
(441,116,o),
(375,28,o),
(268,28,cs)
);
}
);
width = 563;
},
{
anchors = (
{
name = bottom;
pos = (284,0);
},
{
name = center;
pos = (458,584);
},
{
name = top;
pos = (284,515);
},
{
name = topright;
pos = (548,730);
}
);
layerId = "DB110BCC-92E3-410E-8C20-9F3FFF600FD0";
shapes = (
{
closed = 1;
nodes = (
(341,-15,o),
(403,30,o),
(425,80,c),
(418,81,l),
(418,34,ls),
(418,10,o),
(435,-9,o),
(458,-9,cs),
(481,-9,o),
(498,10,o),
(498,34,cs),
(498,689,ls),
(498,712,o),
(481,730,o),
(458,730,cs),
(435,730,o),
(418,712,o),
(418,689,cs),
(418,442,l),
(426,444,l),
(401,487,o),
(349,530,o),
(265,530,cs),
(121,530,o),
(40,405,o),
(40,256,cs),
(40,113,o),
(113,-15,o),
(258,-15,cs)
);
},
{
closed = 1;
nodes = (
(177,58,o),
(120,134,o),
(120,257,cs),
(120,380,o),
(177,456,o),
(271,456,cs),
(367,456,o),
(422,378,o),
(422,256,cs),
(422,138,o),
(369,62,o),
(274,60,cs)
);
}
);
width = 568;
}
);
metricLeft = "=o";
metricRight = l;
unicode = 100;
},
{
glyphname = dcroat;
kernLeft = o;
kernRight = l;
lastChange = "2024-07-07 15:17:43 +0000";
layers = (
{
background = {
shapes = (
{
attr = {
lineCapEnd = "2";
lineCapStart = "2";
strokeHeight = 96;
strokeWidth = 96;
};
closed = 0;
nodes = (
(281,603,l),
(639,603,l)
);
}
);
};
layerId = "6242D68C-0A25-4F05-8F2A-2075F7C4A210";
shapes = (
{
ref = d;
},
{
alignment = -1;
pos = (225,243);
ref = strokeshortcomb;
}
);
width = 622;
},
{
background = {
shapes = (
{
attr = {
lineCapEnd = "2";
lineCapStart = "2";
strokeHeight = 45;
strokeWidth = 45;
};
closed = 0;
nodes = (
(271,628,l),
(569,628,l)
);
}
);
};
layerId = "3D52442A-254C-4C79-B742-A98FD72DF947";
shapes = (
{
ref = d;
},
{
pos = (254,219);
ref = strokeshortcomb;
}
);
width = 563;
},
{
layerId = "DB110BCC-92E3-410E-8C20-9F3FFF600FD0";
shapes = (
{
ref = d;
},
{
pos = (210,223);
ref = strokeshortcomb;
}
);
width = 568;
}
);
metricLeft = "=d";
unicode = 273;
},
{
glyphname = eth;
kernLeft = eth;
kernRight = eth;
lastChange = "2024-06-17 18:15:40 +0000";
layers = (
{
anchors = (
{
name = bottom;
pos = (304,0);
},
{
name = top;
pos = (304,730);
}
);
background = {
shapes = (
{
closed = 1;
nodes = (
(392,161,o),
(356,122,o),
(284,122,cs),
(212,122,o),
(176,161,o),
(176,227,cs),
(176,296,o),
(212,333,o),
(284,333,cs),
(356,333,o),
(392,296,o),
(392,227,cs)
);
},
{
attr = {
lineCapEnd = "2";
lineCapStart = "2";
strokeHeight = 130;
strokeWidth = 130;
};
closed = 0;
nodes = (
(491,672,l),
(101,496,l)
);
},
{
closed = 1;
nodes = (
(35,99,o),
(140,-15,o),
(284,-15,cs),
(426,-15,o),
(545,75,o),
(545,266,cs),
(545,459,o),
(401,606,o),
(253,709,cs),
(231,725,o),
(211,730,o),
(193,730,cs),
(122,730,o),
(116,651,o),
(151,621,cs),
(251,535,o),
(361,469,o),
(409,290,c),
(480,382,l),
(433,435,o),
(362,470,o),
(284,470,cs),
(140,470,o),
(35,358,o),
(35,221,cs)
);
}
);
};
layerId = "6242D68C-0A25-4F05-8F2A-2075F7C4A210";
shapes = (
{
closed = 1;
nodes = (
(426,-15,o),
(545,75,o),
(545,266,cs),
(545,459,o),
(401,606,o),
(253,709,cs),
(231,725,o),
(211,730,o),
(193,730,cs),
(122,730,o),
(116,651,o),
(151,621,cs),
(251,535,o),
(395,459,o),
(409,290,c),
(480,382,l),
(433,435,o),
(362,465,o),
(284,465,cs),
(140,465,o),
(35,358,o),
(35,221,cs),
(35,99,o),
(140,-15,o),
(284,-15,cs)
);
},
{
closed = 1;
nodes = (
(226,122,o),
(179,167,o),
(179,227,cs),
(179,287,o),
(226,333,o),
(287,333,cs),
(348,333,o),
(395,287,o),
(395,227,cs),
(395,167,o),
(348,122,o),
(287,122,cs)
);
},
{
closed = 1;
nodes = (
(461,602,ls),
(483,611,o),
(497,635,o),
(498,661,cs),
(499,692,o),
(470,721,o),
(434,721,cs),
(424,721,o),
(414,718,o),
(406,715,cs),
(138,604,ls),
(116,595,o),
(101,571,o),
(100,550,cs),
(98,493,o),
(157,476,o),
(193,491,cs)
);
}
);
width = 607;
},
{
anchors = (
{
name = bottom;
pos = (256,0);
},
{
name = top;
pos = (256,730);
}
);
background = {
shapes = (
{
closed = 1;
nodes = (
(402,93,o),
(338,29,o),
(241,29,cs),
(144,29,o),
(80,93,o),
(81,221,cs),
(82,345,o),
(144,408,o),
(241,408,cs),
(338,408,o),
(402,345,o),
(402,221,cs)
);
},
{
attr = {
lineCapEnd = "2";
lineCapStart = "2";
strokeHeight = 45;
strokeWidth = 45;
};
closed = 0;
nodes = (
(399,654,l),
(116,518,l)
);
},
{
closed = 1;
nodes = (
(35,72,o),
(123,-15,o),
(241,-15,cs),
(359,-15,o),
(450,61,o),
(450,246,cs),
(450,581,o),
(251,675,o),
(111,720,cs),
(91,726,o),
(82,713,o),
(82,700,cs),
(82,688,o),
(93,684,o),
(100,681,cs),
(204,640,o),
(340,585,o),
(397,375,c),
(399,380,l),
(353,434,o),
(290,452,o),
(241,452,cs),
(123,452,o),
(35,365,o),
(35,221,cs)
);
}
);
};
layerId = "3D52442A-254C-4C79-B742-A98FD72DF947";
shapes = (
{
closed = 1;
nodes = (
(359,-15,o),
(450,61,o),
(450,246,cs),
(450,581,o),
(251,675,o),
(111,720,cs),
(91,726,o),
(82,713,o),
(82,700,cs),
(82,688,o),
(93,684,o),
(100,681,cs),
(204,640,o),
(340,585,o),
(397,375,c),
(399,380,l),
(353,434,o),
(290,452,o),
(241,452,cs),
(123,452,o),
(35,365,o),
(35,221,cs),
(35,72,o),
(123,-15,o),
(241,-15,cs)
);
},
{
closed = 1;
nodes = (
(144,29,o),
(80,93,o),
(81,221,cs),
(82,345,o),
(144,408,o),
(241,408,cs),
(338,408,o),
(402,345,o),
(402,221,cs),
(402,93,o),
(338,29,o),
(241,29,cs)
);
},
{
closed = 1;
nodes = (
(390.916,625.152,ls),
(398,629,o),
(403.248,636.461,o),
(403.248,645.229,cs),
(403.248,657.655,o),
(393.175,667.729,o),
(380.748,667.729,cs),
(377.089,667.729,o),
(374,667,o),
(370.58,665.306,cs),
(124.084,546.848,ls),
(117,543,o),
(111.752,535.539,o),
(111.752,526.771,cs),
(112,510,o),
(130,500,o),
(148,509,cs)
);
}
);
width = 512;
},
{
anchors = (
{
name = bottom;
pos = (273,0);
},
{
name = top;
pos = (273,730);
}
);
layerId = "DB110BCC-92E3-410E-8C20-9F3FFF600FD0";
shapes = (
{
closed = 1;
nodes = (
(383,-14,o),
(484,71,o),
(484,249,cs),
(484,592,o),
(240,695,o),
(138,719,cs),
(117,722,o),
(101,710,o),
(99,693,cs),
(90,679,o),
(100,660,o),
(115,653,cs),
(246,608,o),
(360,520,o),
(400,366,c),
(417,389,l),
(374,432,o),
(316,455,o),
(258,455,cs),
(133,455,o),
(35,358,o),
(35,221,cs),
(35,84,o),
(133,-14,o),
(258,-14,cs)
);
},
{
closed = 1;
nodes = (
(169,63,o),
(115,120,o),
(115,222,cs),
(115,323,o),
(169,379,o),
(258,379,cs),
(347,379,o),
(401,323,o),
(401,222,cs),
(401,120,o),
(347,63,o),
(258,63,cs)
);
},
{
closed = 1;
nodes = (
(434,623,ls),
(446,628,o),
(454,641,o),
(454,655,cs),
(454,674,o),
(438,690,o),
(418,690,cs),
(413,690,o),
(407,689,o),
(403,687,cs),
(129,556,ls),
(117,551,o),
(109,539,o),
(109,524,cs),
(109,496,o),
(142,484,o),
(160,493,cs)
);
}
);
width = 545.75;
}
);
unicode = 240;
},
{
glyphname = e;
kernLeft = o;
kernRight = e;
lastChange = "2024-07-07 15:12:08 +0000";
layers = (
{
anchors = (
{
name = bottom;
pos = (285,0);
},
{
name = ogonek;
pos = (319,0);
},
{
name = top;
pos = (287,515);
}
);
background = {
shapes = (
{
closed = 1;
nodes = (
(415,-15,o),
(516,42,o),
(516,108,cs),
(516,151,o),
(487,175,o),
(448,175,cs),
(419,175,o),
(403,161,o),
(387,149,cs),
(364,131,o),
(345,119,o),
(311,119,cs),
(257,119,o),
(212,147,o),
(197,214,c),
(446,214,ls),
(504,214,o),
(533,247,o),
(533,303,cs),
(533,401,o),
(441,530,o),
(287,530,cs),
(133,530,o),
(40,404,o),
(40,256,cs),
(40,96,o),
(145,-15,o),
(293,-15,cs)
);
},
{
closed = 1;
nodes = (
(207,372,o),
(240,397,o),
(289,397,cs),
(337,397,o),
(372,372,o),
(381,314,c),
(196,314,l)
);
}
);
};
layerId = "6242D68C-0A25-4F05-8F2A-2075F7C4A210";
shapes = (
{
closed = 1;
nodes = (
(415,-15,o),
(516,42,o),
(516,108,cs),
(516,151,o),
(487,175,o),
(448,175,cs),
(419,175,o),
(403,161,o),
(387,149,cs),
(364,131,o),
(345,119,o),
(311,119,cs),
(257,119,o),
(212,147,o),
(197,214,c),
(446,214,ls),
(504,214,o),
(533,247,o),
(533,303,cs),
(533,401,o),
(441,530,o),
(287,530,cs),
(133,530,o),
(40,404,o),
(40,256,cs),
(40,96,o),
(145,-15,o),
(293,-15,cs)
);
},
{
closed = 1;
nodes = (
(207,372,o),
(240,397,o),
(289,397,cs),
(337,397,o),
(372,372,o),
(381,314,c),
(196,314,l)
);
}
);
width = 573;
},
{
anchors = (
{
name = bottom;
pos = (259,0);
},
{
name = ogonek;
pos = (332,0);
},
{
name = top;
pos = (267,515);
}
);
background = {
shapes = (
{
closed = 1;
nodes = (
(408,-15,o),
(471,73,o),
(471,120,cs),
(471,136,o),
(464,147,o),
(450,147,cs),
(437,147,o),
(429,138,o),
(427,128,cs),
(415,70,o),
(364,29,o),
(281,29,cs),
(183,29,o),
(95,86,o),
(90,243,c),
(438,243,ls),
(472,243,o),
(478,255,o),
(478,291,cs),
(478,423,o),
(399,530,o),
(267,530,cs),
(139,530,o),
(45,430,o),
(45,254,cs),
(45,68,o),
(149,-15,o),
(277,-15,cs)
);
},
{
closed = 1;
nodes = (
(100,419,o),
(172,485,o),
(267,485,cs),
(364,485,o),
(429,416,o),
(434,286,c),
(91,286,l)
);
}
);
};
layerId = "3D52442A-254C-4C79-B742-A98FD72DF947";
shapes = (
{
closed = 1;
nodes = (
(408,-15,o),
(471,73,o),
(471,120,cs),
(471,136,o),
(464,147,o),
(450,147,cs),
(437,147,o),
(429,138,o),
(427,128,cs),
(415,70,o),
(364,29,o),
(281,29,cs),
(183,29,o),
(95,86,o),
(90,243,c),
(438,243,ls),
(472,243,o),
(478,255,o),
(478,291,cs),
(478,423,o),
(399,530,o),
(267,530,cs),
(139,530,o),
(45,430,o),
(45,254,cs),
(45,68,o),
(149,-15,o),
(277,-15,cs)
);
},
{
closed = 1;
nodes = (
(100,419,o),
(172,485,o),
(267,485,cs),
(364,485,o),
(429,416,o),
(434,286,c),
(91,286,l)
);
}
);
width = 523;
},
{
anchors = (
{
name = bottom;
pos = (262,0);
},
{
name = ogonek;
pos = (313,0);
},
{
name = top;
pos = (271,515);
}
);
background = {
shapes = (
{
closed = 1;
nodes = (
(412,-15,o),
(477,75,o),
(480,128,cs),
(481,155,o),
(467,173,o),
(444,173,cs),
(424,173,o),
(413,160,o),
(407,144,cs),
(391,99,o),
(349,60,o),
(277,60,cs),
(197,60,o),
(130,109,o),
(122,232,c),
(434,232,ls),
(479,232,o),
(490,257,o),
(490,296,cs),
(490,415,o),
(405,530,o),
(269,530,cs),
(137,530,o),
(40,421,o),
(40,253,cs),
(40,76,o),
(148,-15,o),
(280,-15,cs)
);
},
{
closed = 1;
nodes = (
(135,404,o),
(192,456,o),
(268,456,cs),
(353,456,o),
(404,391,o),
(413,301,c),
(123,301,l)
);
}
);
};
layerId = "DB110BCC-92E3-410E-8C20-9F3FFF600FD0";
shapes = (
{
closed = 1;
nodes = (
(412,-15,o),
(477,75,o),
(480,128,cs),
(481,155,o),
(467,173,o),
(444,173,cs),
(424,173,o),
(413,160,o),
(407,144,cs),
(391,99,o),
(349,60,o),
(277,60,cs),
(197,60,o),
(130,109,o),
(122,232,c),
(434,232,ls),
(479,232,o),
(490,257,o),
(490,296,cs),
(490,415,o),
(405,530,o),
(269,530,cs),
(137,530,o),
(40,421,o),
(40,253,cs),
(40,76,o),
(148,-15,o),
(280,-15,cs)
);
},
{
closed = 1;
nodes = (
(135,404,o),
(192,456,o),
(268,456,cs),
(353,456,o),
(404,391,o),
(413,301,c),
(123,301,l)
);
}
);
width = 530;
}
);
metricLeft = "=o";
metricRight = o;
unicode = 101;
},
{
glyphname = eogonek;
kernLeft = o;
kernRight = e;
lastChange = "2024-06-17 18:15:40 +0000";
layers = (
{
anchors = (
{
name = top;
pos = (284,515);
}
);
background = {
anchors = (
{
name = top;
pos = (284,515);
}
);
shapes = (
{
closed = 1;
nodes = (
(360,61,l),
(324,23,ls),
(304,2,o),
(248,-53,o),
(248,-119,cs),
(248,-182,o),
(297,-213,o),
(348,-215,cs),
(370,-216,o),
(403,-212,o),
(434,-180,cs),
(442,-172,o),
(448,-159,o),
(448,-147,cs),
(448,-129,o),
(435,-112,o),
(413,-112,cs),
(401,-112,o),
(392,-117,o),
(385,-124,cs),
(370,-139,o),
(359,-140,o),
(353,-140,cs),
(327,-140,o),
(323,-124,o),
(323,-113,cs),
(323,-71,o),
(384,-6,o),
(424,41,cs),
(441,61,l)
);
},
{
ref = e;
},
{
closed = 1;
nodes = (
(359,80,l),
(353,53,ls),
(341,1,o),
(227,0,o),
(227,-108,cs),
(227,-178,o),
(285,-215,o),
(363,-215,cs),
(412,-215,o),
(456,-198,o),
(481,-172,cs),
(498,-155,o),
(504,-137,o),
(504,-119,cs),
(504,-80,o),
(473,-57,o),
(438,-57,cs),
(418,-57,o),
(401,-65,o),
(387,-77,cs),
(379,-84,o),
(364,-94,o),
(351,-94,cs),
(343,-94,o),
(337,-89,o),
(337,-81,cs),
(337,-48,o),
(439,3,o),
(483,45,c),
(477,75,l)
);
}
);
};
layerId = "6242D68C-0A25-4F05-8F2A-2075F7C4A210";
shapes = (
{
ref = e;
},
{
pos = (147,0);
ref = ogonekcomb;
}
);
width = 573;
},
{
anchors = (
{
name = top;
pos = (259,515);
}
);
background = {
anchors = (
{
name = top;
pos = (259,515);
}
);
shapes = (
{
closed = 1;
nodes = (
(370,61,l),
(334,23,ls),
(314,2,o),
(258,-53,o),
(258,-119,cs),
(258,-182,o),
(307,-213,o),
(358,-215,cs),
(380,-216,o),
(413,-212,o),
(444,-180,cs),
(452,-172,o),
(458,-159,o),
(458,-147,cs),
(458,-129,o),
(445,-112,o),
(423,-112,cs),
(411,-112,o),
(402,-117,o),
(395,-124,cs),
(380,-139,o),
(369,-140,o),
(363,-140,cs),
(337,-140,o),
(333,-124,o),
(333,-113,cs),
(333,-71,o),
(394,-6,o),
(434,41,cs),
(451,61,l)
);
},
{
pos = (10,0);
ref = e;
},
{
closed = 1;
nodes = (
(376,56,l),
(335,13,ls),
(306,-18,o),
(251,-62,o),
(251,-128,cs),
(251,-184,o),
(293,-215,o),
(343,-215,cs),
(380,-215,o),
(407,-200,o),
(426,-175,cs),
(430,-169,o),
(434,-164,o),
(434,-155,cs),
(434,-143,o),
(426,-136,o),
(416,-136,cs),
(406,-136,o),
(401,-142,o),
(396,-147,cs),
(377,-166,o),
(364,-174,o),
(345,-174,cs),
(314,-174,o),
(297,-155,o),
(297,-129,cs),
(297,-88,o),
(337,-43,o),
(378,5,cs),
(403,34,l)
);
}
);
};
layerId = "3D52442A-254C-4C79-B742-A98FD72DF947";
shapes = (
{
ref = e;
},
{
pos = (190,0);
ref = ogonekcomb;
}
);
width = 523;
},
{
anchors = (
{
name = top;
pos = (261,515);
}
);
layerId = "DB110BCC-92E3-410E-8C20-9F3FFF600FD0";
shapes = (
{
ref = e;
},
{
pos = (158,0);
ref = ogonekcomb;
}
);
width = 530;
}
);
metricLeft = "=e";
metricRight = "=e";
unicode = 281;
},
{
glyphname = f;
kernLeft = f;
kernRight = f;
lastChange = "2024-06-17 18:15:40 +0000";
layers = (
{
anchors = (
{
name = bottom;
pos = (212,0);
},
{
name = top;
pos = (212,730);
}
);
background = {
shapes = (
{
closed = 1;
nodes = (
(233,-10,o),
(267,24,o),
(267,65,cs),
(267,558,ls),
(267,566,o),
(267,575,o),
(276,580,cs),
(283,584,o),
(289,584,o),
(297,584,cs),
(309,584,o),
(325,578,o),
(343,578,cs),
(380,578,o),
(414,603,o),
(414,644,cs),
(414,708,o),
(340,735,o),
(278,735,cs),
(170,735,o),
(117,660,o),
(117,579,cs),
(117,65,ls),
(117,24,o),
(151,-10,o),
(192,-10,cs)
);
}
);
};
layerId = "6242D68C-0A25-4F05-8F2A-2075F7C4A210";
shapes = (
{
closed = 1;
nodes = (
(233,-10,o),
(267,24,o),
(267,65,cs),
(267,561,ls),
(267,578,o),
(268,590,o),
(279,590,cs),
(292,590,o),
(311,571,o),
(345,571,cs),
(386,571,o),
(414,599,o),
(414,641,cs),
(414,708,o),
(340,735,o),
(276,735,cs),
(170,735,o),
(117,660,o),
(117,579,cs),
(117,65,ls),
(117,24,o),
(151,-10,o),
(192,-10,cs)
);
},
{
closed = 1;
nodes = (
(342,385,ls),
(378,385,o),
(407,414,o),
(407,450,cs),
(407,486,o),
(378,515,o),
(342,515,cs),
(85,515,ls),
(49,515,o),
(20,486,o),
(20,450,cs),
(20,414,o),
(49,385,o),
(85,385,cs)
);
}
);
width = 424;
},
{
anchors = (
{
name = bottom;
pos = (150,0);
},
{
name = top;
pos = (150,730);
}
);
background = {
shapes = (
{
closed = 1;
nodes = (
(140,-10,o),
(151,0,o),
(151,12,cs),
(151,630,ls),
(151,663,o),
(160,690,o),
(200,690,cs),
(212,690,o),
(227,685,o),
(239,667,cs),
(243,661,o),
(250,657,o),
(258,657,cs),
(269,657,o),
(279,663,o),
(279,680,cs),
(279,699,o),
(245,735,o),
(197,735,cs),
(125,735,o),
(106,674,o),
(106,630,cs),
(106,12,ls),
(106,0,o),
(116,-10,o),
(128,-10,cs)
);
}
);
};
layerId = "3D52442A-254C-4C79-B742-A98FD72DF947";
shapes = (
{
closed = 1;
nodes = (
(140,-10,o),
(151,0,o),
(151,12,cs),
(151,630,ls),
(151,663,o),
(160,690,o),
(200,690,cs),
(238,690,o),
(234,657,o),
(258,657,cs),
(271,657,o),
(279,666,o),
(279,680,cs),
(279,699,o),
(245,735,o),
(197,735,cs),
(125,735,o),
(106,674,o),
(106,630,cs),
(106,12,ls),
(106,0,o),
(116,-10,o),
(128,-10,cs)
);
},
{
closed = 1;
nodes = (
(254,471,ls),
(266,471,o),
(276,480,o),
(276,492,cs),
(276,504,o),
(266,515,o),
(254,515,cs),
(62,515,ls),
(50,515,o),
(40,504,o),
(40,492,cs),
(40,480,o),
(50,471,o),
(62,471,cs)
);
}
);
width = 299;
},
{
anchors = (
{
name = bottom;
pos = (143,0);
},
{
name = top;
pos = (143,730);
}
);
layerId = "DB110BCC-92E3-410E-8C20-9F3FFF600FD0";
shapes = (
{
closed = 1;
nodes = (
(145,-10,o),
(163,8,o),
(163,30,cs),
(163,590,ls),
(163,633,o),
(173,655,o),
(200,655,cs),
(227,655,o),
(229,634,o),
(254,634,cs),
(278,634,o),
(293,651,o),
(293,672,cs),
(293,707,o),
(246,735,o),
(198,735,cs),
(132,735,o),
(82,685,o),
(82,592,cs),
(82,30,ls),
(82,8,o),
(101,-10,o),
(123,-10,cs)
);
},
{
closed = 1;
nodes = (
(251,442,ls),
(272,442,o),
(290,458,o),
(290,478,cs),
(290,498,o),
(272,515,o),
(251,515,cs),
(51,515,ls),
(29,515,o),
(12,499,o),
(12,478,cs),
(12,458,o),
(29,442,o),
(51,442,cs)
);
}
);
width = 293;
}
);
unicode = 102;
},
{
glyphname = g;
kernLeft = o;
kernRight = g;
lastChange = "2024-07-05 14:34:09 +0000";
layers = (
{
anchors = (
{
name = bottom;
pos = (315,-200);
},
{
name = top;
pos = (315,515);
}
);
background = {
shapes = (
{
closed = 1;
nodes = (
(341,1,o),
(392,36,o),
(431,93,c),
(410,105,l),
(411,32,ls),
(412,-38,o),
(373,-70,o),
(292,-70,cs),
(217,-70,o),
(192,-43,o),
(152,-43,cs),
(109,-43,o),
(79,-73,o),
(79,-113,cs),
(79,-142,o),
(94,-160,o),
(117,-175,cs),
(162,-204,o),
(234,-215,o),
(291,-215,cs),
(405,-215,o),
(560,-174,o),
(560,36,cs),
(560,449,ls),
(560,493,o),
(528,525,o),
(485,525,cs),
(442,525,o),
(405,493,o),
(410,449,cs),
(413,421,l),
(435,430,l),
(415,483,o),
(357,530,o),
(269,530,cs),
(114,530,o),
(40,387,o),
(40,260,cs),
(40,128,o),
(118,1,o),
(264,1,cs)
);
},
{
closed = 1;
nodes = (
(234,138,o),
(195,182,o),
(195,267,cs),
(195,352,o),
(234,396,o),
(302,396,cs),
(369,396,o),
(410,354,o),
(410,269,cs),
(410,186,o),
(371,138,o),
(301,138,cs)
);
}
);
};
layerId = "6242D68C-0A25-4F05-8F2A-2075F7C4A210";
shapes = (
{
closed = 1;
nodes = (
(328,1,o),
(374,25,o),
(411,66,c),
(411,32,ls),
(412,-45,o),
(373,-80,o),
(292,-80,cs),
(217,-80,o),
(208,-38,o),
(150,-38,cs),
(106,-38,o),
(79,-70,o),
(79,-110,cs),
(79,-138,o),
(90,-158,o),
(117,-175,cs),
(162,-204,o),
(234,-215,o),
(291,-215,cs),
(449,-215,o),
(560,-125,o),
(560,36,cs),
(560,453,ls),
(560,497,o),
(528,529,o),
(485,529,cs),
(443,529,o),
(411,502,o),
(411,466,cs),
(411,464,l),
(375,511,o),
(334,530,o),
(269,530,cs),
(114,530,o),
(40,387,o),
(40,260,cs),
(40,128,o),
(118,1,o),
(264,1,cs)
);
},
{
closed = 1;
nodes = (
(234,134,o),
(195,176,o),
(195,264,cs),
(195,349,o),
(234,396,o),
(302,396,cs),
(369,396,o),
(410,351,o),
(410,266,cs),
(410,180,o),
(371,134,o),
(301,134,cs)
);
}
);
width = 630;
},
{
anchors = (
{
name = bottom;
pos = (279,-200);
},
{
name = top;
pos = (279,515);
}
);
layerId = "3D52442A-254C-4C79-B742-A98FD72DF947";
shapes = (
{
closed = 1;
nodes = (
(334,-15,o),
(392,9,o),
(433,84,c),
(433,13,ls,{
name = "💚";
}),
(433,-109,o),
(382,-172,o),
(270,-172,cs),
(188,-172,o),
(145,-137,o),
(119,-83,cs),
(115,-75,o),
(108,-71,o),
(98,-71,cs),
(82,-71,o),
(74,-86,o),
(79,-105,cs),
(92,-156,o),
(171,-215,o),
(278,-215,cs),
(413,-215,o),
(478,-121,o),
(478,5,cs),
(478,503,ls,{
name = "💚";
}),
(478,515,o),
(467,525,o),
(455,525,cs),
(443,525,o),
(433,515,o),
(433,503,cs),
(433,442,l),
(398,498,o),
(339,530,o),
(266,530,cs),
(129,530,o),
(45,416,o),
(45,252,cs),
(45,89,o),
(127,-15,o),
(267,-15,cs)
);
},
{
closed = 1;
nodes = (
(159,28,o),
(91,110,o),
(91,251,cs),
(91,380,o),
(148,487,o),
(271,487,cs),
(375,487,o),
(433,411,o),
(433,260,cs),
(433,97,o),
(365,28,o),
(266,28,cs)
);
}
);
width = 558;
},
{
anchors = (
{
name = bottom;
pos = (286,-200);
},
{
name = top;
pos = (286,515);
}
);
layerId = "DB110BCC-92E3-410E-8C20-9F3FFF600FD0";
shapes = (
{
closed = 1;
nodes = (
(327,-15,o),
(385,13,o),
(422,71,c),
(422,20,ls,{
name = "💚";
}),
(422,-72,o),
(380,-138,o),
(273,-138,cs),
(194,-138,o),
(159,-101,o),
(134,-77,cs),
(117,-61,o),
(98,-68,o),
(86,-79,cs),
(72,-93,o),
(71,-111,o),
(83,-131,cs),
(107,-172,o),
(181,-215,o),
(278,-215,cs),
(413,-215,o),
(500,-134,o),
(500,16,cs),
(500,485,ls,{
name = "💚";
}),
(500,508,o),
(483,525,o),
(460,525,cs),
(437,525,o),
(421,508,o),
(421,485,cs),
(421,450,l),
(399,489,o),
(340,530,o),
(261,530,cs),
(125,530,o),
(40,412,o),
(40,255,cs),
(40,99,o),
(123,-15,o),
(259,-15,cs)
);
},
{
closed = 1;
nodes = (
(179,60,o),
(121,134,o),
(121,258,cs),
(121,379,o),
(176,456,o),
(271,456,cs),
(366,456,o),
(421,380,o),
(421,259,cs),
(421,137,o),
(365,60,o),
(271,60,cs)
);
}
);
width = 570;
}
);
metricLeft = o;
metricRight = l;
unicode = 103;
},
{
glyphname = h;
kernLeft = h;
kernRight = n;
lastChange = "2024-06-17 18:15:40 +0000";
layers = (
{
anchors = (
{
name = bottom;
pos = (310,0);
},
{
name = center;
pos = (153,614);
},
{
name = top;
pos = (310,730);
}
);
background = {
shapes = (
{
closed = 1;
nodes = (
(186,-10,o),
(220,24,o),
(220,65,cs),
(220,655,ls),
(220,696,o),
(186,730,o),
(145,730,cs),
(103,730,o),
(70,696,o),
(70,655,cs),
(70,65,ls),
(70,24,o),
(103,-10,o),
(145,-10,cs)
);
},
{
closed = 1;
nodes = (
(181,294,l),
(220,294,l),
(220,339,o),
(251,389,o),
(321,389,cs),
(377,389,o),
(405,357,o),
(405,291,cs),
(405,65,ls),
(405,24,o),
(439,-10,o),
(480,-10,cs),
(521,-10,o),
(555,24,o),
(555,65,cs),
(555,320,ls),
(555,456,o),
(476,530,o),
(362,530,cs),
(295,530,o),
(249,505,o),
(205,441,c)
);
}
);
};
layerId = "6242D68C-0A25-4F05-8F2A-2075F7C4A210";
shapes = (
{
closed = 1;
nodes = (
(186,-10,o),
(220,24,o),
(220,65,cs),
(220,285,ls),
(220,339,o),
(251,389,o),
(317,389,cs),
(374,389,o),
(405,350,o),
(405,291,cs),
(405,65,ls),
(405,24,o),
(439,-10,o),
(480,-10,cs),
(521,-10,o),
(555,24,o),
(555,65,cs),
(555,320,ls),
(555,456,o),
(476,530,o),
(368,530,cs),
(286,530,o),
(230,487,o),
(186,402,c),
(220,391,l),
(220,655,ls),
(220,696,o),
(186,730,o),
(145,730,cs),
(103,730,o),
(70,696,o),
(70,655,cs),
(70,65,ls),
(70,24,o),
(103,-10,o),
(145,-10,cs)
);
}
);
width = 620;
},
{
anchors = (
{
name = bottom;
pos = (273,0);
},
{
name = center;
pos = (118,607);
},
{
name = top;
pos = (273,730);
}
);
background = {
shapes = (
{
closed = 1;
nodes = (
(118,-10,o),
(125,2,o),
(125,17,cs),
(125,703,ls),
(125,718,o),
(118,730,o),
(102,730,cs),
(86,730,o),
(80,718,o),
(80,703,cs),
(80,17,ls),
(80,2,o),
(86,-10,o),
(102,-10,cs)
);
},
{
closed = 1;
nodes = (
(112,335,l),
(125,335,l),
(125,421,o),
(200,487,o),
(300,487,cs),
(373,487,o),
(430,440,o),
(430,349,cs),
(430,17,ls),
(430,2,o),
(437,-10,o),
(452,-10,cs),
(467,-10,o),
(475,2,o),
(475,17,cs),
(475,349,ls),
(475,473,o),
(391,530,o),
(300,530,cs),
(221,530,o),
(153,494,o),
(112,431,c)
);
}
);
};
layerId = "3D52442A-254C-4C79-B742-A98FD72DF947";
shapes = (
{
closed = 1;
nodes = (
(118,-10,o),
(125,2,o),
(125,17,cs),
(125,331,ls),
(125,417,o),
(200,487,o),
(291,487,cs),
(373,487,o),
(430,440,o),
(430,349,cs),
(430,17,ls),
(430,2,o),
(437,-10,o),
(452,-10,cs),
(467,-10,o),
(475,2,o),
(475,17,cs),
(475,349,ls),
(475,473,o),
(391,530,o),
(300,530,cs),
(224,530,o),
(150,492,o),
(117,424,c),
(125,407,l),
(125,703,ls),
(125,718,o),
(118,730,o),
(102,730,cs),
(86,730,o),
(80,718,o),
(80,703,cs),
(80,17,ls),
(80,2,o),
(86,-10,o),
(102,-10,cs)
);
}
);
width = 545;
},
{
anchors = (
{
name = bottom;
pos = (276,0);
},
{
name = center;
pos = (131,607);
},
{
name = top;
pos = (276,730);
}
);
layerId = "DB110BCC-92E3-410E-8C20-9F3FFF600FD0";
shapes = (
{
closed = 1;
nodes = (
(134,-10,o),
(151,8,o),
(151,32,cs),
(151,333,ls),
(151,408,o),
(217,456,o),
(292,456,cs),
(363,456,o),
(411,411,o),
(411,335,cs),
(411,32,ls),
(411,8,o),
(428,-10,o),
(451,-10,cs),
(475,-10,o),
(491,8,o),
(491,32,cs),
(491,338,ls),
(491,461,o),
(410,530,o),
(304,530,cs),
(236,530,o),
(176,500,o),
(134,435,c),
(151,417,l),
(151,689,ls),
(151,713,o),
(134,730,o),
(110,730,cs),
(87,730,o),
(70,713,o),
(70,689,cs),
(70,32,ls),
(70,8,o),
(87,-10,o),
(110,-10,cs)
);
}
);
width = 556;
}
);
metricLeft = "=n";
metricRight = "=n";
unicode = 104;
},
{
glyphname = idotless;
lastChange = "2024-06-17 18:15:40 +0000";
layers = (
{
anchors = (
{
name = bottom;
pos = (145,0);
},
{
name = ogonek;
pos = (98,0);
},
{
name = top;
pos = (145,515);
}
);
layerId = "6242D68C-0A25-4F05-8F2A-2075F7C4A210";
shapes = (
{
closed = 1;
nodes = (
(186,-10,o),
(220,24,o),
(220,66,cs),
(220,450,ls),
(220,491,o),
(186,525,o),
(145,525,cs),
(104,525,o),
(70,491,o),
(70,450,cs),
(70,66,ls),
(70,24,o),
(104,-10,o),
(145,-10,cs)
);
}
);
width = 290;
},
{
anchors = (
{
name = bottom;
pos = (91,0);
},
{
name = ogonek;
pos = (74,0);
},
{
name = top;
pos = (91,515);
}
);
layerId = "3D52442A-254C-4C79-B742-A98FD72DF947";
shapes = (
{
closed = 1;
nodes = (
(103,-10,o),
(113,-1,o),
(113,12,cs),
(113,503,ls),
(113,516,o),
(103,525,o),
(90,525,cs),
(77,525,o),
(68,516,o),
(68,503,cs),
(68,12,ls),
(68,-1,o),
(77,-10,o),
(90,-10,cs)
);
}
);
width = 181;
},
{
anchors = (
{
name = bottom;
pos = (111,0);
},
{
name = ogonek;
pos = (83,0);
},
{
name = top;
pos = (111,515);
}
);
layerId = "DB110BCC-92E3-410E-8C20-9F3FFF600FD0";
shapes = (
{
closed = 1;
nodes = (
(134,-10,o),
(151,7,o),
(151,30,cs),
(151,485,ls),
(151,508,o),
(134,525,o),
(111,525,cs),
(87,525,o),
(70,508,o),
(70,485,cs),
(70,30,ls),
(70,7,o),
(87,-10,o),
(111,-10,cs)
);
}
);
width = 221;
}
);
unicode = 305;
},
{
glyphname = iogonek;
kernLeft = i;
kernRight = i;
lastChange = "2024-06-17 18:15:40 +0000";
layers = (
{
layerId = "6242D68C-0A25-4F05-8F2A-2075F7C4A210";
shapes = (
{
ref = idotless;
},
{
pos = (-4,0);
ref = dotaccentcomb;
},
{
pos = (-74,0);
ref = ogonekcomb;
}
);
width = 290;
},
{
background = {
shapes = (
{
closed = 1;
nodes = (
(943,-215,o),
(968,-200,o),
(987,-175,cs),
(991,-169,o),
(995,-164,o),
(995,-155,cs),
(995,-143,o),
(987,-136,o),
(977,-136,cs),
(967,-136,o),
(962,-142,o),
(957,-147,cs),
(938,-166,o),
(925,-174,o),
(906,-174,cs),
(875,-174,o),
(859,-155,o),
(859,-130,cs),
(859,-78,o),
(931,-47,o),
(931,5,cs),
(931,88,l),
(886,88,l),
(886,13,ls),
(886,-28,o),
(814,-62,o),
(814,-131,cs),
(814,-184,o),
(854,-215,o),
(904,-215,cs)
);
}
);
};
layerId = "3D52442A-254C-4C79-B742-A98FD72DF947";
shapes = (
{
ref = idotless;
},
{
pos = (-18,0);
ref = dotaccentcomb;
},
{
pos = (-68,0);
ref = ogonekcomb;
}
);
width = 181;
},
{
layerId = "DB110BCC-92E3-410E-8C20-9F3FFF600FD0";
shapes = (
{
ref = idotless;
},
{
pos = (-10,0);
ref = dotaccentcomb;
},
{
pos = (-72,0);
ref = ogonekcomb;
}
);
width = 221;
}
);
metricLeft = "=i-20";
metricRight = "=i-20";
unicode = 303;
},
{
glyphname = j;
kernLeft = j;
kernRight = j;
lastChange = "2024-06-17 18:15:40 +0000";
layers = (
{
background = {
shapes = (
{
closed = 1;
nodes = (
(210,-215,o),
(263,-140,o),
(263,-59,cs),
(263,450,ls),
(263,493,o),
(231,525,o),
(188,525,cs),
(145,525,o),
(113,493,o),
(113,450,cs),
(113,-48,ls),
(113,-56,o),
(112,-68,o),
(101,-68,cs),
(96,-68,o),
(88,-65,o),
(80,-60,cs),
(68,-53,o),
(55,-49,o),
(41,-49,cs),
(0,-49,o),
(-34,-83,o),
(-34,-124,cs),
(-34,-188,o),
(40,-215,o),
(102,-215,cs)
);
}
);
};
guides = (
{
pos = (241,658);
},
{
pos = (493,658);
}
);
layerId = "6242D68C-0A25-4F05-8F2A-2075F7C4A210";
shapes = (
{
ref = jdotless;
},
{
pos = (18,0);
ref = dotaccentcomb;
}
);
width = 307;
},
{
guides = (
{
pos = (221,658);
}
);
layerId = "3D52442A-254C-4C79-B742-A98FD72DF947";
shapes = (
{
ref = jdotless;
},
{
pos = (-7,0);
ref = dotaccentcomb;
}
);
width = 189;
},
{
layerId = "DB110BCC-92E3-410E-8C20-9F3FFF600FD0";
shapes = (
{
ref = jdotless;
},
{
pos = (4,0);
ref = dotaccentcomb;
}
);
width = 230;
}
);
metricRight = "=i-5";
unicode = 106;
},
{
glyphname = jdotless;
kernLeft = j;
kernRight = j;
lastChange = "2024-06-17 18:15:40 +0000";
layers = (
{
anchors = (
{
name = bottom;
pos = (141,-200);
},
{
name = top;
pos = (167,515);
}
);
layerId = "6242D68C-0A25-4F05-8F2A-2075F7C4A210";
shapes = (
{
closed = 1;
nodes = (
(189,-215,o),
(242,-140,o),
(242,-59,cs),
(242,450,ls),
(242,491,o),
(208,525,o),
(167,525,cs),
(126,525,o),
(92,491,o),
(92,450,cs),
(92,-48,ls),
(92,-56,o),
(91,-68,o),
(80,-68,cs),
(66,-68,o),
(51,-49,o),
(20,-49,cs),
(-21,-49,o),
(-55,-83,o),
(-55,-124,cs),
(-55,-154,o),
(-38,-176,o),
(-14,-191,cs),
(13,-208,o),
(48,-215,o),
(81,-215,cs)
);
}
);
width = 307;
},
{
anchors = (
{
name = bottom;
pos = (85,-200);
},
{
name = top;
pos = (102,515);
}
);
layerId = "3D52442A-254C-4C79-B742-A98FD72DF947";
shapes = (
{
closed = 1;
nodes = (
(105,-215,o),
(124,-154,o),
(124,-110,cs),
(124,502,ls),
(124,514,o),
(114,525,o),
(102,525,cs),
(90,525,o),
(79,514,o),
(79,502,cs),
(79,-110,ls),
(79,-143,o),
(70,-169,o),
(33,-169,cs),
(18,-169,o),
(3,-165,o),
(-9,-147,cs),
(-13,-141,o),
(-21,-137,o),
(-28,-137,cs),
(-40,-137,o),
(-50,-148,o),
(-50,-161,cs),
(-50,-188,o),
(-7,-215,o),
(38,-215,cs)
);
}
);
width = 189;
},
{
anchors = (
{
name = bottom;
pos = (110,-200);
},
{
name = top;
pos = (125,515);
}
);
layerId = "DB110BCC-92E3-410E-8C20-9F3FFF600FD0";
shapes = (
{
closed = 1;
nodes = (
(124,-215,o),
(165,-166,o),
(165,-91,cs),
(165,485,ls),
(165,507,o),
(147,525,o),
(125,525,cs),
(103,525,o),
(85,507,o),
(85,485,cs),
(85,-89,ls),
(85,-117,o),
(81,-135,o),
(56,-135,cs),
(33,-135,o),
(28,-119,o),
(4,-115,cs),
(-17,-113,o),
(-33,-128,o),
(-34,-145,cs),
(-37,-157,o),
(-35,-168,o),
(-27,-180,cs),
(-11,-202,o),
(23,-215,o),
(55,-215,cs)
);
}
);
width = 230;
}
);
unicode = 567;
},
{
glyphname = k;
kernLeft = h;
kernRight = k;
lastChange = "2024-07-07 15:18:53 +0000";
layers = (
{
anchors = (
{
name = bottom;
pos = (286,0);
},
{
name = top;
pos = (286,730);
}
);
layerId = "6242D68C-0A25-4F05-8F2A-2075F7C4A210";
shapes = (
{
closed = 1;
nodes = (
(186,-10,o),
(220,24,o),
(220,65,cs),
(220,655,ls),
(220,696,o),
(186,730,o),
(145,730,cs),
(104,730,o),
(70,696,o),
(70,655,cs),
(70,65,ls),
(70,24,o),
(104,-10,o),
(145,-10,cs)
);
},
{
closed = 1;
nodes = (
(163,113,l),
(508,394,ls),
(524,407,o),
(535,430,o),
(535,452,cs),
(535,493,o),
(501,526,o),
(460,526,cs),
(442,526,o),
(424,520,o),
(411,509,cs),
(163,307,l)
);
},
{
closed = 1;
nodes = (
(507,-10,o),
(541,24,o),
(541,65,cs),
(541,80,o),
(536,96,o),
(527,108,cs,{
name = "💚";
}),
(362,344,l),
(246,253,l),
(405,22,ls),
(418,3,o),
(442,-10,o),
(466,-10,cs)
);
}
);
width = 571;
},
{
anchors = (
{
name = bottom;
pos = (241,0);
},
{
name = top;
pos = (241,730);
}
);
background = {
shapes = (
{
closed = 1;
nodes = (
(451,-10,o),
(461,1,o),
(461,14,cs),
(461,27,o),
(451,37,o),
(438,37,cs),
(425,37,o),
(414,27,o),
(414,14,cs),
(414,1,o),
(425,-10,o),
(438,-10,cs)
);
}
);
};
layerId = "3D52442A-254C-4C79-B742-A98FD72DF947";
shapes = (
{
closed = 1;
nodes = (
(118,-10,o),
(125,2,o),
(125,17,cs),
(125,703,ls),
(125,718,o),
(118,730,o),
(102,730,cs),
(86,730,o),
(80,718,o),
(80,703,cs),
(80,17,ls),
(80,2,o),
(86,-10,o),
(102,-10,cs)
);
},
{
closed = 1;
nodes = (
(104,227,l),
(403,476,ls,{
name = "💚";
}),
(408,480,o),
(411,486,o),
(411,493,cs),
(411,507,o),
(403,515,o),
(388,515,cs),
(382,515,o),
(377,513,o),
(373,510,cs,{
name = "💚";
}),
(104,285,l)
);
},
{
closed = 1;
nodes = (
(427,-10,o),
(441,-2,o),
(441,13,cs),
(441,19,o),
(440,23,o),
(436,29,cs),
(229,354,l),
(193,323,l),
(395,4,ls),
(401,-6,o),
(408,-10,o),
(418,-10,cs)
);
}
);
width = 481;
},
{
anchors = (
{
name = bottom;
pos = (252,0);
},
{
name = top;
pos = (252,730);
}
);
layerId = "DB110BCC-92E3-410E-8C20-9F3FFF600FD0";
shapes = (
{
closed = 1;
nodes = (
(134,-10,o),
(151,8,o),
(151,32,cs),
(151,689,ls),
(151,713,o),
(134,730,o),
(110,730,cs),
(87,730,o),
(70,713,o),
(70,689,cs),
(70,32,ls),
(70,8,o),
(87,-10,o),
(110,-10,cs)
);
},
{
closed = 1;
nodes = (
(123,196,l),
(433,447,ls,{
name = "💚";
}),
(442,454,o),
(447,466,o),
(447,478,cs),
(447,500,o),
(431,517,o),
(408,517,cs),
(398,517,o),
(389,514,o),
(382,508,cs,{
name = "💚";
}),
(123,297,l)
);
},
{
closed = 1;
nodes = (
(456,-10,o),
(475,8,o),
(475,31,cs),
(475,39,o),
(472,47,o),
(467,54,cs),
(263,349,l),
(200,300,l),
(402,9,ls),
(409,-3,o),
(421,-10,o),
(435,-10,cs)
);
}
);
width = 504.75;
}
);
metricLeft = "=h";
unicode = 107;
},
{
glyphname = kgreenlandic;
kernLeft = n;
kernRight = k;
lastChange = "2024-06-17 18:15:40 +0000";
layers = (
{
anchors = (
{
name = bottom;
pos = (270,0);
},
{
name = top;
pos = (270,515);
}
);
layerId = "6242D68C-0A25-4F05-8F2A-2075F7C4A210";
shapes = (
{
closed = 1;
nodes = (
(186,-6,o),
(220,28,o),
(220,69,cs),
(220,446,ls),
(220,487,o),
(186,521,o),
(145,521,cs),
(104,521,o),
(70,487,o),
(70,446,cs),
(70,69,ls),
(70,28,o),
(104,-6,o),
(145,-6,cs)
);
},
{
closed = 1;
nodes = (
(143,74,l),
(469,385,ls),
(484,399,o),
(493,420,o),
(493,441,cs),
(493,482,o),
(459,515,o),
(418,515,cs),
(398,515,o),
(375,507,o),
(355,486,cs),
(143,273,l)
);
},
{
closed = 1;
nodes = (
(476,0,o),
(510,34,o),
(510,75,cs),
(510,90,o),
(506,105,o),
(496,118,cs),
(334,323,l),
(228,217,l),
(374,32,ls),
(389,13,o),
(411,0,o),
(435,0,cs)
);
}
);
width = 540;
},
{
anchors = (
{
name = bottom;
pos = (232,0);
},
{
name = top;
pos = (232,515);
}
);
layerId = "3D52442A-254C-4C79-B742-A98FD72DF947";
shapes = (
{
closed = 1;
nodes = (
(117,-5,o),
(125,7,o),
(125,22,cs),
(125,493,ls),
(125,508,o),
(117,520,o),
(102,520,cs),
(87,520,o),
(80,508,o),
(80,493,cs),
(80,22,ls),
(80,7,o),
(87,-5,o),
(102,-5,cs)
);
},
{
closed = 1;
nodes = (
(99,210,l),
(395,472,ls),
(402,478,o),
(406,485,o),
(406,493,cs),
(406,506,o),
(397,515,o),
(383,515,cs),
(375,515,o),
(367,509,o),
(356,499,cs),
(98,269,l)
);
},
{
closed = 1;
nodes = (
(413,0,o),
(423,9,o),
(423,21,cs),
(423,28,o),
(420,34,o),
(416,39,cs),
(190,312,l),
(153,285,l),
(378,13,ls),
(383,6,o),
(392,0,o),
(401,0,cs)
);
}
);
width = 463;
},
{
anchors = (
{
name = bottom;
pos = (243,0);
},
{
name = top;
pos = (243,515);
}
);
layerId = "DB110BCC-92E3-410E-8C20-9F3FFF600FD0";
shapes = (
{
closed = 1;
nodes = (
(133,-6,o),
(151,13,o),
(151,36,cs),
(151,480,ls),
(151,503,o),
(133,521,o),
(110,521,cs),
(88,521,o),
(70,503,o),
(70,480,cs),
(70,36,ls),
(70,13,o),
(88,-6,o),
(110,-6,cs)
);
},
{
closed = 1;
nodes = (
(130,156,l),
(425,445,ls),
(433,453,o),
(439,464,o),
(439,476,cs),
(439,498,o),
(421,515,o),
(399,515,cs),
(388,515,o),
(375,510,o),
(361,496,cs),
(130,264,l)
);
},
{
closed = 1;
nodes = (
(437,0,o),
(455,18,o),
(455,40,cs),
(455,49,o),
(452,58,o),
(447,64,cs),
(257,324,l),
(197,272,l),
(382,18,ls),
(390,8,o),
(402,0,o),
(416,0,cs)
);
}
);
width = 485.125;
}
);
metricLeft = "=h";
metricRight = "=k";
unicode = 312;
},
{
glyphname = l;
kernLeft = h;
kernRight = l;
lastChange = "2024-07-07 15:22:30 +0000";
layers = (
{
anchors = (
{
name = bottom;
pos = (145,0);
},
{
name = center;
pos = (145,354);
},
{
name = top;
pos = (145,730);
},
{
name = topright;
pos = (270,730);
}
);
layerId = "6242D68C-0A25-4F05-8F2A-2075F7C4A210";
shapes = (
{
closed = 1;
nodes = (
(188,-10,o),
(220,23,o),
(220,66,cs),
(220,655,ls),
(220,698,o),
(188,730,o),
(145,730,cs),
(102,730,o),
(70,698,o),
(70,655,cs),
(70,66,ls),
(70,23,o),
(102,-10,o),
(145,-10,cs)
);
}
);
width = 290;
},
{
anchors = (
{
name = bottom;
pos = (103,0);
},
{
name = center;
pos = (103,378);
},
{
name = top;
pos = (103,730);
},
{
name = topright;
pos = (168,730);
}
);
layerId = "3D52442A-254C-4C79-B742-A98FD72DF947";
shapes = (
{
closed = 1;
nodes = (
(118,-10,o),
(125,2,o),
(125,17,cs),
(125,703,ls),
(125,718,o),
(118,730,o),
(102,730,cs),
(86,730,o),
(80,718,o),
(80,703,cs),
(80,17,ls),
(80,2,o),
(86,-10,o),
(102,-10,cs)
);
}
);
width = 205;
},
{
anchors = (
{
name = bottom;
pos = (111,0);
},
{
name = center;
pos = (111,365);
},
{
name = top;
pos = (111,730);
},
{
name = topright;
pos = (208,730);
}
);
layerId = "DB110BCC-92E3-410E-8C20-9F3FFF600FD0";
shapes = (
{
closed = 1;
nodes = (
(133,-10,o),
(151,9,o),
(151,32,cs),
(151,689,ls),
(151,712,o),
(133,730,o),
(110,730,cs),
(87,730,o),
(70,712,o),
(70,689,cs),
(70,32,ls),
(70,9,o),
(87,-10,o),
(110,-10,cs)
);
}
);
width = 221;
}
);
unicode = 108;
},
{
glyphname = m;
kernLeft = n;
kernRight = n;
lastChange = "2024-06-17 18:15:40 +0000";
layers = (
{
anchors = (
{
name = bottom;
pos = (467,0);
},
{
name = top;
pos = (467,515);
}
);
background = {
shapes = (
{
closed = 1;
nodes = (
(510,294,l),
(525,294,l),
(525,347,o),
(566,389,o),
(631,389,cs),
(685,389,o),
(710,360,o),
(710,295,cs),
(710,65,ls),
(710,24,o),
(744,-10,o),
(785,-10,cs),
(826,-10,o),
(860,24,o),
(860,65,cs),
(860,320,ls),
(860,456,o),
(781,530,o),
(667,530,cs),
(600,530,o),
(554,505,o),
(510,448,c)
);
},
{
closed = 1;
nodes = (
(186,-10,o),
(220,24,o),
(220,65,cs),
(220,283,ls),
(220,359,o),
(263,389,o),
(316,389,cs),
(376,389,o),
(399,352,o),
(399,295,cs),
(399,65,ls),
(399,24,o),
(433,-10,o),
(474,-10,cs),
(515,-10,o),
(549,24,o),
(549,65,cs),
(550,294,ls),
(550,347,o),
(575,389,o),
(640,389,cs),
(694,389,o),
(719,360,o),
(719,295,cs),
(719,65,ls),
(719,24,o),
(753,-10,o),
(794,-10,cs),
(835,-10,o),
(869,24,o),
(869,65,cs),
(869,320,ls),
(869,456,o),
(790,530,o),
(676,530,cs),
(593,530,o),
(541,507,o),
(473,392,c),
(532,405,l),
(502,483,o),
(435,530,o),
(356,530,cs),
(293,530,o),
(230,497,o),
(189,412,c),
(209,413,l),
(240,468,o),
(198,525,o),
(145,525,cs),
(104,525,o),
(70,491,o),
(70,450,cs),
(70,65,ls),
(70,24,o),
(104,-10,o),
(145,-10,cs)
);
},
{
closed = 1;
nodes = (
(186,-10,o),
(220,24,o),
(220,65,cs),
(220,283,ls),
(220,359,o),
(263,389,o),
(316,389,cs),
(376,389,o),
(399,352,o),
(399,295,cs),
(399,65,ls),
(399,24,o),
(433,-10,o),
(474,-10,cs),
(515,-10,o),
(549,24,o),
(549,65,cs),
(550,294,ls),
(550,347,o),
(575,389,o),
(640,389,cs),
(694,389,o),
(719,360,o),
(719,295,cs),
(719,65,ls),
(719,24,o),
(753,-10,o),
(794,-10,cs),
(835,-10,o),
(869,24,o),
(869,65,cs),
(869,320,ls),
(869,456,o),
(790,530,o),
(676,530,cs),
(593,530,o),
(541,507,o),
(473,392,c),
(532,405,l),
(502,483,o),
(435,530,o),
(356,530,cs),
(293,530,o),
(230,497,o),
(189,412,c),
(209,413,l),
(240,468,o),
(198,525,o),
(145,525,cs),
(104,525,o),
(70,491,o),
(70,450,cs),
(70,65,ls),
(70,24,o),
(104,-10,o),
(145,-10,cs)
);
},
{
closed = 1;
nodes = (
(186,-10,o),
(220,24,o),
(220,65,cs),
(220,283,ls),
(220,359,o),
(263,389,o),
(316,389,cs),
(376,389,o),
(399,352,o),
(399,295,cs),
(399,65,ls),
(399,24,o),
(433,-10,o),
(474,-10,cs),
(515,-10,o),
(549,24,o),
(549,65,cs),
(550,294,ls),
(550,347,o),
(575,389,o),
(640,389,cs),
(694,389,o),
(719,360,o),
(719,295,cs),
(719,65,ls),
(719,24,o),
(753,-10,o),
(794,-10,cs),
(835,-10,o),
(869,24,o),
(869,65,cs),
(869,320,ls),
(869,456,o),
(790,530,o),
(676,530,cs),
(593,530,o),
(541,507,o),
(473,392,c),
(532,405,l),
(502,483,o),
(435,530,o),
(356,530,cs),
(293,530,o),
(228,494,o),
(189,412,c),
(230,413,l),
(222,453,ls),
(214,492,o),
(189,525,o),
(145,525,cs),
(104,525,o),
(70,491,o),
(70,450,cs),
(70,65,ls),
(70,24,o),
(104,-10,o),
(145,-10,cs)
);
}
);
};
layerId = "6242D68C-0A25-4F05-8F2A-2075F7C4A210";
shapes = (
{
closed = 1;
nodes = (
(186,-10,o),
(220,24,o),
(220,65,cs),
(220,283,ls),
(220,354,o),
(255,389,o),
(314,389,cs),
(370,389,o),
(399,356,o),
(399,295,cs),
(399,65,ls),
(399,24,o),
(433,-10,o),
(474,-10,cs),
(515,-10,o),
(549,24,o),
(549,65,cs),
(550,294,ls),
(550,354,o),
(577,389,o),
(635,389,cs),
(690,389,o),
(719,360,o),
(719,295,cs),
(719,65,ls),
(719,24,o),
(753,-10,o),
(794,-10,cs),
(835,-10,o),
(869,24,o),
(869,65,cs),
(869,320,ls),
(869,456,o),
(790,530,o),
(676,530,cs),
(597,530,o),
(536,503,o),
(481,392,c),
(532,405,l),
(502,483,o),
(435,530,o),
(356,530,cs),
(293,530,o),
(228,494,o),
(189,412,c),
(221,413,l),
(219,453,ls),
(217,492,o),
(189,525,o),
(145,525,cs),
(104,525,o),
(70,491,o),
(70,450,cs),
(70,65,ls),
(70,24,o),
(104,-10,o),
(145,-10,cs)
);
}
);
width = 934;
},
{
anchors = (
{
name = bottom;
pos = (425,0);
},
{
name = top;
pos = (425,515);
}
);
background = {
shapes = (
{
closed = 1;
nodes = (
(118,-10,o),
(125,2,o),
(125,17,cs),
(125,703,ls),
(125,718,o),
(118,730,o),
(102,730,cs),
(86,730,o),
(80,718,o),
(80,703,cs),
(80,17,ls),
(80,2,o),
(86,-10,o),
(102,-10,cs)
);
},
{
closed = 1;
nodes = (
(112,335,l),
(125,335,l),
(125,421,o),
(200,487,o),
(300,487,cs),
(373,487,o),
(430,440,o),
(430,349,cs),
(430,17,ls),
(430,2,o),
(437,-10,o),
(452,-10,cs),
(467,-10,o),
(475,2,o),
(475,17,cs),
(475,349,ls),
(475,476,o),
(386,530,o),
(300,530,cs),
(221,530,o),
(153,494,o),
(112,431,c)
);
},
{
closed = 1;
nodes = (
(118,-10,o),
(125,2,o),
(125,17,cs),
(125,342,l),
(130,423,o),
(204,487,o),
(281,487,cs),
(355,487,o),
(410,440,o),
(410,349,cs),
(410,17,ls),
(410,2,o),
(417,-10,o),
(432,-10,cs),
(447,-10,o),
(455,2,o),
(455,17,cs),
(455,349,ls),
(455,433,o),
(525,487,o),
(599,487,cs),
(678,487,o),
(739,443,o),
(739,349,cs),
(739,17,ls),
(739,2,o),
(746,-10,o),
(761,-10,cs),
(776,-10,o),
(784,2,o),
(784,17,cs),
(784,349,ls),
(784,475,o),
(695,530,o),
(606,530,cs),
(542,530,o),
(463,499,o),
(429,423,c),
(442,422,l),
(415,497,o),
(348,530,o),
(287,530,cs),
(222,530,o),
(153,496,o),
(118,434,c),
(125,426,l),
(125,498,ls),
(125,513,o),
(118,525,o),
(102,525,cs),
(86,525,o),
(80,513,o),
(80,498,cs),
(80,17,ls),
(80,2,o),
(86,-10,o),
(102,-10,cs)
);
}
);
};
layerId = "3D52442A-254C-4C79-B742-A98FD72DF947";
shapes = (
{
closed = 1;
nodes = (
(118,-10,o),
(125,2,o),
(125,17,cs),
(125,354,ls),
(125,421,o),
(202,487,o),
(276,487,cs),
(353,487,o),
(410,440,o),
(410,349,cs),
(410,17,ls),
(410,2,o),
(417,-10,o),
(432,-10,cs),
(447,-10,o),
(455,2,o),
(455,17,cs),
(455,349,ls),
(455,433,o),
(520,487,o),
(597,487,cs),
(673,487,o),
(734,443,o),
(734,349,cs),
(734,17,ls),
(734,2,o),
(741,-10,o),
(756,-10,cs),
(771,-10,o),
(779,2,o),
(779,17,cs),
(779,349,ls),
(779,466,o),
(704,530,o),
(601,530,cs),
(538,530,o),
(464,498,o),
(432,418,c),
(445,417,l),
(417,495,o),
(351,530,o),
(278,530,cs),
(216,530,o),
(144,493,o),
(118,426,c),
(125,418,l),
(125,498,ls),
(125,513,o),
(118,525,o),
(102,525,cs),
(86,525,o),
(80,513,o),
(80,498,cs),
(80,17,ls),
(80,2,o),
(86,-10,o),
(102,-10,cs)
);
}
);
width = 849;
},
{
anchors = (
{
name = bottom;
pos = (436,0);
},
{
name = top;
pos = (436,515);
}
);
layerId = "DB110BCC-92E3-410E-8C20-9F3FFF600FD0";
shapes = (
{
closed = 1;
nodes = (
(134,-10,o),
(151,8,o),
(151,32,cs),
(151,338,ls),
(151,409,o),
(216,456,o),
(289,456,cs),
(359,456,o),
(406,411,o),
(406,337,cs),
(406,32,ls),
(406,8,o),
(423,-10,o),
(447,-10,cs),
(470,-10,o),
(487,8,o),
(487,32,cs),
(487,340,ls),
(487,413,o),
(544,455,o),
(613,455,cs),
(684,455,o),
(731,411,o),
(731,337,cs),
(731,32,ls),
(731,8,o),
(748,-10,o),
(772,-10,cs),
(795,-10,o),
(811,8,o),
(811,32,cs),
(811,340,ls),
(811,459,o),
(732,530,o),
(626,530,cs),
(562,530,o),
(493,505,o),
(441,417,c),
(470,421,l),
(442,491,o),
(379,530,o),
(302,530,cs),
(238,530,o),
(175,503,o),
(134,437,c),
(151,423,l),
(151,484,ls),
(151,508,o),
(134,525,o),
(110,525,cs),
(87,525,o),
(70,508,o),
(70,484,cs),
(70,32,ls),
(70,8,o),
(87,-10,o),
(110,-10,cs)
);
}
);
width = 876;
}
);
metricLeft = "=n";
metricRight = "=n";
unicode = 109;
},
{
glyphname = n;
kernLeft = n;
kernRight = n;
lastChange = "2024-06-17 18:15:40 +0000";
layers = (
{
anchors = (
{
name = bottom;
pos = (310,0);
},
{
name = top;
pos = (310,515);
}
);
background = {
shapes = (
{
closed = 1;
nodes = (
(186,-10,o),
(220,24,o),
(220,65,cs),
(220,655,ls),
(220,696,o),
(186,730,o),
(145,730,cs),
(103,730,o),
(70,696,o),
(70,655,cs),
(70,65,ls),
(70,24,o),
(103,-10,o),
(145,-10,cs)
);
},
{
closed = 1;
nodes = (
(205,294,l),
(220,294,l),
(220,347,o),
(261,389,o),
(326,389,cs),
(380,389,o),
(405,360,o),
(405,295,cs),
(405,65,ls),
(405,24,o),
(439,-10,o),
(480,-10,cs),
(521,-10,o),
(555,24,o),
(555,65,cs),
(555,320,ls),
(555,456,o),
(476,530,o),
(362,530,cs),
(295,530,o),
(249,505,o),
(205,448,c)
);
},
{
closed = 1;
nodes = (
(186,-10,o),
(220,24,o),
(220,65,cs),
(220,450,ls),
(220,491,o),
(186,525,o),
(145,525,cs),
(103,525,o),
(70,491,o),
(70,450,cs),
(70,65,ls),
(70,24,o),
(103,-10,o),
(145,-10,cs)
);
},
{
closed = 1;
nodes = (
(176,294,l),
(220,294,l),
(220,339,o),
(251,389,o),
(321,389,cs),
(377,389,o),
(405,357,o),
(405,291,cs),
(405,65,ls),
(405,24,o),
(439,-10,o),
(480,-10,cs),
(521,-10,o),
(555,24,o),
(555,65,cs),
(555,320,ls),
(555,456,o),
(476,530,o),
(362,530,cs),
(295,530,o),
(249,505,o),
(205,441,c)
);
},
{
closed = 1;
nodes = (
(186,-10,o),
(220,24,o),
(220,65,cs),
(220,285,ls),
(220,339,o),
(251,389,o),
(317,389,cs),
(374,389,o),
(405,350,o),
(405,291,cs),
(405,65,ls),
(405,24,o),
(439,-10,o),
(480,-10,cs),
(521,-10,o),
(555,24,o),
(555,65,cs),
(555,320,ls),
(555,456,o),
(476,530,o),
(368,530,cs),
(286,530,o),
(230,487,o),
(186,402,c),
(220,391,l),
(220,655,ls),
(220,696,o),
(186,730,o),
(145,730,cs),
(103,730,o),
(70,696,o),
(70,655,cs),
(70,65,ls),
(70,24,o),
(103,-10,o),
(145,-10,cs)
);
}
);
};
layerId = "6242D68C-0A25-4F05-8F2A-2075F7C4A210";
shapes = (
{
closed = 1;
nodes = (
(188,-10,o),
(220,22,o),
(220,65,cs),
(220,285,ls),
(220,339,o),
(251,389,o),
(317,389,cs),
(374,389,o),
(405,350,o),
(405,291,cs),
(405,65,ls),
(405,22,o),
(437,-10,o),
(480,-10,cs),
(523,-10,o),
(555,22,o),
(555,65,cs),
(555,320,ls),
(555,456,o),
(476,530,o),
(368,530,cs),
(286,530,o),
(233,487,o),
(190,402,c),
(220,391,l),
(220,450,ls),
(220,491,o),
(186,525,o),
(145,525,cs),
(102,525,o),
(70,493,o),
(70,450,cs),
(70,65,ls),
(70,22,o),
(102,-10,o),
(145,-10,cs)
);
}
);
width = 620;
},
{
anchors = (
{
name = bottom;
pos = (278,0);
},
{
name = top;
pos = (278,515);
}
);
background = {
shapes = (
{
closed = 1;
nodes = (
(112,335,l),
(125,335,l),
(125,417,o),
(201,487,o),
(300,487,cs),
(383,487,o),
(440,440,o),
(440,349,cs),
(440,17,ls),
(440,2,o),
(447,-10,o),
(462,-10,cs),
(477,-10,o),
(485,2,o),
(485,17,cs),
(485,349,ls),
(485,475,o),
(396,530,o),
(300,530,cs),
(226,530,o),
(156,499,o),
(112,431,c)
);
},
{
closed = 1;
nodes = (
(-482,-10,o),
(-475,2,o),
(-475,17,cs),
(-475,331,ls),
(-475,417,o),
(-400,487,o),
(-309,487,cs),
(-227,487,o),
(-170,440,o),
(-170,349,cs),
(-170,17,ls),
(-170,2,o),
(-163,-10,o),
(-148,-10,cs),
(-133,-10,o),
(-125,2,o),
(-125,17,cs),
(-125,349,ls),
(-125,473,o),
(-209,530,o),
(-300,530,cs),
(-376,530,o),
(-450,492,o),
(-483,424,c),
(-475,407,l),
(-475,703,ls),
(-475,718,o),
(-482,730,o),
(-498,730,cs),
(-514,730,o),
(-520,718,o),
(-520,703,cs),
(-520,17,ls),
(-520,2,o),
(-514,-10,o),
(-498,-10,cs)
);
},
{
closed = 1;
nodes = (
(118,-10,o),
(125,2,o),
(125,17,cs),
(125,498,ls),
(125,513,o),
(118,525,o),
(102,525,cs),
(86,525,o),
(80,513,o),
(80,498,cs),
(80,17,ls),
(80,2,o),
(86,-10,o),
(102,-10,cs)
);
},
{
closed = 1;
nodes = (
(112,335,l),
(125,335,l),
(125,421,o),
(200,487,o),
(300,487,cs),
(383,487,o),
(440,440,o),
(440,349,cs),
(440,17,ls),
(440,2,o),
(447,-10,o),
(462,-10,cs),
(477,-10,o),
(485,2,o),
(485,17,cs),
(485,349,ls),
(485,474,o),
(400,530,o),
(300,530,cs),
(221,530,o),
(153,494,o),
(112,431,c)
);
}
);
};
layerId = "3D52442A-254C-4C79-B742-A98FD72DF947";
shapes = (
{
closed = 1;
nodes = (
(118,-10,o),
(125,2,o),
(125,17,cs),
(125,331,ls),
(125,418,o),
(203,487,o),
(297,487,cs),
(381,487,o),
(440,440,o),
(440,333,cs),
(440,17,ls),
(440,2,o),
(447,-10,o),
(463,-10,cs),
(477,-10,o),
(485,2,o),
(485,17,cs),
(485,333,ls),
(485,473,o),
(399,530,o),
(306,530,cs),
(228,530,o),
(151,492,o),
(117,425,c),
(125,408,l),
(125,498,ls),
(125,515,o),
(118,525,o),
(103,525,cs),
(88,525,o),
(80,515,o),
(80,498,cs),
(80,17,ls),
(80,2,o),
(86,-10,o),
(102,-10,cs)
);
}
);
width = 555;
},
{
anchors = (
{
name = bottom;
pos = (280,0);
},
{
name = top;
pos = (280,515);
}
);
layerId = "DB110BCC-92E3-410E-8C20-9F3FFF600FD0";
shapes = (
{
closed = 1;
nodes = (
(134,-10,o),
(151,8,o),
(151,32,cs),
(151,333,ls),
(151,408,o),
(218,456,o),
(292,456,cs),
(365,456,o),
(414,411,o),
(414,335,cs),
(414,32,ls),
(414,8,o),
(430,-10,o),
(455,-10,cs),
(479,-10,o),
(495,8,o),
(495,32,cs),
(495,338,ls),
(495,461,o),
(414,530,o),
(306,530,cs),
(238,530,o),
(177,500,o),
(134,435,c),
(151,417,l),
(151,484,ls),
(151,508,o),
(134,525,o),
(110,525,cs),
(87,525,o),
(70,508,o),
(70,484,cs),
(70,32,ls),
(70,8,o),
(87,-10,o),
(110,-10,cs)
);
}
);
width = 560;
}
);
unicode = 110;
},
{
glyphname = eng;
kernLeft = n;
kernRight = j;
lastChange = "2024-06-17 18:15:40 +0000";
layers = (
{
anchors = (
{
name = bottom;
pos = (308,0);
},
{
name = top;
pos = (308,515);
}
);
layerId = "6242D68C-0A25-4F05-8F2A-2075F7C4A210";
shapes = (
{
closed = 1;
nodes = (
(186,-10,o),
(220,24,o),
(220,65,cs),
(220,285,ls),
(220,339,o),
(251,389,o),
(317,389,cs),
(374,389,o),
(405,350,o),
(405,291,cs),
(405,65,l),
(555,65,l),
(555,320,ls),
(555,456,o),
(476,530,o),
(368,530,cs),
(286,530,o),
(233,487,o),
(190,402,c),
(220,391,l),
(220,450,ls),
(220,491,o),
(186,525,o),
(145,525,cs),
(103,525,o),
(70,491,o),
(70,450,cs),
(70,65,ls),
(70,24,o),
(103,-10,o),
(145,-10,cs)
);
},
{
closed = 1;
nodes = (
(502,-215,o),
(555,-140,o),
(555,-59,cs),
(555,112,l),
(405,112,l),
(405,-48,ls),
(405,-56,o),
(404,-68,o),
(393,-68,cs),
(388,-68,o),
(380,-65,o),
(372,-60,cs),
(360,-53,o),
(347,-49,o),
(333,-49,cs),
(292,-49,o),
(258,-83,o),
(258,-124,cs),
(258,-188,o),
(332,-215,o),
(394,-215,cs)
);
}
);
width = 616;
},
{
anchors = (
{
name = bottom;
pos = (267,0);
},
{
name = top;
pos = (267,515);
}
);
layerId = "3D52442A-254C-4C79-B742-A98FD72DF947";
shapes = (
{
closed = 1;
nodes = (
(118,-10,o),
(125,2,o),
(125,17,cs),
(125,331,ls),
(125,418,o),
(203,487,o),
(297,487,cs),
(381,487,o),
(440,440,o),
(440,333,cs),
(440,17,l),
(485,17,l),
(485,333,ls),
(485,473,o),
(399,530,o),
(306,530,cs),
(228,530,o),
(151,492,o),
(117,425,c),
(125,408,l),
(125,498,ls),
(125,515,o),
(118,525,o),
(103,525,cs),
(88,525,o),
(80,515,o),
(80,498,cs),
(80,17,ls),
(80,2,o),
(86,-10,o),
(102,-10,cs)
);
},
{
closed = 1;
nodes = (
(466,-210,o),
(485,-152,o),
(485,-105,cs),
(485,62,l),
(440,62,l),
(440,-105,ls),
(440,-138,o),
(431,-166,o),
(395,-166,cs),
(379,-166,o),
(364,-160,o),
(352,-142,cs),
(348,-136,o),
(341,-132,o),
(333,-132,cs),
(320,-132,o),
(312,-142,o),
(312,-153,cs),
(312,-180,o),
(348,-210,o),
(394,-210,cs)
);
}
);
width = 534;
},
{
anchors = (
{
name = bottom;
pos = (274,0);
},
{
name = top;
pos = (274,515);
}
);
layerId = "DB110BCC-92E3-410E-8C20-9F3FFF600FD0";
shapes = (
{
closed = 1;
nodes = (
(134,-10,o),
(151,8,o),
(151,32,cs),
(151,333,ls),
(151,408,o),
(218,456,o),
(292,456,cs),
(365,456,o),
(414,411,o),
(414,335,cs),
(414,32,l),
(495,32,l),
(495,338,ls),
(495,461,o),
(414,530,o),
(306,530,cs),
(238,530,o),
(177,500,o),
(134,435,c),
(151,417,l),
(151,484,ls),
(151,508,o),
(134,525,o),
(110,525,cs),
(87,525,o),
(70,508,o),
(70,484,cs),
(70,32,ls),
(70,8,o),
(87,-10,o),
(110,-10,cs)
);
},
{
closed = 1;
nodes = (
(453,-214,o),
(495,-165,o),
(495,-89,cs),
(495,101,l),
(414,101,l),
(414,-88,ls),
(414,-115,o),
(410,-134,o),
(385,-134,cs),
(376,-134,o),
(366,-132,o),
(356,-121,cs),
(349,-115,o),
(340,-111,o),
(328,-111,cs),
(306,-111,o),
(290,-129,o),
(290,-149,cs),
(290,-187,o),
(335,-214,o),
(383,-214,cs)
);
}
);
width = 550;
}
);
metricLeft = "=n";
metricRight = "=j";
unicode = 331;
},
{
glyphname = o;
kernLeft = o;
kernRight = o;
lastChange = "2024-07-07 15:29:41 +0000";
layers = (
{
anchors = (
{
name = bottom;
pos = (298,0);
},
{
name = center;
pos = (298,258);
},
{
name = ogonek;
pos = (309,0);
},
{
name = top;
pos = (298,515);
},
{
name = topright;
pos = (340,530);
}
);
background = {
shapes = (
{
closed = 1;
nodes = (
(451,136,o),
(398,62,o),
(298,62,cs),
(198,62,o),
(145,136,o),
(145,259,cs),
(145,378,o),
(198,453,o),
(298,453,cs),
(398,453,o),
(451,378,o),
(451,259,c)
);
},
{
closed = 1;
nodes = (
(531,413,o),
(441,530,o),
(298,530,cs),
(155,530,o),
(65,413,o),
(65,259,cs),
(65,101,o),
(155,-15,o),
(298,-15,cs),
(441,-15,o),
(531,101,o),
(531,259,cs)
);
}
);
};
layerId = "6242D68C-0A25-4F05-8F2A-2075F7C4A210";
shapes = (
{
closed = 1;
nodes = (
(453,-15,o),
(556,104,o),
(556,259,cs),
(556,410,o),
(453,530,o),
(298,530,cs),
(143,530,o),
(40,410,o),
(40,259,cs),
(40,104,o),
(143,-15,o),
(298,-15,cs)
);
},
{
closed = 1;
nodes = (
(233,122,o),
(195,167,o),
(195,259,cs),
(195,347,o),
(233,393,o),
(298,393,cs),
(363,393,o),
(401,347,o),
(401,259,cs),
(401,167,o),
(363,122,o),
(298,122,cs)
);
}
);
width = 596;
},
{
anchors = (
{
name = bottom;
pos = (271,0);
},
{
name = center;
pos = (273,270);
},
{
name = ogonek;
pos = (321,0);
},
{
name = top;
pos = (271,515);
},
{
name = topright;
pos = (356,515);
}
);
background = {
shapes = (
{
closed = 1;
nodes = (
(423,136,o),
(370,62,o),
(270,62,cs),
(170,62,o),
(117,136,o),
(117,259,cs),
(117,378,o),
(170,453,o),
(270,453,cs),
(370,453,o),
(423,378,o),
(423,259,c)
);
},
{
closed = 1;
nodes = (
(503,413,o),
(413,530,o),
(270,530,cs),
(127,530,o),
(37,413,o),
(37,259,cs),
(37,101,o),
(127,-15,o),
(270,-15,cs),
(413,-15,o),
(503,101,o),
(503,259,cs)
);
}
);
};
layerId = "3D52442A-254C-4C79-B742-A98FD72DF947";
shapes = (
{
closed = 1;
nodes = (
(412,-15,o),
(496,93,o),
(496,259,cs),
(496,421,o),
(412,530,o),
(270,530,cs),
(128,530,o),
(45,421,o),
(45,259,cs),
(45,93,o),
(128,-15,o),
(270,-15,cs)
);
},
{
closed = 1;
nodes = (
(157,28,o),
(91,118,o),
(91,259,cs),
(91,396,o),
(157,487,o),
(270,487,cs),
(383,487,o),
(450,396,o),
(450,259,cs),
(450,118,o),
(383,28,o),
(270,28,cs)
);
}
);
width = 541;
},
{
anchors = (
{
name = bottom;
pos = (276,0);
},
{
name = center;
pos = (276,258);
},
{
name = ogonek;
pos = (305,0);
},
{
name = top;
pos = (276,515);
},
{
name = topright;
pos = (324,529);
}
);
layerId = "DB110BCC-92E3-410E-8C20-9F3FFF600FD0";
shapes = (
{
closed = 1;
nodes = (
(415,-15,o),
(512,96,o),
(512,259,cs),
(512,420,o),
(415,530,o),
(274,530,cs),
(134,530,o),
(40,420,o),
(40,259,cs),
(40,96,o),
(134,-15,o),
(274,-15,cs)
);
},
{
closed = 1;
nodes = (
(176,60,o),
(121,135,o),
(121,259,cs),
(121,380,o),
(176,456,o),
(274,456,cs),
(373,456,o),
(430,380,o),
(430,259,cs),
(430,135,o),
(373,60,o),
(274,60,cs)
);
}
);
width = 552;
}
);
unicode = 111;
},
{
glyphname = oslash;
kernLeft = o;
kernRight = o;
lastChange = "2024-06-17 18:15:40 +0000";
layers = (
{
anchors = (
{
name = top;
pos = (298,515);
}
);
layerId = "6242D68C-0A25-4F05-8F2A-2075F7C4A210";
shapes = (
{
ref = o;
},
{
ref = slashlongcomb;
}
);
width = 596;
},
{
anchors = (
{
name = top;
pos = (271,515);
}
);
background = {
shapes = (
{
attr = {
lineCapEnd = "2";
lineCapStart = "2";
strokeHeight = 45;
strokeWidth = 45;
};
closed = 0;
nodes = (
(75,-9,l),
(461,519,l)
);
}
);
};
layerId = "3D52442A-254C-4C79-B742-A98FD72DF947";
shapes = (
{
ref = o;
},
{
pos = (2,12);
ref = slashlongcomb;
}
);
width = 541;
},
{
anchors = (
{
name = top;
pos = (275,515);
}
);
layerId = "DB110BCC-92E3-410E-8C20-9F3FFF600FD0";
shapes = (
{
alignment = -1;
ref = o;
},
{
ref = slashlongcomb;
}
);
width = 552;
}
);
metricLeft = "=o";
metricRight = "=o";
unicode = 248;
},
